<svg xmlns="http://www.w3.org/2000/svg" xmlns:xlink="http://www.w3.org/1999/xlink" width="174.494" height="219.201" viewBox="0 0 174.494 219.201">
  <defs>
    <linearGradient id="linear-gradient" x1="8.737" y1="0.5" x2="9.737" y2="0.5" gradientUnits="objectBoundingBox">
      <stop offset="0" stop-color="gray" stop-opacity="0.251"/>
      <stop offset="0.54" stop-color="gray" stop-opacity="0.122"/>
      <stop offset="1" stop-color="gray" stop-opacity="0.102"/>
    </linearGradient>
  </defs>
  <g id="Group_10536" data-name="Group 10536" transform="translate(-8133.133 -1169)">
    <ellipse id="Ellipse_3299" data-name="Ellipse 3299" cx="70.06" cy="10.558" rx="70.06" ry="10.558" transform="translate(8167.506 1367.084)" fill="#87b45a" opacity="0.83"/>
    <path id="Path_10447" data-name="Path 10447" d="M988.89,613.59s3,3.926-1.385,9.85-8,10.927-6.541,14.622c0,0,6.624-11,12-11.16S994.817,620.208,988.89,613.59Z" transform="translate(7292.724 712.125)" fill="#fc6681"/>
    <path id="Path_10448" data-name="Path 10448" d="M989.307,613.59a4.854,4.854,0,0,1,.614,1.23c5.256,6.175,8.064,11.938,3,12.1-4.706.135-10.351,8.551-11.7,10.676a4.55,4.55,0,0,0,.161.484s6.624-11,12-11.16S995.234,620.208,989.307,613.59Z" transform="translate(7292.307 712.125)" opacity="0.1"/>
    <path id="Path_10449" data-name="Path 10449" d="M1026.961,628.8c0,1.382-.156,2.5-.346,2.5s-.346-1.12-.346-2.5.193-.732.386-.732S1026.961,627.409,1026.961,628.8Z" transform="translate(7260.231 701.926)" fill="#ffd037"/>
    <path id="Path_10450" data-name="Path 10450" d="M1029.466,634.345c-1.212.662-2.27,1.06-2.362.893s.818-.841,2.016-1.5.734-.179.827,0S1030.678,633.685,1029.466,634.345Z" transform="translate(7259.642 698.021)" fill="#ffd037"/>
    <path id="Path_10451" data-name="Path 10451" d="M937.617,613.59s-3,3.926,1.385,9.85,8,10.927,6.541,14.622c0,0-6.624-11-12-11.16S931.69,620.208,937.617,613.59Z" transform="translate(7328.145 712.125)" fill="#fc6681"/>
    <path id="Path_10452" data-name="Path 10452" d="M937.617,613.59a4.858,4.858,0,0,0-.614,1.23c-5.256,6.175-8.064,11.938-3,12.1,4.706.135,10.351,8.551,11.7,10.676a4.564,4.564,0,0,1-.161.484s-6.624-11-12-11.16S931.69,620.208,937.617,613.59Z" transform="translate(7328.145 712.125)" opacity="0.1"/>
    <path id="Path_10453" data-name="Path 10453" d="M934.88,628.8c0,1.382.156,2.5.346,2.5s.346-1.12.346-2.5-.193-.732-.386-.732S934.88,627.409,934.88,628.8Z" transform="translate(7325.3 701.926)" fill="#ffd037"/>
    <path id="Path_10454" data-name="Path 10454" d="M926.423,634.345c1.213.662,2.27,1.06,2.362.893s-.818-.841-2.016-1.5-.734-.179-.826,0S925.2,633.685,926.423,634.345Z" transform="translate(7331.844 698.021)" fill="#ffd037"/>
    <path id="Path_10455" data-name="Path 10455" d="M938.2,685.571s8.392-.259,10.921-2.059,12.908-3.951,13.536-1.063,12.612,14.363,3.136,14.441-22.012-1.475-24.538-3.013S938.2,685.571,938.2,685.571Z" transform="translate(7322.937 664.103)" fill="#a8a8a8"/>
    <path id="Path_10456" data-name="Path 10456" d="M965.949,707.062c-9.472.078-22.012-1.475-24.538-3.013-1.921-1.172-2.687-5.371-2.943-7.31h-.288s.533,6.768,3.056,8.306,15.063,3.09,24.538,3.013c2.736-.023,3.681-.994,3.629-2.437C969.025,706.5,967.983,707.048,965.949,707.062Z" transform="translate(7322.951 652.923)" opacity="0.2"/>
    <path id="Path_10457" data-name="Path 10457" d="M495.614,97.021c-.815-1.331-2.033-2.549-1.843-4.058a11.893,11.893,0,0,0,6.4-1.233,52.186,52.186,0,0,0,5.864-3.387c.755-.475,1.506-.942,2.255-1.374,1.187-.683,2.365-1.44,3.571-2.105a13.493,13.493,0,0,1,5.432-1.878c.348-.026.7-.032,1.057-.026,2.39.049,4.867.688,6.97-.383l.13-.069a18.861,18.861,0,0,0,3.082-2.667,13.739,13.739,0,0,1,2.388-1.659c1.549-.864,3.231-1.555,4.821-2.37a7.574,7.574,0,0,0,1.152-.74l.271-.216.06-.052.2-.167.124-.109.127-.115.1-.092.158-.15.017-.017.253-.251.1-.1.176-.179.1-.107.53-.544c.207-.21.42-.418.639-.619h0l.207-.184.06-.052.167-.141.081-.066.164-.127.081-.063.248-.179A1.746,1.746,0,0,1,541,71.4l-.518-1.313,1.549-.639L563.4,121.305l-1.549.639L549.621,92.28l-.086.086a24.564,24.564,0,0,1-10.106,6.014h-.023c-2.128.642-4.51,1.1-6.3,2.3a6.049,6.049,0,0,0-1.627,1.558c-.421.6-.714,1.282-1.166,1.858-.083.107-.176.21-.268.308a10.008,10.008,0,0,1-1.728,1.368l-.288.187a56.016,56.016,0,0,1-5.789,3.571,22.794,22.794,0,0,1-3.6,1.5c-.9.288-1.832.5-2.733.783a10.617,10.617,0,0,0-1.763.708,12.876,12.876,0,0,0-3.807,3.381c-.971,1.169-1.892,2.4-2.958,3.47-.665.665-1.682,1.29-2.491.9a1.394,1.394,0,0,1-.161-.1c.023-.043.046-.086.066-.132.636-1.333-.147-2.981-1.2-4.052-.109-.109-.222-.219-.337-.325s-.32-.288-.487-.432a11.727,11.727,0,0,1-2.486-2.494,8.183,8.183,0,0,1-.956-2.71,11.51,11.51,0,0,0-1.215-3.908c-.487-.763-1.2-1.414-1.728-2.146a3.244,3.244,0,0,1-.634-1.477,9.608,9.608,0,0,1,.481-2.788,3.454,3.454,0,0,0,.058-.772A4.076,4.076,0,0,0,495.614,97.021Z" transform="translate(7639.382 1099.55)" fill="url(#linear-gradient)"/>
    <rect id="Rectangle_1548" data-name="Rectangle 1548" width="1.65" height="55.144" transform="translate(8202.194 1220.446) rotate(157.6)" fill="#d6d8e1"/>
    <path id="Path_10458" data-name="Path 10458" d="M500.076,111.5a11.21,11.21,0,0,1,1.2,3.842,8.045,8.045,0,0,0,.942,2.664,11.6,11.6,0,0,0,2.442,2.454c.161.138.323.288.478.423a4.584,4.584,0,0,1,.331.32c1.037,1.051,1.806,2.67,1.181,3.983a1.385,1.385,0,0,1-.066.13,1.378,1.378,0,0,0,.158.092c.795.383,1.794-.233,2.448-.887,1.048-1.048,1.956-2.264,2.909-3.413a12.65,12.65,0,0,1,3.744-3.326,10.443,10.443,0,0,1,1.728-.7c.884-.288,1.8-.492,2.687-.772a22.407,22.407,0,0,0,3.54-1.472,55.069,55.069,0,0,0,5.691-3.511l.271-.184a9.834,9.834,0,0,0,1.7-1.345c.092-.1.181-.2.262-.3.444-.576.734-1.238,1.152-1.826a5.953,5.953,0,0,1,1.6-1.532c1.763-1.172,4.1-1.621,6.2-2.252h.023a24.152,24.152,0,0,0,9.936-5.913,1.6,1.6,0,0,0,.5-.732,1.637,1.637,0,0,0-.34-1.152q-.369-.628-.717-1.267a56.631,56.631,0,0,1-2.843-5.973q-.272-.67-.527-1.348Q546.041,85.774,545.5,84c-.118-.395-.233-.786-.343-1.184-.02-.075-.04-.156-.063-.242-.478-1.944-1.117-6.428-3.085-5.083a11.151,11.151,0,0,0-1.627,1.411c-.383.389-.758.789-1.152,1.175a11.391,11.391,0,0,1-1.017.89,7.452,7.452,0,0,1-1.152.726c-1.561.8-3.217,1.472-4.741,2.33a13.513,13.513,0,0,0-2.347,1.63,18.358,18.358,0,0,1-3.03,2.624l-.13.066c-2.068,1.054-4.5.423-6.852.374-.349,0-.7,0-1.04.026a13.213,13.213,0,0,0-5.34,1.846c-1.187.657-2.344,1.4-3.511,2.071-.737.423-1.475.881-2.218,1.351a50.553,50.553,0,0,1-5.76,3.329,11.912,11.912,0,0,1-6.3,1.213c-.187,1.483,1.011,2.681,1.812,3.992a4.007,4.007,0,0,1,.677,1.889,3.382,3.382,0,0,1-.058.757,9.893,9.893,0,0,0-.472,2.742,3.187,3.187,0,0,0,.622,1.44C498.892,110.108,499.589,110.75,500.076,111.5Z" transform="translate(7637.936 1094.003)" fill="#e6e8ed"/>
    <path id="Path_10459" data-name="Path 10459" d="M643.1,80.967l1.607,3.816,5.276-2.223c-.475-1.933-1.115-6.417-3.082-5.072C645.476,78.461,644.511,79.884,643.1,80.967Z" transform="translate(7533.046 1094.003)" fill="#5a5773"/>
    <path id="Path_10460" data-name="Path 10460" d="M604,105.037l.685,1.63,6.089-2.563-1.4-3.324a13.513,13.513,0,0,0-2.347,1.63A18.336,18.336,0,0,1,604,105.037Z" transform="translate(7560.885 1077.243)" fill="#5a5773"/>
    <path id="Path_10461" data-name="Path 10461" d="M557.62,118.972l1.869,4.435,6.088-2.563L564,117.1c-.348,0-.7,0-1.04.026A13.128,13.128,0,0,0,557.62,118.972Z" transform="translate(7593.907 1065.623)" fill="#5a5773"/>
    <path id="Path_10462" data-name="Path 10462" d="M517.7,138.769l1.187,2.817,6.088-2.563-1.509-3.583A47.113,47.113,0,0,1,517.7,138.769Z" transform="translate(7622.33 1052.565)" fill="#5a5773"/>
    <rect id="Rectangle_1549" data-name="Rectangle 1549" width="6.607" height="6.607" transform="translate(8180.312 1184.862) rotate(157.18)" fill="#5a5773"/>
    <rect id="Rectangle_1550" data-name="Rectangle 1550" width="6.607" height="6.607" transform="translate(8168.134 1189.986) rotate(157.18)" fill="#5a5773"/>
    <rect id="Rectangle_1551" data-name="Rectangle 1551" width="6.607" height="6.607" transform="translate(8155.957 1195.113) rotate(157.18)" fill="#5a5773"/>
    <path id="Path_10463" data-name="Path 10463" d="M502.759,161.854l1.523,3.617,6.088-2.563-2.563-6.088L502.14,159.2a4.006,4.006,0,0,1,.677,1.889A3.383,3.383,0,0,1,502.759,161.854Z" transform="translate(7633.409 1037.343)" fill="#5a5773"/>
    <path id="Path_10464" data-name="Path 10464" d="M657.58,119.529l2.563,6.088,5.121-2.154a56.655,56.655,0,0,1-2.843-5.973Z" transform="translate(7522.736 1065.346)" fill="#5a5773"/>
    <rect id="Rectangle_1552" data-name="Rectangle 1552" width="6.607" height="6.607" transform="translate(8176.787 1193.514) rotate(157.18)" fill="#5a5773"/>
    <rect id="Rectangle_1553" data-name="Rectangle 1553" width="6.607" height="6.607" transform="translate(8164.606 1198.639) rotate(157.18)" fill="#5a5773"/>
    <rect id="Rectangle_1554" data-name="Rectangle 1554" width="6.607" height="6.607" transform="translate(8152.429 1203.768) rotate(157.18)" fill="#5a5773"/>
    <path id="Path_10465" data-name="Path 10465" d="M645.33,148.266l1.835,4.358a24.153,24.153,0,0,0,6-2.771l-1.748-4.153Z" transform="translate(7531.458 1045.26)" fill="#5a5773"/>
    <path id="Path_10466" data-name="Path 10466" d="M603,166.073l2.563,6.088,2.221-.936c.092-.1.181-.2.262-.3.444-.576.734-1.238,1.152-1.826a5.952,5.952,0,0,1,1.6-1.532l-1.7-4.055Z" transform="translate(7561.597 1032.58)" fill="#5a5773"/>
    <rect id="Rectangle_1555" data-name="Rectangle 1555" width="6.607" height="6.607" transform="translate(8161.084 1207.291) rotate(157.18)" fill="#5a5773"/>
    <path id="Path_10467" data-name="Path 10467" d="M518.47,201.663l2.339,5.559c.161.138.323.288.478.423l5.835-2.457-2.563-6.088Z" transform="translate(7621.782 1007.24)" fill="#5a5773"/>
    <path id="Path_10468" data-name="Path 10468" d="M507.692,193.389l1.045-.441-2.563-6.088-1.374.576c.51.72,1.215,1.359,1.693,2.108A11.186,11.186,0,0,1,507.692,193.389Z" transform="translate(7631.515 1015.955)" fill="#5a5773"/>
    <path id="Path_10469" data-name="Path 10469" d="M590.8,196.113l.648,1.544a55.088,55.088,0,0,0,5.691-3.511l-.251-.6Z" transform="translate(7570.283 1011.191)" fill="#5a5773"/>
    <path id="Path_10470" data-name="Path 10470" d="M548.52,213.913l1.129,2.681a12.65,12.65,0,0,1,3.744-3.326,10.441,10.441,0,0,1,1.728-.7l-.516-1.221Z" transform="translate(7600.387 998.518)" fill="#5a5773"/>
    <path id="Path_10472" data-name="Path 10472" d="M833.144,762.389s-.138,3.715-8.257,2.615,2.753,5.368,2.753,5.368l21.888.412s1.287-9.5-1.927-9.5C847.461,761.289,833.144,762.389,833.144,762.389Z" transform="translate(7405.759 606.971)" fill="#4a4347"/>
    <path id="Path_10473" data-name="Path 10473" d="M833.144,762.389s-.138,3.715-8.257,2.615,2.753,5.368,2.753,5.368l21.888.412s1.287-9.5-1.927-9.5C847.461,761.289,833.144,762.389,833.144,762.389Z" transform="translate(7405.759 606.971)" opacity="0.1"/>
    <path id="Path_10474" data-name="Path 10474" d="M800.74,507.1a2.761,2.761,0,0,0,.654,1.2c3.188,3.528,15.711,2.46,16.964,3.208.19.115.371.734.541,1.728h0c.59,3.439,1.043,11.316,1.325,17.542.219,4.836.337,8.678.337,8.678l.7,30.137,8.1-1.267,5.1-.786-2.477-19.682s-.138-18.167.288-19.27c1.25-3.332.553-8.64-.288-12.594a26.244,26.244,0,0,1-.2-9.962,30.573,30.573,0,0,0-2.088-17.81,17.228,17.228,0,0,0-1.152-2.16s-20.232-.288-23.812,1.927a5.108,5.108,0,0,0-1.6,1.8C800.692,493.911,799.7,502.96,800.74,507.1Z" transform="translate(7421.098 802.935)" fill="#5a5773"/>
    <path id="Path_10475" data-name="Path 10475" d="M814.994,781.509s-.138,3.715-8.257,2.615c-5.245-.711-2.566,1.728,0,3.557a10.079,10.079,0,0,0,5.668,1.866l18.979.357s1.287-9.5-1.927-9.5C829.308,780.409,814.994,781.509,814.994,781.509Z" transform="translate(7418.681 593.357)" fill="#4a4347"/>
    <path id="Path_10476" data-name="Path 10476" d="M941.3,322.536s1.236.092,3.168.147c2.143.06,5.147.072,8.263-.147,5.919-.412,4.542-4.542,4.542-4.542l-2.339-16.241s-5.918-13.625-7.569-9.634,3.027,10.322,3.027,10.322,2.065,10.737,0,12.249c-1.308.959-3.456.354-4.9-.219a12.817,12.817,0,0,1-1.388-.654Z" transform="translate(7320.729 941.532)" fill="#ffc99a"/>
    <path id="Path_10477" data-name="Path 10477" d="M721.541,227.946l1.515,16.517s1.789,3.442,3.854,4.542a44.721,44.721,0,0,1,5.786,4.536c.74.654,1.236,1.106,1.236,1.106l4.13-6.607a7.977,7.977,0,0,0-.953-1.083,10.529,10.529,0,0,0-5.242-2.771s-.343-1.031-1.1-2.88c-.53-1.3-3.853-8.534-3.853-8.534s-1.377-5.78-1.1-8.672-4.265-8.4-4.954-7.707S719.614,225.193,721.541,227.946Z" transform="translate(7478.138 994.969)" fill="#ffc99a"/>
    <path id="Path_10478" data-name="Path 10478" d="M831.86,322.434S846.724,324.5,844.8,321.2a9.931,9.931,0,0,1-1.014-3.652,42.827,42.827,0,0,1,.052-8.323l-11.149,1.927a15.047,15.047,0,0,1,.458,6.6A18.254,18.254,0,0,1,831.86,322.434Z" transform="translate(7398.65 928.835)" fill="#ffc99a"/>
    <circle id="Ellipse_3308" data-name="Ellipse 3308" cx="7.157" cy="7.157" r="7.157" transform="translate(8228.514 1229.317)" fill="#ffc99a"/>
    <path id="Path_10479" data-name="Path 10479" d="M810.06,489.764a5.185,5.185,0,0,0,2.287,1.094c2.2.412,9.36,1.238,12.114-.965,2.183-1.745,9.3-1.763,12.151-1.693a17.232,17.232,0,0,0-1.152-2.16s-20.232-.288-23.812,1.927A5.106,5.106,0,0,0,810.06,489.764Z" transform="translate(7414.171 802.949)" opacity="0.1"/>
    <path id="Path_10480" data-name="Path 10480" d="M763.54,329.244c.74.654,1.235,1.106,1.235,1.106l4.13-6.607a7.968,7.968,0,0,0-.953-1.083C765.942,323.046,764.2,327.389,763.54,329.244Z" transform="translate(7447.293 919.266)" opacity="0.1"/>
    <path id="Path_10481" data-name="Path 10481" d="M941.3,377.988s1.236.092,3.168.147a7.533,7.533,0,0,0,1.04-8.211,12.814,12.814,0,0,1-1.388-.654Z" transform="translate(7320.729 886.08)" opacity="0.1"/>
    <path id="Path_10482" data-name="Path 10482" d="M831.86,340.305s14.864,2.065,12.937-1.238a9.931,9.931,0,0,1-1.014-3.652,12.353,12.353,0,0,0-3.8-.89c-2.552-.637-5.282.351-6.837,1.094A18.254,18.254,0,0,1,831.86,340.305Z" transform="translate(7398.65 910.963)" opacity="0.1"/>
    <path id="Path_10483" data-name="Path 10483" d="M791.694,326.8s5.918.288,7.019,4.13c0,0,5.78,1.927,8.81,2.065s11.149,3.442,11.287,3.992,2.88,5.368-2.339,9.772c0,0-5.918-2.065-8.534,1.65s-5.507,21.471-2.88,23.4c0,0-10.6-.55-13.352,1.65s-9.91,1.377-12.114.965-5.23-2.753-5.368-9.216,2.2-20.371-1.239-22.021-8.945-12.672-8.945-12.672,2.2-7.157,4.818-7.433c0,0,6.469,3.992,9.216,4.265a27.492,27.492,0,0,1,5.507,1.238S787.841,325.831,791.694,326.8Z" transform="translate(7446.937 918.967)" fill="#eb8b37"/>
    <path id="Path_10484" data-name="Path 10484" d="M871.39,650.6s-1.172-5.184-1.99-9.216c.219,4.836.337,8.678.337,8.678l.7,30.131,8.1-1.267Z" transform="translate(7371.921 692.339)" opacity="0.1"/>
    <path id="Path_10485" data-name="Path 10485" d="M801.595,551s-2.753,10.6,0,14.314,5.919,18.856,5.919,18.856,2.065,10.6,3.58,12.384.827,22.847.827,22.847l17.894-.965-8.122-32.208s-2.615-11.561-2.753-13.625-.827-19.959-.827-19.959Z" transform="translate(7421.07 756.689)" fill="#5a5773"/>
    <path id="Path_10486" data-name="Path 10486" d="M819.778,273.832a10.489,10.489,0,0,1-6.048-5.875c.76-.288,1.558.415,2.367.36.979-.066,1.535-1.152,2.373-1.647a3.638,3.638,0,0,1,3.629.363,17,17,0,0,0,3.309,1.909,13.2,13.2,0,0,0,3.257.328c1.388.078,4.251.325,5.291,1.385.576.576.317,1.152-.207,1.636.141.809-.144,1.555-.052,2.511a4.255,4.255,0,0,1-.323,2.439,22.943,22.943,0,0,1-1.489,2.929c-.357.674-.153,1.558-.576,2.195a2.264,2.264,0,0,1-.864.688,9.2,9.2,0,0,1-6.624.8,3.045,3.045,0,0,1-1.921-1.192c-.665-1.1,0-2.509-.069-3.8C821.754,277.044,820.219,275.555,819.778,273.832Z" transform="translate(7411.559 959.378)" opacity="0.1"/>
    <path id="Path_10487" data-name="Path 10487" d="M820.248,273.352a10.489,10.489,0,0,1-6.048-5.875c.76-.288,1.558.415,2.367.36.979-.066,1.535-1.152,2.373-1.647a3.638,3.638,0,0,1,3.629.363,17,17,0,0,0,3.309,1.91,13.2,13.2,0,0,0,3.257.328c1.388.078,4.251.325,5.291,1.385.576.576.317,1.152-.207,1.636.141.809-.144,1.555-.052,2.511a4.254,4.254,0,0,1-.323,2.439,22.933,22.933,0,0,1-1.489,2.929c-.357.674-.153,1.558-.576,2.195a2.264,2.264,0,0,1-.864.688,9.2,9.2,0,0,1-6.624.8,3.045,3.045,0,0,1-1.921-1.192c-.665-1.1,0-2.509-.069-3.8C822.227,276.567,820.692,275.075,820.248,273.352Z" transform="translate(7411.224 959.72)" fill="#eb8b37"/>
    <path id="Path_10488" data-name="Path 10488" d="M837.627,324.917l-1,.354-.046-.481S836.527,325.055,837.627,324.917Z" transform="translate(7395.29 917.749)" opacity="0.1"/>
  </g>
</svg>
