<svg xmlns="http://www.w3.org/2000/svg" xmlns:xlink="http://www.w3.org/1999/xlink" width="214" height="205" viewBox="0 0 214 205">
  <defs>
    <linearGradient id="linear-gradient" y1="0.5" x2="1" y2="0.5" gradientUnits="objectBoundingBox">
      <stop offset="0" stop-color="gray" stop-opacity="0.251"/>
      <stop offset="0.54" stop-color="gray" stop-opacity="0.122"/>
      <stop offset="1" stop-color="gray" stop-opacity="0.102"/>
    </linearGradient>
  </defs>
  <g id="Group_10595" data-name="Group 10595" transform="translate(-260 -1391)">
    <ellipse id="Ellipse_3211" data-name="Ellipse 3211" cx="107" cy="102.5" rx="107" ry="102.5" transform="translate(260 1391)" fill="#ffd765"/>
    <g id="undraw_group_selfie_ijc6" transform="translate(283.282 1426.845)">
      <path id="Path_10199" data-name="Path 10199" d="M315.673,64.175A40.367,40.367,0,0,0,309.1,53.7l-91.162-.894L293,42.265A42.583,42.583,0,0,0,277.77,39.25a42.684,42.684,0,0,0-50.989-1.732,42.5,42.5,0,0,0-19.513-4.7c-20.254,0-37.132,14.028-40.918,32.631Z" transform="translate(-151.48 -29.89)" opacity="0.1"/>
      <path id="Path_10200" data-name="Path 10200" d="M249.312,266.076a39.414,39.414,0,0,0-2.841-14.726l-158,16.585a39.664,39.664,0,0,0-3.7,9.349l48.936,7.293L83.66,289.893c1.506,21.061,19.561,37.691,41.615,37.691A42.228,42.228,0,0,0,153.939,316.5a42.391,42.391,0,0,0,66.615-11.879,41.135,41.135,0,0,0,27.425-28.344l-61.874-9.6h63.2C249.309,266.478,249.312,266.278,249.312,266.076Z" transform="translate(-81.914 -216.189)" opacity="0.1"/>
      <path id="Path_10201" data-name="Path 10201" d="M751.53,707.388s5-8.858,12.539-11.412a15.423,15.423,0,0,0,7.807-5.839,26.047,26.047,0,0,0,2.3-4.136" transform="translate(-643.78 -581.851)" fill="none" stroke="#535461" stroke-miterlimit="10" stroke-width="2"/>
      <path id="Path_10202" data-name="Path 10202" d="M898.265,655.927c-.859.832-4.855,1.694-4.855,1.694s.981-3.968,1.84-4.8a2.165,2.165,0,1,1,3.016,3.108Z" transform="translate(-763.141 -553.423)" fill="#6c63ff"/>
      <path id="Path_10203" data-name="Path 10203" d="M883.306,698.2c-1.173.233-5-1.217-5-1.217s2.981-2.8,4.154-3.031a2.167,2.167,0,0,1,.843,4.249Z" transform="translate(-750.438 -588.514)" fill="#6c63ff"/>
      <path id="Path_10204" data-name="Path 10204" d="M838.31,747.648c-1.13-.392-3.7-3.573-3.7-3.573s3.987-.911,5.117-.521a2.167,2.167,0,0,1-1.417,4.093Z" transform="translate(-713.674 -630.189)" fill="#6c63ff"/>
      <path id="Path_10205" data-name="Path 10205" d="M787.809,775.334c-1.179-.2-4.249-2.9-4.249-2.9s3.774-1.571,4.954-1.376a2.165,2.165,0,1,1-.7,4.273Z" transform="translate(-670.726 -653.398)" fill="#6c63ff"/>
      <path id="Path_10206" data-name="Path 10206" d="M857.31,682.524c0,1.2,2.163,4.666,2.163,4.666s2.167-3.468,2.168-4.663a2.167,2.167,0,0,0-4.331,0Z" transform="translate(-732.771 -577.157)" fill="#6c63ff"/>
      <path id="Path_10207" data-name="Path 10207" d="M801.731,713.034c.357,1.143,3.46,3.809,3.46,3.809s1.03-3.957.673-5.1a2.165,2.165,0,0,0-4.127,1.294Z" transform="translate(-685.959 -602.318)" fill="#6c63ff"/>
      <path id="Path_10208" data-name="Path 10208" d="M752.88,755.221c.159,1.184,2.768,4.333,2.768,4.333s1.684-3.725,1.525-4.911a2.167,2.167,0,0,0-4.285.578Z" transform="translate(-644.916 -638.135)" fill="#6c63ff"/>
      <path id="Path_10209" data-name="Path 10209" d="M898.265,655.927c-.859.832-4.855,1.694-4.855,1.694s.981-3.968,1.84-4.8a2.165,2.165,0,1,1,3.016,3.108Z" transform="translate(-763.141 -553.423)" opacity="0.25"/>
      <path id="Path_10210" data-name="Path 10210" d="M883.306,698.2c-1.173.233-5-1.217-5-1.217s2.981-2.8,4.154-3.031a2.167,2.167,0,0,1,.843,4.249Z" transform="translate(-750.438 -588.514)" opacity="0.25"/>
      <path id="Path_10211" data-name="Path 10211" d="M838.31,747.648c-1.13-.392-3.7-3.573-3.7-3.573s3.987-.911,5.117-.521a2.167,2.167,0,0,1-1.417,4.093Z" transform="translate(-713.674 -630.189)" opacity="0.25"/>
      <path id="Path_10212" data-name="Path 10212" d="M787.809,775.334c-1.179-.2-4.249-2.9-4.249-2.9s3.774-1.571,4.954-1.376a2.165,2.165,0,1,1-.7,4.273Z" transform="translate(-670.726 -653.398)" opacity="0.25"/>
      <path id="Path_10213" data-name="Path 10213" d="M857.31,682.524c0,1.2,2.163,4.666,2.163,4.666s2.167-3.468,2.168-4.663a2.167,2.167,0,0,0-4.331,0Z" transform="translate(-732.771 -577.157)" opacity="0.25"/>
      <path id="Path_10214" data-name="Path 10214" d="M801.731,713.034c.357,1.143,3.46,3.809,3.46,3.809s1.03-3.957.673-5.1a2.165,2.165,0,0,0-4.127,1.294Z" transform="translate(-685.959 -602.318)" opacity="0.25"/>
      <path id="Path_10215" data-name="Path 10215" d="M752.88,755.221c.159,1.184,2.768,4.333,2.768,4.333s1.684-3.725,1.525-4.911a2.167,2.167,0,0,0-4.285.578Z" transform="translate(-644.916 -638.135)" opacity="0.25"/>
      <path id="Path_10216" data-name="Path 10216" d="M753.34,667.335s.982-10.125,6.825-15.512a15.414,15.414,0,0,0,4.771-8.5,25.935,25.935,0,0,0,.427-4.72" transform="translate(-645.303 -541.975)" fill="none" stroke="#535461" stroke-miterlimit="10" stroke-width="2"/>
      <path id="Path_10217" data-name="Path 10217" d="M830.168,601.3c-.448,1.111-3.752,3.517-3.752,3.517s-.711-4.027-.265-5.136a2.166,2.166,0,1,1,4.017,1.619Z" transform="translate(-706.433 -508.09)" fill="#ff6363"/>
      <path id="Path_10218" data-name="Path 10218" d="M830.732,643.352c-.979.687-5.062.913-5.062.913s1.587-3.766,2.57-4.455a2.166,2.166,0,0,1,2.492,3.543Z" transform="translate(-706.152 -542.66)" fill="#ff6363"/>
      <path id="Path_10219" data-name="Path 10219" d="M804.4,707.084c-1.192.1-4.83-1.767-4.83-1.767s3.274-2.449,4.466-2.549a2.165,2.165,0,1,1,.364,4.316Z" transform="translate(-684.195 -595.952)" fill="#ff6363"/>
      <path id="Path_10220" data-name="Path 10220" d="M771.1,752.482c-1.159.3-5.058-.925-5.058-.925s2.812-2.966,3.968-3.268a2.166,2.166,0,1,1,1.087,4.194Z" transform="translate(-655.987 -634.195)" fill="#ff6363"/>
      <path id="Path_10221" data-name="Path 10221" d="M797.542,644.457c.484,1.094,3.868,3.389,3.868,3.389s.576-4.047.092-5.141a2.168,2.168,0,0,0-3.968,1.746Z" transform="translate(-682.328 -544.339)" fill="#ff6363"/>
      <path id="Path_10222" data-name="Path 10222" d="M758.859,694.75c.794.9,4.706,2.076,4.706,2.076s-.662-4.035-1.451-4.933a2.166,2.166,0,1,0-3.255,2.857Z" transform="translate(-649.493 -586.189)" fill="#ff6363"/>
      <path id="Path_10223" data-name="Path 10223" d="M731.3,752.937c.635,1.019,4.285,2.841,4.285,2.841s.03-4.089-.6-5.108a2.165,2.165,0,1,0-3.689,2.267Z" transform="translate(-626.49 -635.389)" fill="#6c63ff"/>
      <ellipse id="Ellipse_3197" data-name="Ellipse 3197" cx="5.295" cy="0.727" rx="5.295" ry="0.727" transform="translate(0 122.89)" fill="#6c63ff" opacity="0.1"/>
      <ellipse id="Ellipse_3198" data-name="Ellipse 3198" cx="5.295" cy="0.727" rx="5.295" ry="0.727" transform="translate(7.442 130.882)" fill="#6c63ff" opacity="0.1"/>
      <path id="Path_10224" data-name="Path 10224" d="M135.5,830.74a2.1,2.1,0,0,0,.7-1.052.934.934,0,0,0-.487-1.07c-.446-.172-.924.14-1.286.452a1.72,1.72,0,0,1-1.251.6,1.9,1.9,0,0,0,.589-1.782.751.751,0,0,0-.159-.362c-.248-.265-.7-.159-.994.057a3.689,3.689,0,0,0-1.214,3.1,5.854,5.854,0,0,1-.017-1.27,1.327,1.327,0,0,0-.476-1.13,1.446,1.446,0,0,0-.732-.173,1.509,1.509,0,0,0-1.187.338,1.18,1.18,0,0,0,.046,1.457,4.682,4.682,0,0,0,1.228.986,2.734,2.734,0,0,1,.879.836,1.011,1.011,0,0,1,.065.159h2.652A7.456,7.456,0,0,0,135.5,830.74Z" transform="translate(-119.846 -700.785)" fill="#6c63ff"/>
      <path id="Path_10225" data-name="Path 10225" d="M89.224,780.668a2.1,2.1,0,0,0,.7-1.051.935.935,0,0,0-.487-1.07c-.446-.172-.924.138-1.286.451a1.727,1.727,0,0,1-1.251.6,1.9,1.9,0,0,0,.589-1.782.743.743,0,0,0-.159-.362c-.248-.265-.7-.159-.994.057a3.685,3.685,0,0,0-1.214,3.1,5.935,5.935,0,0,1-.017-1.279,1.318,1.318,0,0,0-.476-1.13,1.447,1.447,0,0,0-.732-.171,1.514,1.514,0,0,0-1.187.336,1.18,1.18,0,0,0,.046,1.459,4.666,4.666,0,0,0,1.228.984,2.74,2.74,0,0,1,.879.838.919.919,0,0,1,.065.149h2.662A7.349,7.349,0,0,0,89.224,780.668Z" transform="translate(-80.917 -658.662)" fill="#6c63ff"/>
      <ellipse id="Ellipse_3199" data-name="Ellipse 3199" cx="7.447" cy="1.022" rx="7.447" ry="1.022" transform="translate(132.718 130.744)" fill="#6c63ff" opacity="0.1"/>
      <path id="Path_10226" data-name="Path 10226" d="M955.176,788.19s1,1.3-.46,3.274-2.662,3.635-2.176,4.862c0,0,2.2-3.658,3.992-3.709S957.146,790.39,955.176,788.19Z" transform="translate(-812.794 -667.822)" fill="#6c63ff"/>
      <path id="Path_10227" data-name="Path 10227" d="M955.479,788.19a1.636,1.636,0,0,1,.2.41c1.746,2.052,2.679,3.968,1,4.017-1.565.044-3.443,2.843-3.892,3.549a1.468,1.468,0,0,0,.052.159s2.2-3.657,3.992-3.708S957.448,790.39,955.479,788.19Z" transform="translate(-813.096 -667.822)" opacity="0.1"/>
      <path id="Path_10228" data-name="Path 10228" d="M980.2,797.111c0,.459-.052.832-.116.832s-.114-.373-.114-.832.064-.243.127-.243S980.2,796.651,980.2,797.111Z" transform="translate(-835.962 -675.079)" fill="#ffd037"/>
      <path id="Path_10229" data-name="Path 10229" d="M981.255,800.457c-.4.221-.755.352-.786.3s.271-.279.675-.5.244-.06.275,0S981.663,800.238,981.255,800.457Z" transform="translate(-836.38 -677.878)" fill="#ffd037"/>
      <path id="Path_10230" data-name="Path 10230" d="M924.645,788.19s-1,1.3.46,3.274,2.662,3.635,2.174,4.862c0,0-2.2-3.658-3.992-3.709S922.676,790.39,924.645,788.19Z" transform="translate(-787.534 -667.822)" fill="#6c63ff"/>
      <path id="Path_10231" data-name="Path 10231" d="M924.675,788.19a1.6,1.6,0,0,0-.2.41c-1.746,2.052-2.678,3.968-1,4.017,1.565.044,3.443,2.843,3.892,3.549a1.172,1.172,0,0,1-.054.159s-2.2-3.657-3.987-3.708S922.705,790.39,924.675,788.19Z" transform="translate(-787.563 -667.822)" opacity="0.1"/>
      <path id="Path_10232" data-name="Path 10232" d="M924.83,797.111c0,.459.052.832.116.832s.114-.373.114-.832-.064-.243-.127-.243S924.83,796.651,924.83,797.111Z" transform="translate(-789.574 -675.079)" fill="#ffd037"/>
      <path id="Path_10233" data-name="Path 10233" d="M919.516,800.457c.4.221.755.352.786.3s-.271-.279-.676-.5-.243-.06-.274,0S919.113,800.238,919.516,800.457Z" transform="translate(-784.897 -677.878)" fill="#ffd037"/>
      <path id="Path_10234" data-name="Path 10234" d="M926.83,830.386s2.79-.086,3.632-.686,4.285-1.313,4.5-.352,4.193,4.776,1.043,4.8-7.319-.49-8.158-1S926.83,830.386,926.83,830.386Z" transform="translate(-791.256 -702.052)" fill="#a8a8a8"/>
      <path id="Path_10235" data-name="Path 10235" d="M936.071,841.812c-3.151.025-7.319-.49-8.158-1-.635-.389-.894-1.786-.979-2.43h-.094s.178,2.251,1.016,2.762,5.009,1.027,8.158,1c.909-.008,1.224-.332,1.206-.811C937.093,841.623,936.746,841.812,936.071,841.812Z" transform="translate(-791.265 -710.046)" opacity="0.2"/>
      <ellipse id="Ellipse_3200" data-name="Ellipse 3200" cx="55.849" cy="7.112" rx="55.849" ry="7.112" transform="translate(21.021 119.148)" fill="#6c63ff" opacity="0.1"/>
      <path id="Path_10236" data-name="Path 10236" d="M416.669,215.5a4.359,4.359,0,0,1-.476-1.521s-.806-.425-.484-1.76a1.965,1.965,0,0,0-.914-2.063h0a15.456,15.456,0,0,1-.317-2.235,4.2,4.2,0,0,0-.913-1.863,4.986,4.986,0,0,0-.378-2.484c-.536-.921-1.613-2.725-2.957-3.316,0,0-2.857-4.374-3.709-4.716a3.064,3.064,0,0,1-1.073-1.428h0a2.328,2.328,0,0,1,0-.262.23.23,0,0,1,0-.035h0v-.135a3.5,3.5,0,0,0,.916-1.178,9.314,9.314,0,0,1,.519-2.614h0c.033-.087.067-.173.1-.257s.086-.2.135-.3a10.33,10.33,0,0,0,.822-1.659c.013-.044.024-.089.035-.132h0a3.491,3.491,0,0,0-.53-2.616,7.375,7.375,0,0,0-2.063-2.006,9.227,9.227,0,0,0-2.619-1.367,4.785,4.785,0,0,0-2.922-.021c-.935.322-1.746,1.019-2.709,1.27a9.86,9.86,0,0,0-1.224.284,2.6,2.6,0,0,0-1.451,1.936,2.684,2.684,0,0,0-.06.584,1.623,1.623,0,0,0,.11.57.813.813,0,0,0,.568.546l.087.022.108.022c-.029.057-.06.113-.087.171a5.62,5.62,0,0,0-.524,2.381,5.7,5.7,0,0,0,4.047,5.439c.025.06.051.122.075.183.087.219.167.446.232.673a26.653,26.653,0,0,0-4.593,3.036,8.571,8.571,0,0,0-.611-3.374,5.071,5.071,0,0,0-3.049-2.924c-.794-.238-1.628-.235-2.435-.4-.635-.129-1.238-.36-1.87-.49a4.227,4.227,0,0,0-.762-.087,6.687,6.687,0,0,0-1.4-1.141,5.169,5.169,0,0,0-1.6-.794,8.739,8.739,0,0,0-3.016.148c-1.062.114-2.087-.159-3.135-.1a10.09,10.09,0,0,0-2.7.484,3.892,3.892,0,0,0-.624.287c.013-.021.029-.038.041-.059s.029-.056.043-.084a.614.614,0,0,0,.029-.059c.008-.021.025-.07.037-.106a.37.37,0,0,0,.014-.044,1.135,1.135,0,0,0,.029-.127v-.027a1.167,1.167,0,0,0,.014-.148.024.024,0,0,0,0-.011,1.687,1.687,0,0,0-.027-.4,5.048,5.048,0,0,0-.524-1.257,2.489,2.489,0,0,1-.341-1.3.3.3,0,0,1,.014-.111,1.182,1.182,0,0,1,.027-.13v-.01a1.294,1.294,0,0,1,.036-.129h0c.014-.043.029-.086.044-.129h0c.016-.043.033-.084.051-.127h0l.057-.127h0c.019-.044.04-.087.06-.13.043-.086.084-.171.125-.257s.07-.159.1-.227l.019-.043c.065-.159.124-.317.175-.476a.187.187,0,0,1,.016-.048,4.4,4.4,0,0,0,.121-.476v-.051a3.376,3.376,0,0,0,.048-.487v-.051a2.357,2.357,0,0,0-.179-.932,3.663,3.663,0,0,0-1.37-1.476,2.23,2.23,0,0,0-1.27-.5c-.544.011-1.022.381-1.562.457a2.356,2.356,0,0,1-1.03-.129c-.752-.236-1.446-.635-2.2-.863a5.5,5.5,0,0,0-2.238-.213,1.432,1.432,0,0,0-.87.329,2.512,2.512,0,0,0-.429.865,2.516,2.516,0,0,1-.917,1.127c-.449.3-.986.456-1.457.727a1.721,1.721,0,0,0-.857,1h0a.65.65,0,0,0-.019.111.124.124,0,0,0,0,.024.7.7,0,0,0,0,.116h0a4.786,4.786,0,0,0,.111.614h0v.035a2.071,2.071,0,0,1-.387,1.384,3.762,3.762,0,0,0-.568.989c-.113.025-.227.054-.343.084h-1.184a.317.317,0,0,0-.317.317v.186a34.916,34.916,0,0,0-3.439,1.544s-2.662,3.512-2.944,3.992a1.1,1.1,0,0,0-.084.287h0c-.524.159-1.125,4.543-1.125,4.543s.76,1.133,1.6,2.19c.333.975,1.316,1.746,1.351,3.039.051,1.955,0,5.109,0,5.109s.754,4.831.213,7.027.1,5.349.259,6.587a22.579,22.579,0,0,1,0,5.468c-.283,1.4-.4,3.554,0,2.8v.317c.008.66.019,2.181,0,2.879-.027.9.3,2.608,0,3.246a17.339,17.339,0,0,0-.349,3.727,6.382,6.382,0,0,1-.429,2.768c-.54,1.33,0,6.335,0,6.335s-1.662,3.565-1.154,4.257-.943.476-.943.476-.317,3.408-1.882,5.057-4.193,13.253-3.817,16.18a11.2,11.2,0,0,0-1.236,1.384,23.261,23.261,0,0,0-.019,2.77,1.085,1.085,0,0,0-.357.557c-.376,1.463-.833,4.179-.833,4.179s-.511,1.516,2.8,1.649,3.252-.425,3.252-.425a21.676,21.676,0,0,1,.108-3.076,12.846,12.846,0,0,0,.159-2.247,1,1,0,0,1,.224.054c.59.265,1.451-.794,1.021-1.811s1.182-6.439,1.182-6.439,4.516-8.6,4.516-12.242c0-.265,1.773-2.4,1.99-3.778a13.332,13.332,0,0,1,.806-2.77s.751,3.673,0,5.109-1.668,12.669-.968,13.786-.43,2.82-.592,3.139-.376,3.992-.376,3.992h.355L355.5,282.5s5.833-.079,6.825.425,7.042.476,7.042.476,2.8-1.038,1.236-2.1a10.04,10.04,0,0,0-4.354-1.17s-2.317-3.176-2.752-3.309c-.29-.089-.741-.459-1.151-.376a8.449,8.449,0,0,1,.4-1.832c.914-2.981.536-14.478.536-14.478a5.673,5.673,0,0,0,.7-2.4,3.531,3.531,0,0,1,1.075-2.182s3.119-12.774,3.809-15.7c.616-2.584,1.443-6,1.073-8.226a.085.085,0,0,0-.011-.051,22.1,22.1,0,0,0-.094-4.378c-.317-.879-.882-5.43-.882-5.43s-.106-.44-.213-1.038l2.735.913a3.539,3.539,0,0,1,.178,2.044l-.033.079a2.936,2.936,0,0,0-.221,2.155,9.682,9.682,0,0,1,.227,1.8c.036.794.032,1.613.04,2.192v5h0V241.2a75.3,75.3,0,0,0,.335,7.9,15.2,15.2,0,0,1-.013,3.735h0c-.062.511-.135.944-.2,1.27h0c-.071.371-.125.587-.125.587a21.053,21.053,0,0,0-.617,8.023c.524,4.431-.14,3.592-.14,3.592a10.242,10.242,0,0,0,.26,2.236c.2.319-.26,1.676-.26,1.676s.176.159.452.362c-.019.087-.038.179-.056.279a7.173,7.173,0,0,0-.1,1.794c.01.132.013.27.01.416v.183a27.048,27.048,0,0,1-1.27,3.4c-.616,1.309,1.048,2.841,1.87,3.492a1.471,1.471,0,0,0,.919.317h1.052a1.474,1.474,0,0,0,1.176-.583,4.019,4.019,0,0,0,.99-2.273,15.706,15.706,0,0,0-1.032-3.492,1.3,1.3,0,0,0,.008-.14,3.88,3.88,0,0,0-.206-1.032l-.329-1.7-.048-.244a1.545,1.545,0,0,0,.135-.256s-.363-1.916,0-2.435,2.459-7.865,2.459-10.858a16.808,16.808,0,0,0,1.654-5.509,21.183,21.183,0,0,1,.6-5.309,45.968,45.968,0,0,0,1.33-5.947l.329,4.151.276,7.185s-.6,2.516,0,3.354.4,3.233.4,3.233l-.443,8.384a7.9,7.9,0,0,1-.2,1.716c-.162.319-.256,4.385-.89,4.744,0,0,.1.075.262.186-.048.063-.1.133-.159.216a4.368,4.368,0,0,0-.656,1.974,1.7,1.7,0,0,1-.019.181,1.371,1.371,0,0,0-.306.6.857.857,0,0,0,.1.6c-.276.589-1.317,2.963-.543,3.679.649.6,2.889.427,4.041.292a.741.741,0,0,0,.657-.784A19.666,19.666,0,0,0,383.1,278l8.412.214c-.929.73-2.09,1.827-2.09,1.827a12.8,12.8,0,0,1-2.359,1.655c-.786.3-1.3,1.5-.229,1.6s5.247.159,5.247.159l.148-.024c.013.251.159.465.567.536,1.008.179,10.2-1.157,10.2-1.157s-.013-.338-.038-.794a15.051,15.051,0,0,0,4.822-.206,20.5,20.5,0,0,0,3.547-1.7V279.7c0-.249,0-.56-.013-.906a4.478,4.478,0,0,0-.124-1.189,12.751,12.751,0,0,1-.752-2.044,1.925,1.925,0,0,0,1.3-.749s-1.359-1.171-.968-1.428.524-1.438.524-1.438a9.324,9.324,0,0,1-.013-5.962c1.063-3.406.013-12.136-.525-12.82a2.879,2.879,0,0,1-.214-2.03c.752-1.224-.74-4.843-.74-4.843s.578-6.282.148-6.844.209-2.643.209-2.643a5.468,5.468,0,0,0,.817-1.367,3.189,3.189,0,0,0,.579.8s.073-.24.17-.635a2.148,2.148,0,0,0,.159.159,15.125,15.125,0,0,0,.592-4.227c-.054-2.128-.214-6.349-.214-6.349l-.01-.514,2.267-2.9s2.1-2.106,2.109-4.038a.793.793,0,0,0,.2-.176C417.423,217.114,417.072,216.255,416.669,215.5ZM386.3,220.738l.036.657a8.719,8.719,0,0,1-.151-.878l.117.208Zm18.627-26.693a1.411,1.411,0,0,0,.216-.132l-.2.189A.106.106,0,0,0,404.923,194.044Zm-32.2-3.433a2.858,2.858,0,0,0-.233.227c-.763.84-1.008,2.127-1.971,2.73-.273.17-.584.271-.852.448a3.015,3.015,0,0,0-1.1,1.971,1.186,1.186,0,0,1,.017-.168c-.052.213-.1.429-.135.635a2.508,2.508,0,0,0-.027.851c.027.394.168.746.533.838.184.046.381,0,.568.037a.909.909,0,0,1,.667.779.331.331,0,0,1,0,.04v-.01c0,.043.013.087.016.13a.179.179,0,0,0,0,.029,4.237,4.237,0,0,1-.317,1.071l-.009-.038c-.041.113-.081.225-.113.34a.97.97,0,0,0-.036.506.563.563,0,0,0,.063.283.714.714,0,0,0,.514.317,1.451,1.451,0,0,0,.727-.063,1.587,1.587,0,0,0-.159.563,1.938,1.938,0,0,0-1.468,1.384c-.038.13-.078.259-.119.387-.108.34-.225.675-.348,1a4.124,4.124,0,0,0-.159-1.294,19.291,19.291,0,0,1-.967-3v-1.874c0-1.152-2.125-1.949-2.144-1.957a11.593,11.593,0,0,1,.421-1.957c.016-.054.035-.106.052-.159a6.13,6.13,0,0,0,5.574-3.979c.017-.048.032-.1.049-.143a1.5,1.5,0,0,0,.635.124A1.162,1.162,0,0,0,372.719,190.611Zm-4.025,25.936c0-1.244-.138-2.6-.138-2.6s.021-.276.054-.74c.782-.7,1.552-1.406,1.881-1.713a1.928,1.928,0,0,0,.159-.159,1.2,1.2,0,0,1,.414.713,2.619,2.619,0,0,1,.017,1.044,9.2,9.2,0,0,0,.362,2.574h0a7.382,7.382,0,0,1,.141,1.844Zm14.6,57.9a11.008,11.008,0,0,1,1.251-4.151c1.128-2.076,2.54-9.422,2.54-9.422a38.789,38.789,0,0,0,.241-5.23,67.862,67.862,0,0,1,.49-7.585c.081.527.138.889.14.919,0,.1,1.06,4.547,1.4,6.507v9.057a3.631,3.631,0,0,1-.325,1.5l-1.04,2.308a3.26,3.26,0,0,0-.027,2.616c.168.4.267.762.109.806a2.492,2.492,0,0,0-.386.159.921.921,0,0,0-.171-.133l-3.422,2.8-1.006.137v-.127a.669.669,0,0,0,.217-.157Zm13.532,4.525-.133-.594-.037-.159.317.024s-.887-4.071-.283-5.788a6.578,6.578,0,0,0,.252-1.278c.03-.248.057-.514.081-.794.262.794.492,1.613.351,1.792a5.826,5.826,0,0,0,.043,2.514c.078.119.6.794.24,1.371a6.439,6.439,0,0,0-.317,2.352s.092.011.246.024A5.508,5.508,0,0,0,396.829,278.974Zm4.52-.882c-.025-.044-.049-.09-.073-.135a3.857,3.857,0,0,1,1.3-.121s-1.209-4.424-.846-5.382-1.533-10.22-2.46-12.336.317-8.023.317-8.023l2.025-5.347,1.678,5.544c-.268,1.54.27,4.847,1.076,5.646a1.825,1.825,0,0,1,.317,2.289c-.327.427.159,4.363.159,4.363a42.876,42.876,0,0,1-.159,5.482,2.7,2.7,0,0,0,.7,2.662c.54.638-.59.586-1.236,1.194a1,1,0,0,0,0,1.362l.238-.017a3.572,3.572,0,0,1,.216.921.552.552,0,0,1-.159.4c-.432.373-1.13,2.209-1.746,2.662a3.018,3.018,0,0,0-.243.2.607.607,0,0,0-.124.027,10.553,10.553,0,0,1-.982-1.386ZM356.1,192.346a5.785,5.785,0,0,0,2.741-1.278h1.54a5.981,5.981,0,0,0,.586,1.017c-.014.035-.025.068-.04.1a4.034,4.034,0,0,1-.308.6h0a7.051,7.051,0,0,0-2.738.587,1.882,1.882,0,0,0-.29.2,4.2,4.2,0,0,1-2.62.543l-.359-.224-.065.29-.038.032.022-2.678Zm18.761,82.039v.216a1.682,1.682,0,0,1,0-.216Zm0,.248.017.173c0-.065-.006-.122-.011-.176Z" transform="translate(-298.527 -156.11)" fill="url(#linear-gradient)"/>
      <rect id="Rectangle_1488" data-name="Rectangle 1488" width="6.611" height="3.919" transform="matrix(0.948, 0.32, -0.32, 0.948, 68.495, 60.443)" fill="#d38884"/>
      <path id="Path_10237" data-name="Path 10237" d="M687.532,508.233s.952,1.746-.846,4.02c0,0-.635,2.055-.211,2.616s-.146,6.8-.146,6.8,1.468,3.6.729,4.816a2.893,2.893,0,0,0,.211,2.017c.529.681,1.562,9.357.516,12.744a9.354,9.354,0,0,0,.013,5.925s-.132,1.163-.516,1.429.952,1.428.952,1.428a1.846,1.846,0,0,1-2.132.635c-1.375-.476-5.342-.159-5.342-.159a1,1,0,0,1,0-1.352c.635-.6,1.746-.552,1.216-1.187a2.7,2.7,0,0,1-.687-2.646,42.656,42.656,0,0,0,.159-5.449s-.476-3.916-.159-4.338a1.837,1.837,0,0,0-.317-2.276c-.794-.794-1.322-4.081-1.059-5.611l-2.962-9.89-5.82-9.523L679.68,507Z" transform="translate(-576.141 -431.262)" fill="#4c4981"/>
      <path id="Path_10238" data-name="Path 10238" d="M695.776,254.6v6.031h-8.095l-.211-.592a13.086,13.086,0,0,1,1.852-3.425c.525-.6.281-1.719-.1-2.687a12.176,12.176,0,0,0-.906-1.811s7.3-4.6,6.931-1.8a9.564,9.564,0,0,0-.075,1.808A5.724,5.724,0,0,0,695.776,254.6Z" transform="translate(-589.888 -214.559)" fill="#febfba"/>
      <path id="Path_10239" data-name="Path 10239" d="M699.731,250.3a9.564,9.564,0,0,0-.075,1.808,5.674,5.674,0,0,1-5.95,1.8,12.176,12.176,0,0,0-.906-1.811S700.1,247.494,699.731,250.3Z" transform="translate(-594.372 -214.542)" opacity="0.1"/>
      <path id="Path_10240" data-name="Path 10240" d="M684.263,212.655a5.652,5.652,0,1,1-1.657-4A5.662,5.662,0,0,1,684.263,212.655Z" transform="translate(-577.664 -178.878)" fill="#febfba"/>
      <path id="Path_10241" data-name="Path 10241" d="M674.386,290.34l-2.487,3.968-1.428,10.677v8.753l.317,3.12,5.9.424,2.622-8.811,2.011-9.018,2.168-1.852-5.131-5.82a11.151,11.151,0,0,1-2.109,2.2.952.952,0,0,1-1.449-1.111c.318-.832.6-1.755.384-1.976a2.292,2.292,0,0,0-1.059-.544" transform="translate(-575.586 -248.99)" opacity="0.1"/>
      <path id="Path_10242" data-name="Path 10242" d="M673.386,291.34l-2.487,3.968-1.428,10.677v8.753l.317,3.12,5.9.424,2.622-8.811,2.011-9.018,2.168-1.852-5.131-5.82a11.151,11.151,0,0,1-2.109,2.2.952.952,0,0,1-1.449-1.111c.317-.832.6-1.755.384-1.976a2.292,2.292,0,0,0-1.059-.544" transform="translate(-574.745 -249.832)" fill="#e6e8ec"/>
      <path id="Path_10243" data-name="Path 10243" d="M675.15,468.837h5.131l-.687-3.333-.106-1.454L677,465.61Z" transform="translate(-567.991 -390.385)" opacity="0.1"/>
      <path id="Path_10244" data-name="Path 10244" d="M675.15,466.837h5.131l-.687-3.333-.106-1.454L677,463.61Z" transform="translate(-567.991 -388.703)" fill="#e6e8ec"/>
      <path id="Path_10245" data-name="Path 10245" d="M669.555,282.57s-4.657,2.571-4.816,3.365-1.27,6.242-1.27,6.242v4.92l4.6-1.687-.263-6.728,1.64-4.017A4.342,4.342,0,0,0,669.555,282.57Z" transform="translate(-569.697 -242.454)" opacity="0.1"/>
      <path id="Path_10246" data-name="Path 10246" d="M668.555,281.57s-4.657,2.571-4.816,3.365-1.27,6.242-1.27,6.242v4.92l4.6-1.687-.263-6.728,1.64-4.017A4.341,4.341,0,0,0,668.555,281.57Z" transform="translate(-568.856 -241.612)" fill="#ff718d"/>
      <path id="Path_10247" data-name="Path 10247" d="M712.887,310.439a15.21,15.21,0,0,1-.582,4.2c-.794-.751-1.463-2.976-1.7-4.076-.4,1.355-3.587,3.79-3.587,3.79v.74c-.159,2.063-6.825.635-6.825.635l.424-26.559s.528-5.027-.159-6.544a11.053,11.053,0,0,1-.476-4.249A4.612,4.612,0,0,1,701.3,276.9c.687-.37,4.531-4.011,4.652-4.127h0a3.313,3.313,0,0,0,0,.454h0c.1,1.332,1.057,1.417,1.057,1.417.846.34,3.651,4.689,3.651,4.689,1.322.586,2.381,2.381,2.909,3.3a4.994,4.994,0,0,1,.371,2.47,4.178,4.178,0,0,1,.9,1.852,15.077,15.077,0,0,0,.318,2.222l-2.644,6.128.159,8.837S712.834,308.323,712.887,310.439Z" transform="translate(-600.385 -234.209)" opacity="0.1"/>
      <path id="Path_10248" data-name="Path 10248" d="M714.87,307.473a15.207,15.207,0,0,1-.583,4.2c-.794-.751-1.463-2.976-1.7-4.076-.4,1.355-3.587,3.79-3.587,3.79v.74c-.159,2.063-6.825.635-6.825.635l.035-2.167h0v-.2l.386-24.181s.529-5.027-.159-6.544a11.051,11.051,0,0,1-.476-4.249,4.611,4.611,0,0,1,1.322-1.481c.687-.37,4.531-4.011,4.652-4.127h0a3.313,3.313,0,0,0,0,.454h0c.1,1.332,1.057,1.417,1.057,1.417.846.34,3.651,4.689,3.651,4.689,1.322.586,2.381,2.381,2.909,3.295a5,5,0,0,1,.371,2.47,4.178,4.178,0,0,1,.9,1.852,15.082,15.082,0,0,0,.317,2.222l-2.341,5.438-.3.686.159,8.837S714.817,305.357,714.87,307.473Z" transform="translate(-602.05 -231.719)" fill="#ff718d"/>
      <path id="Path_10249" data-name="Path 10249" d="M723.852,776.693a20.07,20.07,0,0,1-3.492,1.694,15.017,15.017,0,0,1-5.952,0c-.814-.23-.384-1.017.173-1.648a5.466,5.466,0,0,1,.779-.733c.609-.451,1.3-2.276,1.72-2.646s-.133-1.667-.133-1.667a6.2,6.2,0,0,1,1.455-1.322c.476-.159,2.83,1.19,2.83,1.19l1.721.291c-.186.238.608,2.222.767,2.513a4.5,4.5,0,0,1,.122,1.181C723.86,776.125,723.852,776.693,723.852,776.693Z" transform="translate(-612.17 -652.82)" opacity="0.1"/>
      <path id="Path_10250" data-name="Path 10250" d="M723.852,777.693a20.065,20.065,0,0,1-3.492,1.694,15.017,15.017,0,0,1-5.952,0c-.814-.23-.384-1.017.173-1.648a5.469,5.469,0,0,1,.779-.733c.609-.451,1.3-2.276,1.72-2.646s-.133-1.667-.133-1.667a6.205,6.205,0,0,1,1.455-1.322c.476-.159,2.83,1.19,2.83,1.19l1.721.29c-.186.238.608,2.222.767,2.513a4.5,4.5,0,0,1,.122,1.181C723.86,777.125,723.852,777.693,723.852,777.693Z" transform="translate(-612.17 -653.661)" fill="#626696"/>
      <path id="Path_10251" data-name="Path 10251" d="M723.852,805.154a20.065,20.065,0,0,1-3.492,1.694,15.016,15.016,0,0,1-5.952,0c-.814-.23-.384-1.017.173-1.647a52.867,52.867,0,0,0,6.441.033l2.82-1.233C723.86,804.586,723.852,805.154,723.852,805.154Z" transform="translate(-612.17 -681.122)" opacity="0.1"/>
      <path id="Path_10252" data-name="Path 10252" d="M732.5,800.569s-2.354-1.27-3.519-.714S732.5,800.569,732.5,800.569Z" transform="translate(-624.655 -677.517)" opacity="0.1"/>
      <path id="Path_10253" data-name="Path 10253" d="M626.7,625.1v14.086a3.634,3.634,0,0,1-.318,1.492l-1.03,2.29a3.271,3.271,0,0,0-.027,2.6c.159.4.262.757.108.8a8.815,8.815,0,0,0-1.27.651s5.131,6.174,7.036,4.639,1.006-11.745,1.006-11.745.106-8.993.211-9.152.265-5.079.265-5.079Z" transform="translate(-536.626 -530.617)" fill="#4c4981"/>
      <path id="Path_10254" data-name="Path 10254" d="M709.176,272.643l-4.92,3.735H702.14a4.611,4.611,0,0,1,1.322-1.481c.687-.37,4.531-4.011,4.652-4.127h0a1.044,1.044,0,0,0,0,.454h0A3.073,3.073,0,0,0,709.176,272.643Z" transform="translate(-602.229 -232.527)" opacity="0.1"/>
      <path id="Path_10255" data-name="Path 10255" d="M709.176,271.643l-4.92,3.735H702.14a4.611,4.611,0,0,1,1.322-1.481c.687-.37,4.531-4.011,4.652-4.127h0a1.044,1.044,0,0,0,0,.454h0A3.073,3.073,0,0,0,709.176,271.643Z" transform="translate(-602.229 -231.685)" fill="#ff718d"/>
      <path id="Path_10256" data-name="Path 10256" d="M686.972,212.633a5.652,5.652,0,0,1-1.763,4.108v-.076c.052-.892-.109.011.159-.925a.872.872,0,0,0-.3-.754.553.553,0,0,0-.735-.108c-.208.179-.192.527-.392.717a.6.6,0,0,1-.87-.233,1.941,1.941,0,0,1-.138-1.016,1.4,1.4,0,0,0-.23-.986c-.23-.263-.552-.344-.719-.616-.248-.4.029-.952-.14-1.392a1.066,1.066,0,0,0-1.071-.568c-1.011.049-2.008.733-3.032.325-.4-.159-.692-.573-1.084-.721a2.473,2.473,0,0,0-.5-.117,5.662,5.662,0,0,1,10.806,2.362Z" transform="translate(-580.373 -178.856)" opacity="0.1"/>
      <path id="Path_10257" data-name="Path 10257" d="M671.417,197.379a2.009,2.009,0,0,1-.049-1.146,2.581,2.581,0,0,1,1.429-1.925,8.847,8.847,0,0,1,1.2-.283c.952-.248,1.735-.936,2.665-1.26a4.632,4.632,0,0,1,2.878.021,9.067,9.067,0,0,1,2.576,1.357,7.357,7.357,0,0,1,2.024,1.993,3.444,3.444,0,0,1,.489,2.732,10.3,10.3,0,0,1-.809,1.649,8.549,8.549,0,0,0-.746,3.147c-.024.33-1.382,1.84-1.635,1.544a1.168,1.168,0,0,1-.159-.836c.052-.894-.109.01.159-.925a.879.879,0,0,0-.3-.755.553.553,0,0,0-.733-.108c-.206.178-.194.529-.394.717a.6.6,0,0,1-.87-.233,1.919,1.919,0,0,1-.137-1.014,1.39,1.39,0,0,0-.232-.987c-.232-.263-.552-.344-.717-.614-.248-.4.027-.952-.141-1.394a1.066,1.066,0,0,0-1.071-.568c-1.009.051-2.008.733-3.031.325-.4-.159-.69-.573-1.084-.719C672.187,197.885,671.7,198.076,671.417,197.379Z" transform="translate(-576.29 -166.718)" fill="#36123a"/>
      <path id="Path_10258" data-name="Path 10258" d="M591.664,765.531l-13.147-.338c-.794-.438-1-.9-.919-1.309.144-.762,1.236-1.36,1.236-1.36l3.492-.476,3.366-2.778c.538.317.681,1.27.681,1.27a51.187,51.187,0,0,0,4.893,3.016c.292.052.39.548.416,1.029A6.984,6.984,0,0,1,591.664,765.531Z" transform="translate(-497.442 -643.492)" opacity="0.1"/>
      <path id="Path_10259" data-name="Path 10259" d="M590.664,766.531l-13.147-.338c-.794-.438-1-.9-.919-1.309.144-.762,1.236-1.36,1.236-1.36l3.492-.476,3.367-2.778c.538.317.681,1.27.681,1.27a51.178,51.178,0,0,0,4.893,3.016c.292.052.39.548.416,1.029A7,7,0,0,1,590.664,766.531Z" transform="translate(-496.6 -644.333)" fill="#626696"/>
      <path id="Path_10260" data-name="Path 10260" d="M590.664,790.987l-13.147-.338c-.794-.438-1-.9-.919-1.309l14.085.7A7,7,0,0,1,590.664,790.987Z" transform="translate(-496.6 -668.789)" opacity="0.1"/>
      <g id="Group_10478" data-name="Group 10478" transform="translate(95.016 28.892)" opacity="0.1">
        <path id="Path_10261" data-name="Path 10261" d="M681.448,219.676a2.887,2.887,0,0,0,.159-.476.879.879,0,0,0-.3-.756.553.553,0,0,0-.733-.108c-.206.178-.194.529-.394.717a.6.6,0,0,1-.87-.233,1.919,1.919,0,0,1-.137-1.014,1.39,1.39,0,0,0-.232-.987c-.232-.263-.552-.344-.717-.614-.248-.4.027-.952-.141-1.394a1.066,1.066,0,0,0-1.071-.568c-1.009.051-2.008.733-3.031.325-.4-.159-.69-.573-1.084-.719-.557-.208-1.043-.017-1.325-.717a2.008,2.008,0,0,1-.049-1.146c.01-.046.021-.092.032-.137a3.213,3.213,0,0,0-.19.613,2.009,2.009,0,0,0,.048,1.157c.283.7.768.51,1.325.717.394.146.681.559,1.084.719,1.024.408,2.022-.275,3.032-.325a1.056,1.056,0,0,1,1.071.568c.168.443-.106.99.141,1.394.159.27.513.373.717.614a1.506,1.506,0,0,1,.232.987,1.925,1.925,0,0,0,.137,1.014c.17.3.619.476.87.233.2-.189.184-.536.394-.717a.551.551,0,0,1,.733.108A.875.875,0,0,1,681.448,219.676Z" transform="translate(-671.303 -211.85)"/>
        <path id="Path_10262" data-name="Path 10262" d="M734.434,262.529a1.167,1.167,0,0,1-.159-.836,1.707,1.707,0,0,0,0-.443c-.268.922-.108.029-.159.919a1.137,1.137,0,0,0,.159.836c.252.3,1.611-1.214,1.635-1.544,0-.059.011-.119.016-.178C735.566,261.826,734.639,262.767,734.434,262.529Z" transform="translate(-724.139 -253.409)"/>
        <path id="Path_10263" data-name="Path 10263" d="M749.092,232.835a6.139,6.139,0,0,0-.392,1.027,5.768,5.768,0,0,1,.233-.551,10.583,10.583,0,0,0,.81-1.649c.013-.043.024-.087.033-.132C749.587,231.981,749.309,232.4,749.092,232.835Z" transform="translate(-736.415 -228.406)"/>
      </g>
      <path id="Path_10264" data-name="Path 10264" d="M642.67,725.77a1.785,1.785,0,0,0,1.317,1.19C644.97,727.094,642.67,725.77,642.67,725.77Z" transform="translate(-552.198 -615.309)" opacity="0.1"/>
      <path id="Path_10265" data-name="Path 10265" d="M635.67,759.206s.952.027,1.892,0S635.67,759.206,635.67,759.206Z" transform="translate(-546.309 -643.429)" opacity="0.1"/>
      <path id="Path_10266" data-name="Path 10266" d="M739.83,682.771a3.614,3.614,0,0,0,1.9-.449C742.449,681.819,739.83,682.771,739.83,682.771Z" transform="translate(-633.937 -578.634)" opacity="0.1"/>
      <path id="Path_10267" data-name="Path 10267" d="M760.42,644.93s-1.879.952-1.508,1.349S760.42,644.93,760.42,644.93Z" transform="translate(-649.95 -547.3)" opacity="0.1"/>
      <path id="Path_10268" data-name="Path 10268" d="M761.67,656.857c.132-.079,1.111-.608,1.349-1.136S761.67,656.857,761.67,656.857Z" transform="translate(-652.311 -556.291)" opacity="0.1"/>
      <path id="Path_10269" data-name="Path 10269" d="M528.04,754.826l-1.19.476-1.786.4-1.565-.556-.419-1.27a16.945,16.945,0,0,0,.724-3.793c0-.145,0-.283-.01-.413a7.181,7.181,0,0,1,.1-1.784,6.427,6.427,0,0,1,.262-1.033h2.5l.271,1.409.317,1.686a3.875,3.875,0,0,1,.2,1.025.9.9,0,0,1-.044.3.28.28,0,0,0-.016.073h0a3.731,3.731,0,0,0,.076.83v.011C527.643,753.256,528.04,754.826,528.04,754.826Z" transform="translate(-451.59 -633.043)" fill="#b15885"/>
      <path id="Path_10270" data-name="Path 10270" d="M579.207,774.869l-4.127-.516s.221-.808.4-1.9c.068-.411.13-.863.173-1.328a4.39,4.39,0,0,1,.646-1.963,2.71,2.71,0,0,1,.446-.557l2.46.555s.019.476.027,1.067a8.548,8.548,0,0,1-.146,2.287l-.01.019A7.428,7.428,0,0,0,579.207,774.869Z" transform="translate(-495.336 -651.341)" fill="#b15885"/>
      <path id="Path_10271" data-name="Path 10271" d="M550.18,772.254l-.01-.554.07.176a.894.894,0,0,1-.044.3.28.28,0,0,0-.016.073Z" transform="translate(-474.38 -653.949)" opacity="0.1"/>
      <path id="Path_10272" data-name="Path 10272" d="M528.04,770.406l-1.19.476-1.786.4-1.565-.556-.419-1.27a16.945,16.945,0,0,0,.724-3.793c.056-.184.086-.291.086-.291l-.317,3.809a.863.863,0,0,0,.871.933l2.313-.033a.862.862,0,0,0,.846-.952l-.14-1.36C527.643,768.836,528.04,770.406,528.04,770.406Z" transform="translate(-451.59 -648.624)" opacity="0.1"/>
      <path id="Path_10273" data-name="Path 10273" d="M520.348,766.37A27.962,27.962,0,0,1,519,770.057c-.606,1.3,1.032,2.825,1.839,3.471a1.445,1.445,0,0,0,.9.317h1.036a1.448,1.448,0,0,0,1.159-.578,4.024,4.024,0,0,0,.973-2.259,17.381,17.381,0,0,0-1.076-3.635l.011.654.214,2.1a.863.863,0,0,1-.844.952l-2.313.032a.862.862,0,0,1-.871-.932Z" transform="translate(-448.048 -649.465)" fill="#626696"/>
      <path id="Path_10274" data-name="Path 10274" d="M530.942,746.85l.271,1.409c-.67,1.214-2.286.192-3.033-.376a6.427,6.427,0,0,1,.262-1.033Z" transform="translate(-455.88 -633.043)" opacity="0.1"/>
      <path id="Path_10275" data-name="Path 10275" d="M585.7,770.222c-.816.383-2.489-.748-2.933-1.065a2.712,2.712,0,0,1,.446-.557l2.46.555S585.7,769.629,585.7,770.222Z" transform="translate(-501.806 -651.341)" opacity="0.1"/>
      <path id="Path_10276" data-name="Path 10276" d="M542.9,524.306a66.5,66.5,0,0,0-.992,10.833,39.124,39.124,0,0,1-.238,5.2s-1.389,7.3-2.5,9.365a11.047,11.047,0,0,0-1.23,4.127c-.794.873-3.254-.992-3.254-.992.635-.357.714-4.4.873-4.722a7.982,7.982,0,0,0,.2-1.706l.436-8.333s.2-2.381-.4-3.214,0-3.333,0-3.333l-.273-7.142-.318-4.127a46.084,46.084,0,0,1-1.309,5.912,21.255,21.255,0,0,0-.6,5.277,16.849,16.849,0,0,1-1.627,5.476c0,2.976-2.063,10.277-2.42,10.793s0,2.42,0,2.42c-.794,1.944-3.509-.516-3.509-.516s.454-1.349.255-1.667a10.265,10.265,0,0,1-.255-2.222s.652.833.136-3.571a21.156,21.156,0,0,1,.608-7.976,16.759,16.759,0,0,0,.33-5.555,75.318,75.318,0,0,1-.33-7.857v-6.243l.662-1.217s14.959-2.341,16.07-.913a2.2,2.2,0,0,1,.317.9C544.068,516.138,543.211,523.647,542.9,524.306Z" transform="translate(-453.83 -435.418)" fill="#e6e8ec"/>
      <path id="Path_10277" data-name="Path 10277" d="M616.9,646.22s-1.389.417-1.448.7C615.45,646.915,616.759,646.5,616.9,646.22Z" transform="translate(-529.299 -548.385)" opacity="0.1"/>
      <path id="Path_10278" data-name="Path 10278" d="M597.892,656.168s-3.354,1.528-4.822-.2A7.026,7.026,0,0,0,597.892,656.168Z" transform="translate(-510.471 -556.588)" opacity="0.1"/>
      <path id="Path_10279" data-name="Path 10279" d="M596,664.6s3.452.754,4.066,0Z" transform="translate(-512.936 -563.848)" opacity="0.1"/>
      <path id="Path_10280" data-name="Path 10280" d="M533.7,639.22s-.967.5-1.3.2Z" transform="translate(-459.43 -542.496)" opacity="0.1"/>
      <path id="Path_10281" data-name="Path 10281" d="M532.784,646.22s-1.551.159-1.587.348S532.784,646.22,532.784,646.22Z" transform="translate(-458.418 -548.385)" opacity="0.1"/>
      <path id="Path_10282" data-name="Path 10282" d="M534,532.488s6.963-.06,8.153.4a1.911,1.911,0,0,0,2.044-.535l-1.9,4.185s-.814-4.82-7.957-3.016Z" transform="translate(-460.776 -452.589)" opacity="0.1"/>
      <path id="Path_10283" data-name="Path 10283" d="M526.278,285.827c-.159.254-.317.584-.159.835a2.619,2.619,0,0,0,.214.229,1.043,1.043,0,0,1,.186.432,2.926,2.926,0,0,1-.2,2.279,9.534,9.534,0,0,0-.648.878,2.481,2.481,0,0,0-.092,1.506,5.68,5.68,0,0,0,.538,1.809,2.468,2.468,0,0,0,1.383,1.227c.352.108.778.14.984.444.229.333.1.882.44,1.1a.853.853,0,0,0,.794-.092,1.463,1.463,0,0,0,.857-.748c.075-.235.032-.511.173-.713.114-.159.317-.241.433-.41a.859.859,0,0,0,.1-.362l.213-1.613a1.668,1.668,0,0,0,.019-.444,1.8,1.8,0,0,0-.582-.932,3.586,3.586,0,0,1-.952-1.484,8.656,8.656,0,0,1,.254-2.732,1.428,1.428,0,0,0-.043-.543,1.786,1.786,0,0,0-.421-.613,3.189,3.189,0,0,0-.635-.573,3,3,0,0,0-1.721-.257C526.82,285.054,526.6,285.322,526.278,285.827Z" transform="translate(-453.636 -244.531)" fill="#1e1637"/>
      <path id="Path_10284" data-name="Path 10284" d="M488.968,364.292l-.635,1.19-.159.159a37.556,37.556,0,0,1-3.935,3.385c-.436.079-2.66-3.46-2.66-3.46l3.346-2.824.133-.113Z" transform="translate(-416.676 -309.807)" fill="#b15885"/>
      <path id="Path_10285" data-name="Path 10285" d="M557.663,302.873l-5.4,2.143s-5.317.635-3.651-2.3a5.5,5.5,0,0,0,.529-1.287,7.817,7.817,0,0,0-.529-4.982s6.269-5.555,5.476-1.428a7.417,7.417,0,0,0,1.481,5.466,13.385,13.385,0,0,0,2.09,2.39Z" transform="translate(-472.8 -251.641)" fill="#b15885"/>
      <circle id="Ellipse_3201" data-name="Ellipse 3201" cx="5.238" cy="5.238" r="5.238" transform="translate(72.654 35.994)" opacity="0.1"/>
      <circle id="Ellipse_3202" data-name="Ellipse 3202" cx="5.238" cy="5.238" r="5.238" transform="translate(72.654 35.836)" fill="#b15885"/>
      <path id="Path_10286" data-name="Path 10286" d="M557.663,339.93l-5.4,2.143s-5.317.635-3.651-2.3a5.5,5.5,0,0,0,.529-1.287,4.964,4.964,0,0,0,3.043,1.763c2.144.224,2.554-1.4,3.386-2.708a13.386,13.386,0,0,0,2.09,2.39Z" transform="translate(-472.8 -288.699)" opacity="0.1"/>
      <path id="Path_10287" data-name="Path 10287" d="M506.568,364.267l-.635,1.19-.159.159-.875-.762-2.4-2.1.025-.046.133-.113Z" transform="translate(-434.276 -309.781)" opacity="0.1"/>
      <path id="Path_10288" data-name="Path 10288" d="M547.464,513.3a16.333,16.333,0,0,1-4.846.857,12.464,12.464,0,0,0-5.635,1.428c-2.8,1.322-6.574-.74-6.574-.74v-.317l.662-1.217s14.959-2.341,16.07-.913A2.2,2.2,0,0,1,547.464,513.3Z" transform="translate(-457.756 -435.418)" opacity="0.1"/>
      <path id="Path_10289" data-name="Path 10289" d="M526.028,352.231c-.213,1.587-4.709,1.957-6.058,2.009a12.442,12.442,0,0,0-5.635,1.428c-2.8,1.322-6.574-.74-6.574-.74v-.216c0-.619.008-2.441,0-3.709v-1.049c0-.576,0-1.387-.04-2.179a9.729,9.729,0,0,0-.211-1.789,2.936,2.936,0,0,1,.217-2.143l.033-.079a4.277,4.277,0,0,0-.251-2.327,7.524,7.524,0,0,1-.159-1.46c-.014-.487,0-.868,0-.868a5.74,5.74,0,0,0,.2-3.311h0a9.271,9.271,0,0,1-.357-2.56,2.623,2.623,0,0,0-.016-1.038,1.2,1.2,0,0,0-.408-.708l-.879-.767-2.4-2.092s.484-.871,1.03-2.124a24.417,24.417,0,0,0,.916-2.412c.041-.127.079-.256.117-.384.74-2.539,4.708-1.059,4.708-1.059a4.816,4.816,0,0,0,4.074,5.027c2.54.265,2.646-2.063,3.9-3.385s5.781,2.063,5.781,2.063.035,1.227-.024,2.868a34.672,34.672,0,0,1-.406,4.374,10,10,0,0,1-.84,2.857,5.91,5.91,0,0,0-.317.724A6.984,6.984,0,0,0,522,339.67a4.413,4.413,0,0,0,.016.465,8.487,8.487,0,0,0,.251,1.587,5.573,5.573,0,0,0,.168.551s.141.31.368.822c.317.716.794,1.825,1.3,3.036.279.681.565,1.4.827,2.089.384,1.013.717,1.981.917,2.736A4.088,4.088,0,0,1,526.028,352.231Z" transform="translate(-435.109 -275.815)" fill="#ffcde5"/>
      <path id="Path_10290" data-name="Path 10290" d="M529.47,339.15a34.671,34.671,0,0,1-.406,4.374,6.736,6.736,0,0,1-1.316.184c-.671.017-1.336-.119-2.008-.136-.721-.019-1.438.1-2.159.141a21.649,21.649,0,0,1-4.3-.317l-1.343-.2a10.3,10.3,0,0,1-1.1-.2c-.3-.076-.6-.182-.9-.275a16.42,16.42,0,0,0-3.284-.6,1.2,1.2,0,0,0-.408-.708l-.879-.767q-.608-1.848-1.211-3.7c-.057-.171-.113-.344-.159-.519a24.426,24.426,0,0,0,.916-2.413,12.73,12.73,0,0,0,.729,1.838,5.061,5.061,0,0,0,.644,1.043,5.356,5.356,0,0,0,2.473,1.47,33.6,33.6,0,0,0,7.393,1.3,20.657,20.657,0,0,0,2.444.141c.635-.016,1.27-.09,1.9-.159A21.393,21.393,0,0,0,529.47,339.15Z" transform="translate(-440.586 -285.738)" fill="#ff90c9"/>
      <path id="Path_10291" data-name="Path 10291" d="M542.858,409.1a6.982,6.982,0,0,0-.429,2.487h-.017a15.524,15.524,0,0,1-1.611.678,7.332,7.332,0,0,1-1.835.208q-1.382.04-2.768.073a28.1,28.1,0,0,1-8.412-.662c-.014-.487,0-.868,0-.868a5.741,5.741,0,0,0,.2-3.311c.275.135.57.344.7.4a11.561,11.561,0,0,0,1.559.6,17.805,17.805,0,0,0,4.32.635,56.821,56.821,0,0,0,7.128-.11A8.744,8.744,0,0,0,542.858,409.1Z" transform="translate(-455.544 -347.723)" fill="#ff90c9"/>
      <path id="Path_10292" data-name="Path 10292" d="M544.783,456.825c-.243.044-.484.094-.725.143a17.4,17.4,0,0,0-1.97.486c-.587.2-1.151.452-1.746.651a15.28,15.28,0,0,1-4.368.654,49.3,49.3,0,0,1-7.574-.3,9.727,9.727,0,0,0-.211-1.789,2.936,2.936,0,0,1,.217-2.143,16.978,16.978,0,0,1,1.792.317,25.71,25.71,0,0,0,3.67.441,21.428,21.428,0,0,0,2.233-.127l1.832-.168a14.709,14.709,0,0,0,1.69-.222c.541-.114,1.068-.289,1.6-.435.738-.2,1.506-.348,2.251-.543C543.8,454.5,544.284,455.614,544.783,456.825Z" transform="translate(-455.795 -386.498)" fill="#ff90c9"/>
      <path id="Path_10293" data-name="Path 10293" d="M548.463,488.832a14.077,14.077,0,0,0-2.582,1.1c-.635.362-1.244.794-1.916,1.1a10.483,10.483,0,0,1-2.3.652q-2.251.438-4.525.776a20.442,20.442,0,0,1-6.765.124c0-.619.008-2.441,0-3.709a10.792,10.792,0,0,1,2.587-.014,46.539,46.539,0,0,0,4.731.286,17.97,17.97,0,0,0,2.39-.368l4.484-.9a2.176,2.176,0,0,0,.7-.225,3.1,3.1,0,0,0,.54-.476,6.159,6.159,0,0,1,1.724-1.071A25.436,25.436,0,0,1,548.463,488.832Z" transform="translate(-457.731 -413.679)" fill="#ff90c9"/>
      <path id="Path_10294" data-name="Path 10294" d="M611.2,474.628c.521-.063,1.041.2,1.562.133-.181.278-.56.317-.887.365a9.043,9.043,0,0,0-1.044.24c-.138.036-.93.333-1.029.235C609.57,475.364,610.989,474.653,611.2,474.628Z" transform="translate(-524.526 -404.02)" opacity="0.1"/>
      <path id="Path_10295" data-name="Path 10295" d="M610.643,484.854a4.248,4.248,0,0,0-.657.527,3.257,3.257,0,0,1-1.246.644,1.343,1.343,0,0,0,1.516-.116,1.523,1.523,0,0,1,.4-.306c.122-.048.26-.043.383-.094.159-.068.5-.465.406-.659C611.333,484.606,610.8,484.765,610.643,484.854Z" transform="translate(-523.654 -412.519)" opacity="0.1"/>
      <path id="Path_10296" data-name="Path 10296" d="M603.48,445.575c.143.159.387.159.589.237a2.742,2.742,0,0,1,.381.2,1.986,1.986,0,0,0,1.622.132,1.639,1.639,0,0,0-.781-.73,1.87,1.87,0,0,0-.9.029,1.6,1.6,0,0,1-.7.013C603.5,445.4,603.2,445.26,603.48,445.575Z" transform="translate(-519.132 -379.414)" opacity="0.1"/>
      <path id="Path_10297" data-name="Path 10297" d="M514.245,245.278c-.751.835-.992,2.114-1.941,2.714-.267.168-.575.27-.838.444a3.537,3.537,0,0,0-1.179,2.436c-.108.576-.089,1.368.476,1.513.182.046.376,0,.56.036a1,1,0,0,1,.675,1.121,7.293,7.293,0,0,1-.406,1.373.822.822,0,0,0,.008.617.706.706,0,0,0,.5.317,1.774,1.774,0,0,0,1.662-.781,4.6,4.6,0,0,0,.681-1.8,26.315,26.315,0,0,0,.476-3.163,6.685,6.685,0,0,1,.559-2.67,1.963,1.963,0,0,1,2.278-1.059c.6.24,1.04.9,1.689.922a1.234,1.234,0,0,1,.568.054.744.744,0,0,1,.265.34,8.154,8.154,0,0,1,1.138,4.411,14.885,14.885,0,0,0-.425,2.849c.06.692.375,1.351.37,2.046a7.006,7.006,0,0,1-.5,1.96,6.212,6.212,0,0,0-.171,2.825,1.867,1.867,0,0,0,.335.876.794.794,0,0,0,.841.3l.244,1.676a.721.721,0,0,0,.113.344c.294.378.883-.106,1.359-.052a1.838,1.838,0,0,0,1.49,1.143c.646.129,1.321.081,1.965.217.608.129,1.176.417,1.794.49a2.712,2.712,0,0,0,2.9-2.679,10.7,10.7,0,0,0-1.024-2.927c-.952-2.771.565-5.96-.448-8.714-.318-.879-.887-1.651-1.27-2.508-.606-1.365-.757-2.968-1.717-4.114a6.425,6.425,0,0,0-1.4-1.17,5.18,5.18,0,0,0-1.571-.794,8.413,8.413,0,0,0-2.96.146c-1.046.113-2.054-.159-3.085-.1a9.842,9.842,0,0,0-2.648.476A3.316,3.316,0,0,0,514.245,245.278Z" transform="translate(-440.783 -209.82)" opacity="0.1"/>
      <path id="Path_10298" data-name="Path 10298" d="M514.245,244.278c-.751.835-.992,2.114-1.941,2.714-.267.168-.575.27-.838.444a3.538,3.538,0,0,0-1.179,2.436c-.108.576-.089,1.368.476,1.513.182.046.376,0,.56.037a1,1,0,0,1,.675,1.121,7.3,7.3,0,0,1-.406,1.373.822.822,0,0,0,.008.617.706.706,0,0,0,.5.317,1.774,1.774,0,0,0,1.662-.781,4.6,4.6,0,0,0,.681-1.8,26.316,26.316,0,0,0,.476-3.163,6.685,6.685,0,0,1,.559-2.67,1.963,1.963,0,0,1,2.278-1.059c.6.24,1.04.9,1.689.922a1.234,1.234,0,0,1,.568.054.744.744,0,0,1,.265.34,8.154,8.154,0,0,1,1.138,4.411,14.885,14.885,0,0,0-.425,2.849c.06.692.375,1.351.37,2.046a7.005,7.005,0,0,1-.5,1.96,6.212,6.212,0,0,0-.171,2.825,1.867,1.867,0,0,0,.335.876.794.794,0,0,0,.841.3l.244,1.676a.721.721,0,0,0,.113.344c.294.378.883-.106,1.359-.052a1.838,1.838,0,0,0,1.49,1.143c.646.129,1.321.081,1.965.217.608.129,1.176.417,1.794.49a2.712,2.712,0,0,0,2.9-2.679,10.7,10.7,0,0,0-1.024-2.927c-.952-2.771.565-5.96-.448-8.714-.318-.879-.887-1.651-1.27-2.508-.606-1.365-.757-2.968-1.717-4.114a6.428,6.428,0,0,0-1.4-1.17,5.182,5.182,0,0,0-1.571-.794,8.414,8.414,0,0,0-2.96.146c-1.046.113-2.054-.159-3.085-.1a9.842,9.842,0,0,0-2.648.476A3.316,3.316,0,0,0,514.245,244.278Z" transform="translate(-440.783 -208.979)" fill="#1e1637"/>
      <path id="Path_10299" data-name="Path 10299" d="M527.667,320.179c.13.432.53.721.794,1.089a1.932,1.932,0,0,1,.317,1.467c-.159.824-.848,1.587-.621,2.393a2.223,2.223,0,0,0,.467.767,4.364,4.364,0,0,0,2.411,1.8.952.952,0,0,0,.476-.019.977.977,0,0,0,.411-.335,2.417,2.417,0,0,0,.465-1.925,8.482,8.482,0,0,1-.213-.927,3.606,3.606,0,0,1,.656-1.9,2.226,2.226,0,0,0,.3-1.941,2.187,2.187,0,0,0-1.084-.919,10.818,10.818,0,0,0-3.016-.96c-.476-.079-.7-.148-1.043.243A1.279,1.279,0,0,0,527.667,320.179Z" transform="translate(-455.413 -272.853)" opacity="0.1"/>
      <path id="Path_10300" data-name="Path 10300" d="M527.667,319.18c.13.432.53.721.794,1.089a1.932,1.932,0,0,1,.317,1.467c-.159.824-.848,1.587-.621,2.393a2.223,2.223,0,0,0,.467.767,4.365,4.365,0,0,0,2.411,1.8.953.953,0,0,0,.476-.019.977.977,0,0,0,.411-.335,2.417,2.417,0,0,0,.465-1.925,8.513,8.513,0,0,1-.213-.927,3.606,3.606,0,0,1,.656-1.9,2.226,2.226,0,0,0,.3-1.941,2.187,2.187,0,0,0-1.084-.919,10.819,10.819,0,0,0-3.016-.96c-.476-.079-.7-.148-1.043.243A1.279,1.279,0,0,0,527.667,319.18Z" transform="translate(-455.413 -272.011)" fill="#1e1637"/>
      <path id="Path_10301" data-name="Path 10301" d="M606.811,425.9a1.427,1.427,0,0,1-.4-.159,3.3,3.3,0,0,1-.667-.549,8.638,8.638,0,0,1-.982-1.111,3.433,3.433,0,0,1-.77-1.806c.159-.024.476.171.619.254a2.239,2.239,0,0,1,.56.573,4.183,4.183,0,0,0,.794.752,5.531,5.531,0,0,1,.57.425l.017.017A8.48,8.48,0,0,0,606.811,425.9Z" transform="translate(-519.659 -359.987)" opacity="0.1"/>
      <g id="Group_10479" data-name="Group 10479" transform="translate(69.436 35.499)" opacity="0.1">
        <path id="Path_10302" data-name="Path 10302" d="M520.711,299.912a1.767,1.767,0,0,1-1.66.779.7.7,0,0,1-.506-.317.543.543,0,0,1-.054-.159c-.04.111-.079.224-.113.338a.836.836,0,0,0,.008.617.7.7,0,0,0,.506.317,1.767,1.767,0,0,0,1.66-.779,4.623,4.623,0,0,0,.683-1.8c.048-.227.092-.456.133-.684A4.334,4.334,0,0,1,520.711,299.912Z" transform="translate(-517.023 -291.127)"/>
        <path id="Path_10303" data-name="Path 10303" d="M511.9,286.583a2.736,2.736,0,0,0,.159-.652,1.012,1.012,0,0,0-.676-1.121c-.184-.033-.378.009-.559-.037-.517-.132-.579-.8-.5-1.354-.051.211-.094.425-.133.635-.108.576-.089,1.368.476,1.513.181.046.375,0,.559.037A.969.969,0,0,1,511.9,286.583Z" transform="translate(-510.135 -278.668)"/>
        <path id="Path_10304" data-name="Path 10304" d="M547.567,260.1a1.472,1.472,0,0,1-.025.2,8.318,8.318,0,0,0,.184-1,8.224,8.224,0,0,0-1.136-4.411.745.745,0,0,0-.265-.34,1.239,1.239,0,0,0-.57-.054c-.649-.027-1.084-.682-1.689-.924a1.964,1.964,0,0,0-2.276,1.06,4.367,4.367,0,0,0-.449,1.519,3.477,3.477,0,0,1,.29-.725,1.965,1.965,0,0,1,2.276-1.06c.6.241,1.04.9,1.689.924a1.14,1.14,0,0,1,.57.054.745.745,0,0,1,.265.34A8.168,8.168,0,0,1,547.567,260.1Z" transform="translate(-536.387 -253.481)"/>
        <path id="Path_10305" data-name="Path 10305" d="M583.808,346.31c-.616-.073-1.186-.362-1.792-.49-.646-.137-1.319-.087-1.965-.217a1.838,1.838,0,0,1-1.49-1.143c-.476-.054-1.065.43-1.359.052a.721.721,0,0,1-.113-.344q-.124-.838-.245-1.676a.794.794,0,0,1-.841-.3,1.87,1.87,0,0,1-.337-.876,6.239,6.239,0,0,1-.033-1.859,6.235,6.235,0,0,0-.125,2.652,1.871,1.871,0,0,0,.337.876.794.794,0,0,0,.841.3q.121.838.245,1.676a.72.72,0,0,0,.113.344c.294.378.882-.106,1.359-.052a1.838,1.838,0,0,0,1.49,1.143c.646.129,1.319.081,1.965.217.606.129,1.176.417,1.792.49a2.726,2.726,0,0,0,2.9-2.547A2.731,2.731,0,0,1,583.808,346.31Z" transform="translate(-565.059 -325.813)"/>
        <path id="Path_10306" data-name="Path 10306" d="M578.4,305.563c0-.7-.317-1.354-.371-2.046a3.678,3.678,0,0,1,.038-.867,5.376,5.376,0,0,0-.2,1.66c.06.692.375,1.351.371,2.046a.906.906,0,0,1-.01.159A3.408,3.408,0,0,0,578.4,305.563Z" transform="translate(-567.115 -294.846)"/>
      </g>
      <path id="Path_10307" data-name="Path 10307" d="M579.207,795.254l-4.127-.516s.221-.808.4-1.9l-.059.952a.436.436,0,0,0,.4.463l2.667.211a.44.44,0,0,0,.476-.4v-.751l.078-.476c.011.022.021.048.032.073A7.469,7.469,0,0,0,579.207,795.254Z" transform="translate(-495.336 -671.725)" opacity="0.1"/>
      <path id="Path_10308" data-name="Path 10308" d="M573.1,792.22s-1.47,2.981-.589,3.79c.635.6,2.843.425,3.978.29a.733.733,0,0,0,.646-.779,12.309,12.309,0,0,0-.476-3.038l-.078.476v.751a.438.438,0,0,1-.476.4l-2.667-.21a.44.44,0,0,1-.4-.463Z" transform="translate(-492.937 -671.212)" fill="#626696"/>
      <path id="Path_10309" data-name="Path 10309" d="M576.445,272.761a5.179,5.179,0,0,0,.456,1.962,4.752,4.752,0,0,1-.3,3.441,9.848,9.848,0,0,0-.624,1.248,2.455,2.455,0,0,0,1.6,3,4.543,4.543,0,0,1,1,.29,2.026,2.026,0,0,1,.778,1.879,4.293,4.293,0,0,0,.221,2.1,2.5,2.5,0,0,0,1.384,1.089,4.692,4.692,0,0,0,3.125.049,2.476,2.476,0,0,0,.932-.525,2.6,2.6,0,0,0,.676-1.644,5.516,5.516,0,0,0-.673-3.217c-.454-.811-1.111-1.492-1.616-2.268a7.618,7.618,0,0,1-1.233-3.746,14,14,0,0,0-.121-2.035,3.663,3.663,0,0,0-1.587-2.322c-.4-.254-.838-.427-1.224-.694s-.575-.709-1.009-.635A2.75,2.75,0,0,0,576.445,272.761Z" transform="translate(-496.003 -232.491)" fill="#985c7e"/>
      <g id="Group_10480" data-name="Group 10480" transform="translate(79.87 39.681)" opacity="0.1">
        <path id="Path_10310" data-name="Path 10310" d="M579.9,284.936a4.762,4.762,0,0,0,.138-3.073,5.178,5.178,0,0,1-.455-1.962.629.629,0,0,1,.013-.071,1.83,1.83,0,0,0-.171.548,5.176,5.176,0,0,0,.456,1.962A4.75,4.75,0,0,1,579.9,284.936Z" transform="translate(-578.853 -279.83)"/>
        <path id="Path_10311" data-name="Path 10311" d="M585.17,331.229a2.476,2.476,0,0,1-.932.525,4.692,4.692,0,0,1-3.125-.049,2.481,2.481,0,0,1-1.384-1.089,4.392,4.392,0,0,1-.221-2.1,2.053,2.053,0,0,0-.778-1.881,4.541,4.541,0,0,0-1-.289,2.467,2.467,0,0,1-1.652-2.784c-.037.084-.071.171-.1.259a2.456,2.456,0,0,0,1.6,3,4.536,4.536,0,0,1,1,.289,2.03,2.03,0,0,1,.778,1.881,4.293,4.293,0,0,0,.221,2.1,2.5,2.5,0,0,0,1.384,1.089,4.691,4.691,0,0,0,3.125.049,2.475,2.475,0,0,0,.932-.525,2.212,2.212,0,0,0,.584-1.1,1.941,1.941,0,0,1-.425.627Z" transform="translate(-575.872 -316.619)"/>
      </g>
      <path id="Path_10312" data-name="Path 10312" d="M589.228,764l-1.4.516-3.471-1.081.562-1.321.489-1.149,3.2.248.286,1.279Z" transform="translate(-491.611 -640.178)" fill="#ffd2c6"/>
      <path id="Path_10313" data-name="Path 10313" d="M697.746,792.1l-1.786.892-2.044-.476-.456-1.522-.29-.952s3.75-1.687,3.135-.973c-.246.286-.062.83.245,1.379A11.384,11.384,0,0,0,697.746,792.1Z" transform="translate(-594.683 -668.41)" fill="#ffd2c6"/>
      <path id="Path_10314" data-name="Path 10314" d="M664.488,792.377l-3.968-.3a.513.513,0,0,0-.01-.083L661,790.85l3.195.249Z" transform="translate(-567.207 -670.06)" opacity="0.1"/>
      <path id="Path_10315" data-name="Path 10315" d="M639.887,523.913l-.4.227-5.238,2.947.4,16.348a68.218,68.218,0,0,1-.227,7.063,6.668,6.668,0,0,1-.249,1.27c-.6,1.706.278,5.754.278,5.754l-4.23-.317a9.837,9.837,0,0,1-.016-2.308c.159-.917-.913-6.741-.913-6.741s-.873-8.293-1.27-8.531-.952-3.016-.952-3.93-1.468-7.142-1.474-7.26-.794-5-.794-5.793-.506-5.911-.232-7.18c.108-.5.26-1.16.4-1.781.225-.963.433-1.83.433-1.83s13.848.913,15,2.776a2.3,2.3,0,0,1,.265.717C641.233,517.905,639.887,523.913,639.887,523.913Z" transform="translate(-536.9 -435.342)" fill="#ceddf9"/>
      <path id="Path_10316" data-name="Path 10316" d="M661.975,567.22l.17,3.274-.086.227-5.238,2.947.4,16.348a68.205,68.205,0,0,1-.227,7.063c-.265-.981-.794-2.327-.765-2.46.04-.2-2.341-5.873-3.333-6.944a10.187,10.187,0,0,1-1.573-3.651s.144-5.317.7-6.031,1.525-9.6,1.525-9.6Z" transform="translate(-559.475 -481.924)" opacity="0.1"/>
      <path id="Path_10317" data-name="Path 10317" d="M696.519,790.44a.745.745,0,0,0-.462.308c-.184.341-1.654.3-2.627.243l-.29-.952s3.75-1.687,3.135-.973C696.029,789.347,696.213,789.891,696.519,790.44Z" transform="translate(-594.658 -668.41)" opacity="0.1"/>
      <path id="Path_10318" data-name="Path 10318" d="M655.288,566.961s-.675,9.166-1.23,9.88-.7,6.031-.7,6.031a10.175,10.175,0,0,0,1.571,3.651c.992,1.071,3.373,6.746,3.333,6.944s1.151,3.1.873,3.452a5.834,5.834,0,0,0,.043,2.5c.078.119.592.779.235,1.362a6.533,6.533,0,0,0-.317,2.339s3.214.346,3.492-.17,1.667-.4,1.667-.4-1.19-4.4-.833-5.35-1.508-10.158-2.42-12.261.318-7.976.318-7.976l2.857-7.619.079-3.492Z" transform="translate(-561.192 -480.772)" fill="#ceddf9"/>
      <path id="Path_10319" data-name="Path 10319" d="M549.94,390.63l3.227,2.246.476,5.108v4.471l-.422,2.089-2.862-.211.1-8.274Z" transform="translate(-462.654 -328.618)" fill="#4c4981"/>
      <path id="Path_10320" data-name="Path 10320" d="M549.94,390.63l3.227,2.246.476,5.108v4.471l-.422,2.089-2.862-.211.1-8.274Z" transform="translate(-462.654 -328.618)" opacity="0.1"/>
      <path id="Path_10321" data-name="Path 10321" d="M609.88,307.436s4.539,3.825,4.285,8.533,4.506-2.168,4.506-2.168l1.27-3.387s-5.638-2.744-5.03-6.295S609.88,307.436,609.88,307.436Z" transform="translate(-524.613 -259.725)" fill="#ffd2c6"/>
      <circle id="Ellipse_3203" data-name="Ellipse 3203" cx="4.871" cy="4.871" r="4.871" transform="translate(82.185 39.272)" opacity="0.1"/>
      <circle id="Ellipse_3204" data-name="Ellipse 3204" cx="4.871" cy="4.871" r="4.871" transform="translate(82.185 38.954)" fill="#ffd2c6"/>
      <path id="Path_10322" data-name="Path 10322" d="M620.282,363.58s-1.429,1.522-1.89,1.522.4,6.079-.429,7.25.429,3.419.429,3.419l.335,6s-.886,6.642-.763,6.931,1.27,0,1.27,0l.5-6.688a51.678,51.678,0,0,1,.052-5.639c.211-1.059-.143-4.731.246-5.593a7.864,7.864,0,0,0,.336-2.606Z" transform="translate(-531.177 -310.606)" opacity="0.1"/>
      <path id="Path_10323" data-name="Path 10323" d="M619.282,362.58s-1.429,1.522-1.89,1.522.4,6.079-.429,7.25.429,3.419.429,3.419l.335,6s-.886,6.642-.763,6.931,1.27,0,1.27,0l.5-6.688a51.662,51.662,0,0,1,.052-5.639c.211-1.059-.143-4.731.246-5.593a7.863,7.863,0,0,0,.336-2.606Z" transform="translate(-530.335 -309.765)" fill="#4c4981"/>
      <path id="Path_10324" data-name="Path 10324" d="M643.237,515.343c-1.955.159-8.03.609-9.18-.054-1.29-.744-5.439-1.189-6.517-1.609.225-.963.433-1.83.433-1.83s13.848.913,15,2.776A2.3,2.3,0,0,1,643.237,515.343Z" transform="translate(-539.47 -435.342)" opacity="0.1"/>
      <path id="Path_10325" data-name="Path 10325" d="M641.709,389.411s-8.412.794-9.788,0-6.006-1.246-6.69-1.694.336-4.506.738-5.373.873-1.452.811-1.817a3.5,3.5,0,0,1,.317-1.428c.149-.365.533-1.324.533-1.324s-.419-.37,0-1.44.057-.252-1.159-1.84-.443-5.873-.443-5.873l.252-6.023,1.127,1.214,1.338,1.441,2.063,2.2,2.8.794,2.751,3.122,2.8,5.85s.271,1.416.713,3.073c.2.77.448,1.587.716,2.346A32.381,32.381,0,0,1,641.709,389.411Z" transform="translate(-537.333 -309.781)" fill="#f86280"/>
      <path id="Path_10326" data-name="Path 10326" d="M646.753,386.7a21.152,21.152,0,0,0-5.37,3.643c-1.216,1.138-3.438,1.084-3.279,0s-3.07-8.83-3.07-8.83a33.361,33.361,0,0,0-1.543-4.992c-.952-2.389.465-5.622.794-6.3l1.338,1.441,2.063,2.2,2.8.794,2.751,3.122,2.8,5.85S646.315,385.046,646.753,386.7Z" transform="translate(-544.204 -316.192)" opacity="0.1"/>
      <path id="Path_10327" data-name="Path 10327" d="M636.514,338.465l-1.168,2.947s-1.919,3.751-.851,6.435a33.36,33.36,0,0,1,1.543,4.992s3.227,7.746,3.068,8.83,2.063,1.138,3.281,0,5.041-4.166,6.806-3.895a3.86,3.86,0,0,0,2.806-.524s-3.211-4.155-3.052-5.915-1.27-5.988-1.27-5.988a47.473,47.473,0,0,0-1.087-5.75c-.452-1.127-1.97-3.312-3.06-3.066a25.178,25.178,0,0,1-4.424-.019Z" transform="translate(-545.049 -287.832)" fill="#4c4981"/>
      <path id="Path_10328" data-name="Path 10328" d="M681.854,674.22s-1.587.714-2.162.873S681.656,675.172,681.854,674.22Z" transform="translate(-583.273 -571.941)" opacity="0.1"/>
      <path id="Path_10329" data-name="Path 10329" d="M676.685,676.35s-4.108,1.468-3.949,1.825S676.685,676.35,676.685,676.35Z" transform="translate(-577.489 -573.733)" opacity="0.1"/>
      <path id="Path_10330" data-name="Path 10330" d="M686.929,681.35s-1.667,2.024-1.209,2.143S686.929,681.35,686.929,681.35Z" transform="translate(-588.348 -577.939)" opacity="0.1"/>
      <path id="Path_10331" data-name="Path 10331" d="M643.994,509.6s-2.322.138.4.852a6.009,6.009,0,0,0,4.344-.238Z" transform="translate(-552.535 -433.45)" opacity="0.1"/>
      <circle id="Ellipse_3205" data-name="Ellipse 3205" cx="0.373" cy="0.373" r="0.373" transform="translate(89.924 58.888)" fill="#fff"/>
      <circle id="Ellipse_3206" data-name="Ellipse 3206" cx="0.373" cy="0.373" r="0.373" transform="translate(93.5 57.399)" fill="#fff"/>
      <circle id="Ellipse_3207" data-name="Ellipse 3207" cx="0.373" cy="0.373" r="0.373" transform="translate(91.424 63.885)" fill="#fff"/>
      <circle id="Ellipse_3208" data-name="Ellipse 3208" cx="0.373" cy="0.373" r="0.373" transform="translate(93.313 68.832)" fill="#fff"/>
      <path id="Path_10332" data-name="Path 10332" d="M575.11,364.047h2.778l2.671-1.587.132.6-2.616,1.487h-2.822Z" transform="translate(-483.829 -304.919)" fill="#fff"/>
      <path id="Path_10333" data-name="Path 10333" d="M568.91,315.313l2.862.5.018-4.995-1.711,1.289Z" transform="translate(-478.613 -261.476)" fill="#4c4981"/>
      <path id="Path_10334" data-name="Path 10334" d="M591.21,260.891a2.13,2.13,0,0,1,.906-.011,2.649,2.649,0,0,1,.935.533,3.659,3.659,0,0,1,1.606,2.017c.16.865-.336,1.86.049,2.676.275.586.973.989.982,1.635a2.539,2.539,0,0,1-.2.77c-.444,1.351.159,2.8.743,4.093a1.438,1.438,0,0,0,1.209,1.025l.8.221a.951.951,0,0,0,.444.051c.368-.078.5-.525.552-.9a8.4,8.4,0,0,1,.259-1.517,1.981,1.981,0,0,1,.919-1.187c.921-.456,1.994.19,3.016.211a1.136,1.136,0,0,0,.667-.159,1.052,1.052,0,0,0,0-1.524,4.656,4.656,0,0,0-1.471-.881,5.158,5.158,0,0,1-1.37-.97,2.459,2.459,0,0,1-.589-.867,3.771,3.771,0,0,1-.09-1.5,9.408,9.408,0,0,0-.575-4.238,5.016,5.016,0,0,0-3-2.906c-.775-.238-1.6-.235-2.4-.4-.622-.129-1.219-.359-1.841-.486a2.915,2.915,0,0,0-1.865.133c-.8.4-1.24,1.3-2,1.779-.435.278-1.009.454-1.189.938-.214.576.278,1.236.071,1.814-.068.189-.2.346-.287.529a.492.492,0,0,0,.048.559.508.508,0,0,0,.257.111,1.548,1.548,0,0,0,1.53-.738A3.17,3.17,0,0,1,591.21,260.891Z" transform="translate(-505.738 -220.511)" opacity="0.1"/>
      <path id="Path_10335" data-name="Path 10335" d="M661.273,342.884a1.4,1.4,0,0,0-1.155.952,7.648,7.648,0,0,0-.456,3.6c.354,1.827.67,3.573.67,3.573v3.1s.081,2.976.557,3.73-1.865,7.265-1.865,7.265l-2.144,6.063s-3.254,7.42-.278,7.658,2.6-6.852,2.6-6.852l3.474-6.06,1.865-3.952a28.4,28.4,0,0,0,.476-5.754c-.041-3.373-.2-6.214-.2-6.214s-.833-5.254-1.786-6.206A2.256,2.256,0,0,0,661.273,342.884Z" transform="translate(-562.863 -293.189)" opacity="0.1"/>
      <path id="Path_10336" data-name="Path 10336" d="M659.273,341.884a1.4,1.4,0,0,0-1.155.952,7.65,7.65,0,0,0-.456,3.6c.354,1.827.67,3.573.67,3.573v3.1s.081,2.976.557,3.73-1.865,7.265-1.865,7.265l-2.144,6.063s-3.254,7.42-.278,7.658,2.6-6.852,2.6-6.852l3.474-6.06,1.865-3.952a28.405,28.405,0,0,0,.476-5.754c-.041-3.373-.2-6.214-.2-6.214s-.833-5.254-1.786-6.206A2.256,2.256,0,0,0,659.273,341.884Z" transform="translate(-561.181 -292.348)" fill="#ffd2c6"/>
      <path id="Path_10337" data-name="Path 10337" d="M592.21,259.891a2.13,2.13,0,0,1,.906-.011,2.649,2.649,0,0,1,.935.533,3.659,3.659,0,0,1,1.606,2.017c.16.865-.336,1.86.049,2.676.275.586.973.989.982,1.635a2.539,2.539,0,0,1-.2.77c-.444,1.351.159,2.8.743,4.093a1.438,1.438,0,0,0,1.209,1.025l.8.221a.952.952,0,0,0,.445.051c.368-.078.5-.525.552-.9a8.4,8.4,0,0,1,.259-1.517,1.981,1.981,0,0,1,.919-1.187c.921-.456,1.993.19,3.016.211a1.137,1.137,0,0,0,.667-.159,1.052,1.052,0,0,0,0-1.524,4.656,4.656,0,0,0-1.471-.881,5.158,5.158,0,0,1-1.37-.97,2.459,2.459,0,0,1-.589-.867,3.77,3.77,0,0,1-.091-1.5,9.407,9.407,0,0,0-.575-4.238,5.015,5.015,0,0,0-3-2.906c-.775-.238-1.6-.235-2.4-.4-.622-.129-1.219-.359-1.841-.486a2.915,2.915,0,0,0-1.865.133c-.8.4-1.24,1.3-2,1.779-.435.278-1.01.454-1.189.938-.214.576.278,1.236.071,1.814-.068.189-.2.346-.287.529a.492.492,0,0,0,.048.559.507.507,0,0,0,.257.111,1.548,1.548,0,0,0,1.53-.738A3.17,3.17,0,0,1,592.21,259.891Z" transform="translate(-506.579 -219.67)" fill="#985c7e"/>
      <g id="Group_10481" data-name="Group 10481" transform="translate(81.887 39.738)" opacity="0.1">
        <path id="Path_10338" data-name="Path 10338" d="M671.2,339.147c-1.027-.021-2.1-.668-3.016-.211a1.773,1.773,0,0,0-.781.825,1.518,1.518,0,0,1,.459-.356c.921-.457,1.994.19,3.016.211a1.129,1.129,0,0,0,.667-.159.733.733,0,0,0,.3-.467A1.15,1.15,0,0,1,671.2,339.147Z" transform="translate(-654.89 -329.474)"/>
        <path id="Path_10339" data-name="Path 10339" d="M600.136,293.248a.953.953,0,0,1-.444-.049l-.806-.222a1.933,1.933,0,0,1-.775-.344,1.9,1.9,0,0,1-.435-.681c-.587-1.294-1.186-2.743-.743-4.093a2.4,2.4,0,0,0,.2-.768c-.01-.648-.708-1.051-.984-1.636-.384-.816.116-1.787-.048-2.674a3.61,3.61,0,0,0-1.608-2.019,2.7,2.7,0,0,0-.933-.533,2.189,2.189,0,0,0-.908.011,3.106,3.106,0,0,0-1.857.813,1.546,1.546,0,0,1-1.529.738.519.519,0,0,1-.259-.109.5.5,0,0,1-.048-.56c.083-.183.178-.635-.03-.052-.067.189-.2.346-.287.529a.492.492,0,0,0,.048.56.519.519,0,0,0,.259.11,1.546,1.546,0,0,0,1.528-.738,3.107,3.107,0,0,1,1.857-.813,2.189,2.189,0,0,1,.908-.011,2.7,2.7,0,0,1,.933.533,3.665,3.665,0,0,1,1.608,2.019c.16.867-.336,1.859.048,2.674.276.586.975.989.984,1.636a2.4,2.4,0,0,1-.2.768c-.443,1.351.159,2.8.743,4.093a1.906,1.906,0,0,0,.435.681,1.934,1.934,0,0,0,.775.344l.806.222a.953.953,0,0,0,.444.049.7.7,0,0,0,.476-.543A.476.476,0,0,1,600.136,293.248Z" transform="translate(-588.58 -280.184)"/>
      </g>
      <path id="Path_10340" data-name="Path 10340" d="M629.295,797.176a12.871,12.871,0,0,1-2.3-1.7c-.2-.411-3.16,2.406-3.16,2.406a12.6,12.6,0,0,1-2.32,1.646c-.773.3-1.284,1.489-.225,1.587s5.165.159,5.165.159l3.532-.456,2.2-.389-.417-3.251S629.481,797.625,629.295,797.176Z" transform="translate(-533.703 -673.914)" fill="#cc8294"/>
      <path id="Path_10341" data-name="Path 10341" d="M665.751,801.819s-1.862-1.746-2.625-1.333a19.727,19.727,0,0,0-2.557,2.206s-1.694,1.41-2.149,1.727-.992,1.389,0,1.567,10.039-1.151,10.039-1.151-.113-3.3-.417-3.349S666.415,802.176,665.751,801.819Z" transform="translate(-564.977 -678.113)" fill="#cc8294"/>
      <path id="Path_10342" data-name="Path 10342" d="M715.961,408.109l.159,8.838-4.022,5.192-.941,1.322s-2.87,5.873-6.547,4.074a1.415,1.415,0,0,1-.941-1.162h0a1.274,1.274,0,0,1,0-.2c.187-2.208,5.517-5.452,5.517-5.452s3.862-6.719,4.127-6.836a26.072,26.072,0,0,0,1.481-3.692l.53-2.563a7.012,7.012,0,0,1,.932-.2Z" transform="translate(-603.511 -347.496)" opacity="0.1"/>
      <path id="Path_10343" data-name="Path 10343" d="M714.341,405.127l-.529,2.563a26.088,26.088,0,0,1-1.482,3.692c-.265.117-4.127,6.836-4.127,6.836s-8.253,5.027-4.579,6.825,6.549-4.074,6.549-4.074l.941-1.322,6.4-8.269s3.068-3.111,1.746-5.227S714.341,405.127,714.341,405.127Z" transform="translate(-602.685 -345.321)" fill="#febfba"/>
      <path id="Path_10344" data-name="Path 10344" d="M749.019,324.5l1.428,1.059a1.98,1.98,0,0,1,.9,2.063c-.318,1.328.476,1.746.476,1.746a4.388,4.388,0,0,0,.476,1.511c.424.817.794,1.746,0,2.154s-5.819.409-5.819.409.37-.336-.793-1.755-2.487-3.066-2.594-4.068-1.533-3.7-1.375-4.444-.051-3.463-.013-4.163.752-2.635,1.387-2.463,2.911-1.129,4.392,1.746A15.929,15.929,0,0,1,749.019,324.5Z" transform="translate(-635.51 -270.912)" opacity="0.1"/>
      <path id="Path_10345" data-name="Path 10345" d="M750.019,323.5l1.428,1.059a1.98,1.98,0,0,1,.9,2.063c-.317,1.328.476,1.746.476,1.746a4.391,4.391,0,0,0,.476,1.511c.424.817.794,1.746,0,2.154s-5.819.409-5.819.409.37-.336-.794-1.755-2.487-3.066-2.594-4.068-1.533-3.7-1.375-4.444-.051-3.463-.013-4.163.752-2.635,1.387-2.463,2.911-1.129,4.392,1.746A15.927,15.927,0,0,1,750.019,323.5Z" transform="translate(-636.352 -270.071)" fill="#ff718d"/>
      <path id="Path_10346" data-name="Path 10346" d="M457.981,251.474a7.6,7.6,0,0,0-1.1,2.26,15.792,15.792,0,0,0-.367,6.39l-4.682-2.143s-3.809-3.333-1.667-4.881a4.518,4.518,0,0,0,1.616-1.981,3.219,3.219,0,0,0,.249-1.511S460.362,248.22,457.981,251.474Z" transform="translate(-389.697 -214.476)" fill="#d38884"/>
      <path id="Path_10347" data-name="Path 10347" d="M470.011,251.469a7.6,7.6,0,0,0-1.1,2.26h-.129a6.032,6.032,0,0,1-4.971-2.616,3.219,3.219,0,0,0,.249-1.511S472.392,248.215,470.011,251.469Z" transform="translate(-401.726 -214.472)" opacity="0.1"/>
      <path id="Path_10348" data-name="Path 10348" d="M469.192,206.242a6.031,6.031,0,1,1-3.51-5.471A6.031,6.031,0,0,1,469.192,206.242Z" transform="translate(-396.106 -173.173)" fill="#d38884"/>
      <path id="Path_10349" data-name="Path 10349" d="M469.208,206.192a6.019,6.019,0,0,1-.365,2.073h-.01a3.721,3.721,0,0,1-1.07-.894l-1.467-1.576a1.619,1.619,0,0,0-1.078-.665c-.217,0-.448.081-.643-.014s-.276-.349-.368-.557a1.83,1.83,0,0,0-1.66-1.024.877.877,0,0,0-.843.359,4.527,4.527,0,0,1-.757,1.111,1.787,1.787,0,0,1-1.428.521.494.494,0,0,0-.386.033.373.373,0,0,0-.108.2c-.1.4-.073.832-.144,1.243a1.191,1.191,0,0,1-.686.976.962.962,0,0,1-.822-.159,6.031,6.031,0,1,1,11.837-1.641Z" transform="translate(-396.123 -173.123)" opacity="0.1"/>
      <path id="Path_10350" data-name="Path 10350" d="M455.632,190.519c.092.21.159.457.368.559s.425.013.643.014a1.62,1.62,0,0,1,1.078.665l1.467,1.576a3.7,3.7,0,0,0,1.071.892,1.13,1.13,0,0,0,1.673-1.327,5.181,5.181,0,0,0-.514-1.251,2.551,2.551,0,0,1-.337-1.3,3.406,3.406,0,0,1,.419-1.163,3.487,3.487,0,0,0,.3-2.779,3.615,3.615,0,0,0-1.348-1.467,2.193,2.193,0,0,0-1.244-.5c-.536.011-1,.378-1.536.454a2.311,2.311,0,0,1-1.014-.127c-.74-.235-1.429-.635-2.165-.859a5.36,5.36,0,0,0-2.2-.211,1.39,1.39,0,0,0-.855.325,2.473,2.473,0,0,0-.421.86,2.509,2.509,0,0,1-.9,1.121c-.443.3-.971.452-1.428.722a1.546,1.546,0,0,0-.871,1.259q.043.325.117.644a2.063,2.063,0,0,1-.381,1.376c-.29.448-.7.924-.573,1.441.092.367.427.606.676.89.3.343.484.775.775,1.127a1.141,1.141,0,0,0,1.194.476,1.186,1.186,0,0,0,.686-.975c.071-.411.041-.838.144-1.243a.393.393,0,0,1,.108-.206c.1-.084.254-.051.386-.032a1.787,1.787,0,0,0,1.428-.521,4.7,4.7,0,0,0,.759-1.111.872.872,0,0,1,.841-.357,1.832,1.832,0,0,1,1.657,1.021Z" transform="translate(-387.547 -159.248)" fill="#1e1637"/>
      <g id="Group_10482" data-name="Group 10482" transform="translate(59.404 27.849)" opacity="0.1">
        <path id="Path_10351" data-name="Path 10351" d="M452.456,209.729c-.021-.144-.062-.286-.089-.429a1.008,1.008,0,0,0-.029.26,4.768,4.768,0,0,0,.111.609A1.643,1.643,0,0,0,452.456,209.729Z" transform="translate(-451.48 -208.662)"/>
        <path id="Path_10352" data-name="Path 10352" d="M536.351,206.9a3.444,3.444,0,0,0-.419,1.163,1.493,1.493,0,0,0,.014.367,3.951,3.951,0,0,1,.4-1.054,4.246,4.246,0,0,0,.476-2.092A4.742,4.742,0,0,1,536.351,206.9Z" transform="translate(-521.801 -205.28)"/>
        <path id="Path_10353" data-name="Path 10353" d="M461.565,222.045a1.265,1.265,0,0,1-1.327.083,3.7,3.7,0,0,1-1.07-.892L457.7,219.66a1.62,1.62,0,0,0-1.078-.665c-.217,0-.448.081-.643-.014s-.276-.349-.368-.559a1.832,1.832,0,0,0-1.66-1.022.879.879,0,0,0-.843.357,4.5,4.5,0,0,1-.757,1.111,1.787,1.787,0,0,1-1.428.521c-.132-.019-.283-.052-.386.032a.383.383,0,0,0-.108.206c-.1.4-.073.832-.144,1.243a1,1,0,0,1-1.879.5c-.29-.344-.476-.784-.776-1.127a2.585,2.585,0,0,1-.665-.86.849.849,0,0,0-.009.446c.09.367.427.606.675.89.3.343.486.775.776,1.127a1.141,1.141,0,0,0,1.194.476,1.186,1.186,0,0,0,.686-.975c.071-.411.041-.838.144-1.243a.383.383,0,0,1,.108-.206c.1-.084.254-.051.386-.032a1.787,1.787,0,0,0,1.428-.521,4.648,4.648,0,0,0,.757-1.111.876.876,0,0,1,.843-.357,1.832,1.832,0,0,1,1.66,1.022c.092.21.159.457.368.559s.425.013.643.014a1.62,1.62,0,0,1,1.078.665l1.467,1.576a3.716,3.716,0,0,0,1.07.892,1.265,1.265,0,0,0,1.327-.083,1.293,1.293,0,0,0,.359-1.165,1.111,1.111,0,0,1-.359.689Z" transform="translate(-446.931 -215.476)"/>
      </g>
      <path id="Path_10354" data-name="Path 10354" d="M430.316,790.286l-.186,3.941s5.741-.079,6.719.424,6.931.476,6.931.476,2.751-1.032,1.217-2.09a9.807,9.807,0,0,0-4.285-1.163,24.663,24.663,0,0,0-2.7-3.254c-.422-.132-1.19-.873-1.667.132a7.113,7.113,0,0,1-1.794,2.011Z" transform="translate(-373.393 -667.858)" fill="#4c4981"/>
      <path id="Path_10355" data-name="Path 10355" d="M374.674,471.677c-.687,2.909-3.757,15.607-3.757,15.607a3.525,3.525,0,0,0-1.057,2.17,5.684,5.684,0,0,1-.689,2.381s.371,11.428-.529,14.391c-.867,2.857-.065,2.714,0,2.7l-2.584,2.114-4.762.052s.211-3.651.37-3.968,1.27-2.009.582-3.12.211-12.275.952-13.7,0-5.079,0-5.079a13.369,13.369,0,0,0-.794,2.752c-.213,1.374-1.959,3.492-1.959,3.755,0,3.617-4.444,12.169-4.444,12.169s-1.587,5.4-1.163,6.4-.424,2.063-1,1.8-5.238,0-5.238,0-.106-3.174,0-3.439a11.608,11.608,0,0,1,1.216-1.376c-.37-2.909,2.222-14.444,3.757-16.083s1.844-5.025,1.844-5.025,1.428.213.929-.476,1.135-4.231,1.135-4.231-.53-4.974,0-6.3a6.4,6.4,0,0,0,.422-2.751,17.415,17.415,0,0,1,.344-3.7c.29-.635-.027-2.327,0-3.227.021-.694.01-2.206,0-2.857v-.317l.4-2.487,1.8-4.655L367,456.7l4.92.952s2.8,2.909,3.6,5.025a4.361,4.361,0,0,1,.21.817C376.093,465.717,375.288,469.11,374.674,471.677Z" transform="translate(-304.763 -387.659)" fill="#c4e0ff"/>
      <path id="Path_10356" data-name="Path 10356" d="M345.568,805.1s-3.227-.292-3.6,1.163-.819,4.154-.819,4.154-.5,1.508,2.751,1.64,3.2-.424,3.2-.424a21.583,21.583,0,0,1,.1-3.057,13.013,13.013,0,0,0,.159-2.235S346.817,804.549,345.568,805.1Z" transform="translate(-298.513 -681.962)" fill="#4c4981"/>
      <path id="Path_10357" data-name="Path 10357" d="M427.13,463.5c-.043,1.255-.1,2.3-.1,2.3s-2.279.04-2.232-6.071c0,0-.506,4.643-1.062,4.762s-.794-.714-2.7-.6-4.325-.833-4.6-1.786-3.651-3.571-4.166-3.452-.635,2.063-.635,2.063a8.792,8.792,0,0,0-1.981,1.9v-.317l.4-2.487,1.8-4.655,6.561,1.535,4.92.952s2.8,2.909,3.6,5.025A4.362,4.362,0,0,1,427.13,463.5Z" transform="translate(-356.163 -387.659)" opacity="0.1"/>
      <path id="Path_10358" data-name="Path 10358" d="M416.928,305.063s-2.279.04-2.232-6.071c0,0-.506,4.643-1.062,4.762s-.794-.714-2.7-.6-4.325-.833-4.6-1.786-3.651-3.571-4.166-3.452-.635,2.063-.635,2.063a8.971,8.971,0,0,0-1.984,1.9c-.4.754-.278-1.389,0-2.778a22.637,22.637,0,0,0,0-5.436c-.159-1.23-.794-4.365-.256-6.547s-.21-6.984-.21-6.984.051-3.135,0-5.079-2.233-2.7-1.122-4.762a20.984,20.984,0,0,1,4.008-4.523s2.024.238,2.9-.516a1.83,1.83,0,0,1,.286-.2,6.892,6.892,0,0,1,2.7-.584l2.933,3a30.161,30.161,0,0,1,1.548,3.809.431.431,0,0,1,0,.1l.5-2.947s2.111.794,2.111,1.946v1.865a18.7,18.7,0,0,0,.952,2.976c.476.952-.238,10.277-.238,10.277a21.3,21.3,0,0,1,.04,4.087,12.336,12.336,0,0,0,.362,3.69s.551,4.523.868,5.4S416.928,305.063,416.928,305.063Z" transform="translate(-346.065 -227.235)" fill="#6574ff"/>
      <path id="Path_10359" data-name="Path 10359" d="M450.749,558s-.741,4.258-2.063,6.163a64.046,64.046,0,0,0-3.385,6.165" transform="translate(-386.155 -474.168)" opacity="0.1"/>
      <rect id="Rectangle_1489" data-name="Rectangle 1489" width="9.093" height="3.703" rx="1.851" transform="translate(57.585 31.826)" fill="#3a3768"/>
      <circle id="Ellipse_3209" data-name="Ellipse 3209" cx="0.384" cy="0.384" r="0.384" transform="translate(64.52 33.295)" fill="#e6e8ec"/>
      <path id="Path_10360" data-name="Path 10360" d="M395.721,278.034s-3.122.952-4.206.238-3.135-3.809-3.135-3.809.592-4.357,1.111-4.516.254,4.127.254,4.127.741,1.654,1.019,1.654,2.182-.238,2.421-.714a27.022,27.022,0,0,0,.635-3.412l.317-1.428,1.587.992,1.23,3.049Z" transform="translate(-338.269 -231.831)" fill="#656fff"/>
      <path id="Path_10361" data-name="Path 10361" d="M395.9,241.346a2.261,2.261,0,0,1-2.381-2.381,21.717,21.717,0,0,1,.371-3.847c.278-.476,2.9-3.968,2.9-3.968s8.293-4.4,7.42-.952a5.316,5.316,0,0,1-4.285,3.889l-1.548-.794-.04,5S397.985,241.2,395.9,241.346Z" transform="translate(-342.589 -197.282)" fill="#d38884"/>
      <path id="Path_10362" data-name="Path 10362" d="M412.816,622.17s-.476,1.057,1.27,1.374S412.816,622.17,412.816,622.17Z" transform="translate(-358.776 -528.152)" opacity="0.1"/>
      <path id="Path_10363" data-name="Path 10363" d="M400.13,649.5s.159,2.063,1.059,2.487S400.13,649.5,400.13,649.5Z" transform="translate(-348.154 -551.145)" opacity="0.1"/>
      <path id="Path_10364" data-name="Path 10364" d="M444.932,680.83a1.5,1.5,0,0,0,.5,1.641C446.28,683.054,444.932,680.83,444.932,680.83Z" transform="translate(-385.787 -577.502)" opacity="0.1"/>
      <path id="Path_10365" data-name="Path 10365" d="M445.284,672.5a1.539,1.539,0,0,0,1.349,1.587" transform="translate(-386.138 -570.494)" opacity="0.1"/>
      <path id="Path_10366" data-name="Path 10366" d="M441.46,710.5s.976,1.27,1.282,1.163S441.46,710.5,441.46,710.5Z" transform="translate(-382.924 -602.463)" opacity="0.1"/>
      <path id="Path_10367" data-name="Path 10367" d="M476.567,811.431s-3.227-.159-2.433.635,2.433-.318,2.433-.318Z" transform="translate(-410.307 -687.364)" opacity="0.1"/>
      <path id="Path_10368" data-name="Path 10368" d="M350.8,825.62s4.073-.717,3.809,0S350.8,825.62,350.8,825.62Z" transform="translate(-306.654 -699.043)" opacity="0.1"/>
      <path id="Path_10369" data-name="Path 10369" d="M411.13,330.311s2.635.37,3.7-.37,1.381.476.635,1.057S411.13,330.311,411.13,330.311Z" transform="translate(-357.408 -282.111)" opacity="0.1"/>
      <path id="Path_10370" data-name="Path 10370" d="M413.46,352.164c.848.106.66,1.111,2.182.211S413.46,352.164,413.46,352.164Z" transform="translate(-359.368 -300.79)" opacity="0.1"/>
      <path id="Path_10371" data-name="Path 10371" d="M415.38,372.333s3.584.582,4.285-1.163" transform="translate(-360.984 -316.991)" opacity="0.1"/>
      <path id="Path_10372" data-name="Path 10372" d="M452.1,272.3v.127l-7.174-6.349a6.892,6.892,0,0,1,2.7-.584l2.933,3A30.222,30.222,0,0,1,452.1,272.3Z" transform="translate(-385.843 -228.085)" opacity="0.1"/>
      <path id="Path_10373" data-name="Path 10373" d="M452.1,271.3v.127l-7.174-6.349a6.892,6.892,0,0,1,2.7-.584l2.933,3A30.224,30.224,0,0,1,452.1,271.3Z" transform="translate(-385.843 -227.243)" fill="#6584ff"/>
      <path id="Path_10374" data-name="Path 10374" d="M408.46,300.853s4.233-.363,4.285-3.833C412.745,297.017,413.466,300.905,408.46,300.853Z" transform="translate(-355.162 -254.61)" opacity="0.1"/>
      <circle id="Ellipse_3210" data-name="Ellipse 3210" cx="0.338" cy="0.338" r="0.338" transform="translate(66.002 43.841)" fill="#fff"/>
    </g>
  </g>
</svg>
