<svg xmlns="http://www.w3.org/2000/svg" width="55.807" height="52.738" viewBox="0 0 55.807 52.738">
  <g id="Group_10619" data-name="Group 10619" transform="translate(-951 -172)">
    <path id="Icon" d="M221.807,22.091l-20.091-1.674L193.9,2l-7.813,18.416L166,22.091l15.347,13.115-4.465,19.532,17.3-10.324,17.3,10.324-4.465-19.532Zm-27.9,17.3-10.6,6.418,2.79-12-9.208-8.092L189.16,24.6,193.9,13.44,198.647,24.6l12.278,1.116-9.208,8.092,2.79,12Z" transform="translate(785 170)" fill="#ffae21"/>
    <path id="Icon-2" data-name="Icon" d="M203.076,15.347l-13.347-1.112L184.538,2l-5.191,12.235L166,15.347l10.2,8.713L173.23,37.037l11.494-6.859,11.494,6.859L193.251,24.06ZM184.538,26.841,177.494,31.1l1.854-7.971-6.118-5.376,8.157-.742L184.538,9.6l3.151,7.415,8.157.742-6.118,5.376,1.854,7.971Z" transform="translate(794 180)" fill="#ffae21"/>
    <path id="Icon-3" data-name="Icon" d="M203.076,15.347l-13.347-1.112L184.538,2l-5.191,12.235L166,15.347l10.2,8.713L173.23,37.037l11.494-6.859,11.494,6.859L193.251,24.06ZM184.538,26.841,177.494,31.1l1.854-7.971-6.118-5.376,8.157-.742L184.538,9.6l3.151,7.415,8.157.742-6.118,5.376,1.854,7.971Z" transform="translate(794 180)" fill="#ffae21"/>
    <path id="Icon-4" data-name="Icon" d="M193.88,12.037,183.844,11.2,179.94,2l-3.9,9.2L166,12.037l7.667,6.552-2.23,9.758,8.643-5.158,8.643,5.158-2.23-9.758ZM179.94,20.68l-5.3,3.206,1.394-5.994-4.6-4.043,6.134-.558,2.37-5.576,2.37,5.576,6.134.558-4.6,4.043,1.394,5.994Z" transform="translate(939.357 25.771) rotate(72)" fill="#ffae21"/>
    <circle id="Ellipse_3346" data-name="Ellipse 3346" cx="11" cy="11" r="11" transform="translate(970 191)" fill="#ffae21"/>
  </g>
</svg>
