<svg xmlns="http://www.w3.org/2000/svg" width="214" height="205" viewBox="0 0 214 205">
  <g id="Group_10663" data-name="Group 10663" transform="translate(-37 -460)">
    <ellipse id="Ellipse_3195" data-name="Ellipse 3195" cx="107" cy="102.5" rx="107" ry="102.5" transform="translate(37 460)" fill="#4bb882"/>
    <g id="undraw_adjustments_p22m" transform="translate(56.46 509.927)">
      <ellipse id="Ellipse_3191" data-name="Ellipse 3191" cx="28.949" cy="5.387" rx="28.949" ry="5.387" transform="translate(41.208 117.3)" fill="#f2f2f2"/>
      <rect id="Rectangle_1475" data-name="Rectangle 1475" width="154.367" height="83.12" transform="translate(11.522 14.97)" fill="#f2f2f2"/>
      <rect id="Rectangle_1476" data-name="Rectangle 1476" width="14.588" height="17.913" transform="translate(151.3 80.177)" fill="#3f3d56"/>
      <path id="Path_10176" data-name="Path 10176" d="M1004.989,564.846c0,3.479-2.068,4.694-4.619,4.694s-4.619-1.215-4.619-4.694,4.619-7.9,4.619-7.9S1004.989,561.367,1004.989,564.846Z" transform="translate(-841.186 -474.764)" fill="#ff6363"/>
      <path id="Path_10177" data-name="Path 10177" d="M926.4,496.507l.047-2.912,1.969-3.6-1.961,3.145.021-1.309,1.357-2.606-1.351,2.26h0l.038-2.355,1.453-2.075-1.447,1.7.024-4.318-.15,5.716.012-.236-1.477-2.261,1.454,2.714-.138,2.63,0-.07-1.7-2.38,1.7,2.626-.017.329,0,0v.027l-.349,6.672h.467l.056-3.446,1.694-2.62Z" transform="translate(-767.386 -402.264)" fill="#3f3d56"/>
      <path id="Path_10178" data-name="Path 10178" d="M201.232,79.964a3.732,3.732,0,1,1,3.732-3.732A3.732,3.732,0,0,1,201.232,79.964Zm0-7.125a3.393,3.393,0,1,0,3.393,3.393A3.393,3.393,0,0,0,201.232,72.839Z" transform="translate(-178.345 -72.5)" fill="#3f3d56"/>
      <circle id="Ellipse_3192" data-name="Ellipse 3192" cx="2" cy="2" r="2" transform="translate(0.54 20.073)" fill="#3f3d56"/>
      <circle id="Ellipse_3193" data-name="Ellipse 3193" cx="2" cy="2" r="2" transform="translate(170.54 36.073)" fill="#3f3d56"/>
      <rect id="Rectangle_1477" data-name="Rectangle 1477" width="112.637" height="1.018" transform="translate(32.471 31.934)" fill="#3f3d56"/>
      <rect id="Rectangle_1478" data-name="Rectangle 1478" width="112.637" height="1.018" transform="translate(32.471 41.094)" fill="#3f3d56"/>
      <rect id="Rectangle_1479" data-name="Rectangle 1479" width="112.637" height="1.018" transform="translate(32.471 50.254)" fill="#3f3d56"/>
      <rect id="Rectangle_1480" data-name="Rectangle 1480" width="2.714" height="8.482" transform="translate(51.64 28.202)" fill="#ff6363"/>
      <rect id="Rectangle_1481" data-name="Rectangle 1481" width="2.714" height="8.482" transform="translate(82.513 37.362)" fill="#ff6363"/>
      <rect id="Rectangle_1482" data-name="Rectangle 1482" width="2.714" height="8.482" transform="translate(135.439 46.522)" fill="#ff6363"/>
      <rect id="Rectangle_1483" data-name="Rectangle 1483" width="40.034" height="1.018" transform="translate(32.471 71.289)" fill="#3f3d56"/>
      <rect id="Rectangle_1484" data-name="Rectangle 1484" width="20.017" height="1.018" transform="translate(32.471 75.02)" fill="#3f3d56"/>
      <path id="Path_10179" data-name="Path 10179" d="M194.776,469.526H188.5V463.25h6.107v.339h-5.768v5.6h5.6V466h.339Z" transform="translate(-156.198 -384.667)" fill="#3f3d56"/>
      <rect id="Rectangle_1485" data-name="Rectangle 1485" width="40.034" height="1.018" transform="translate(105.075 71.289)" fill="#3f3d56"/>
      <rect id="Rectangle_1486" data-name="Rectangle 1486" width="12.892" height="1.018" transform="translate(105.075 75.02)" fill="#3f3d56"/>
      <rect id="Rectangle_1487" data-name="Rectangle 1487" width="12.892" height="1.018" transform="translate(132.216 75.02)" fill="#3f3d56"/>
      <path id="Path_10180" data-name="Path 10180" d="M709.276,542.026H703V535.75h6.276Zm-5.937-.339h5.6v-5.6h-5.6Z" transform="translate(-598.095 -457.167)" fill="#3f3d56"/>
      <path id="Path_10181" data-name="Path 10181" d="M356.222,322.6h-4.454v-2.181h3.727l.818.454Z" transform="translate(-291.77 -266.064)" fill="#575a89"/>
      <path id="Path_10182" data-name="Path 10182" d="M332.478,684.8l.182,3.272,2.727-.545-.455-3.272Z" transform="translate(-275.753 -568.182)" fill="#ffb9b9"/>
      <path id="Path_10183" data-name="Path 10183" d="M493.946,746.343a16.642,16.642,0,0,1-.182,3.454c-.273.727.727,1.091.727,1.091h2.182l1.273.182v-1.363s-1.454-2.272-1.454-3.545S493.946,746.343,493.946,746.343Z" transform="translate(-424.314 -631.453)" fill="#ffb9b9"/>
      <path id="Path_10184" data-name="Path 10184" d="M416.318,773.568s1.818-.859,2.454-.339,3,4.974,2.091,5.247c0,0-.636,1.091-2.818.364s-2.182-1.545-2.182-1.545-.636-.545-.636-.727.273-1.818.273-1.818.2-1.369.51-1.275Z" transform="translate(-359.138 -654.224)" fill="#2f2e41"/>
      <path id="Path_10185" data-name="Path 10185" d="M490.737,767.414s-.273-.273-.454,0-1.182,3.727-.273,3.909,2.272.818,2.454.636a2.492,2.492,0,0,0,.364-.636,7.152,7.152,0,0,1,1.909,1.182c.454.545,5.908,1.727,5.726,0s-2.909-3.181-2.909-3.181l-3-2s-1.182.091-1.454.636S490.919,768.414,490.737,767.414Z" transform="translate(-420.923 -649.432)" fill="#2f2e41"/>
      <path id="Path_10186" data-name="Path 10186" d="M335.024,473.872s-1,1.273-.818,1.363,4.181,1,6.363.454,6.726-.454,7-1.091,3.636-8.544,3.636-8.544l-1.091-6-1.182-1.545-2.727-2.363-5.454,10.18Z" transform="translate(-291.843 -391.068)" fill="#575a89"/>
      <path id="Path_10187" data-name="Path 10187" d="M335.024,473.872s-1,1.273-.818,1.363,4.181,1,6.363.454,6.726-.454,7-1.091,3.636-8.544,3.636-8.544l-1.091-6-1.182-1.545-2.727-2.363-5.454,10.18Z" transform="translate(-291.843 -391.068)" opacity="0.1"/>
      <path id="Path_10188" data-name="Path 10188" d="M404.421,538.432a25.2,25.2,0,0,0,0,10.817c1.273,6.272.091,7.635.364,7.908s.364.182.364.454.273,1.545,0,2-.273,14.907.545,15.271,3.181,1.273,3.636,0,.091-10.453.273-10.908a6.82,6.82,0,0,0,.182-1.818c0-.273.545-3.363.636-4.181s.364-2.454.364-2.454-.182-6.454.364-8.362a8.063,8.063,0,0,1,.727-2.091l4.363,11.362s-.364,1.182,0,1.545-.091.273.273.909.727.818.727,1.182-.364.364-.182.636a7.438,7.438,0,0,1,.454,1.273l-.454,1.091a33.9,33.9,0,0,0,.636,3.636c.364,1.363.364,6.908.818,7s4,1.091,4-1-.273-11.18-.273-11.18a9.8,9.8,0,0,1-.545-1.727c0-.364-.091-.545.091-.727a.575.575,0,0,0,.091-.818c-.273-.273-.182-.636-.182-1a7.955,7.955,0,0,0-.182-1.454c-.091-.364-1.818-11.726-1.818-11.726s.364-1.363,0-1.454-.364-.818-.364-1.182.909-4.908-.182-4.908S404.421,538.432,404.421,538.432Z" transform="translate(-349.695 -457.809)" fill="#2f2e41"/>
      <path id="Path_10189" data-name="Path 10189" d="M315.282,515.626l-1.273.636s-4.545,2.454-2.545,3.818,4-1.909,4-1.909l1.909-1.454Z" transform="translate(-272.555 -440.457)" fill="#ffb9b9"/>
      <path id="Path_10190" data-name="Path 10190" d="M424.675,367.208s-.364,4.181-2.272,5.09-.636,7.726-.636,7.726l2.636,2.545,4.636-1.363.545-3.09.454-3.181-1.091-1.636s-1.363-.364-.818-4S424.675,367.208,424.675,367.208Z" transform="translate(-364.223 -316.945)" fill="#ffb9b9"/>
      <path id="Path_10191" data-name="Path 10191" d="M404.55,402.937s2.091,6.908,3.545,6.908,2.272-1.636,2.454-3.636a12.917,12.917,0,0,1,1.363-4.181l2.818,2.545s2.272,20.088,2.091,20.634-7.272,1.182-10.09,2-5.636.182-5.636-.273c0-.4,1.442-3.91.345-6.47a10.664,10.664,0,0,1-.805-2.863,14.117,14.117,0,0,1-.176-3.484c.273-.909,1.727-10.544,1.727-10.544Z" transform="translate(-346.825 -346.129)" fill="#ff6363"/>
      <path id="Path_10192" data-name="Path 10192" d="M351.361,392.555s-1.63.872-2.357,1.235-5.181,1.454-5.272,2,.636,8.181.273,9-4,8.09-4,8.09l-.182,1.545s-6,7.181-5.272,8,3.454-2.545,3.454-2.545,6.09-9.726,6.272-10.09,3.909-7.09,4.454-7.272,1.818-7.817,2-8.181S351.628,392.41,351.361,392.555Z" transform="translate(-292.097 -338.255)" fill="#895757"/>
      <path id="Path_10193" data-name="Path 10193" d="M342.7,411.137h-.545s-2,7.635-2.545,8.635a10.909,10.909,0,0,0-.727,2.909c-.091.273-.454.182-.545.818s-1,1.454-1.727,1.818a26.43,26.43,0,0,0-3.909,3.545c.091.091,1.091,3.272,1.727,3.272s3.181-3.09,3.454-3.09,1.454-1.091,1.636-1.182,4.818-8.635,4.636-10.726A37.722,37.722,0,0,0,342.7,411.137Z" transform="translate(-290.608 -353.693)" fill="#895757"/>
      <path id="Path_10194" data-name="Path 10194" d="M514.255,549.959l1.12.878s3.962,3.313,1.73,4.25-3.537-2.67-3.537-2.67l-1.579-1.807Z" transform="translate(-439.485 -468.966)" fill="#ffb9b9"/>
      <path id="Path_10195" data-name="Path 10195" d="M460.654,393.236a11.435,11.435,0,0,1,1.747,1.037c.545.454,4.727,1.636,4.727,2s-.454,6-.454,6l.636,10s.909,11.271,1.091,11.544.454,1.727,0,1.727-2.727-2.545-2.636-3.818.727-4.181.091-4.908-3.636-12.907-3.636-13.634-1.273-8-1.182-8.181A8.508,8.508,0,0,0,460.654,393.236Z" transform="translate(-396.859 -338.828)" fill="#895757"/>
      <path id="Path_10196" data-name="Path 10196" d="M489.89,410.6l1.363.091,3.363,13.725s.273,1.727.364,1.909,1.454,8.09.909,8.363-2.363,1.273-2.454.636-1-4.181-1.909-5-1.818-14.907-1.818-14.907Z" transform="translate(-420.985 -353.248)" fill="#895757"/>
      <circle id="Ellipse_3194" data-name="Ellipse 3194" cx="3.727" cy="3.727" r="3.727" transform="translate(59.725 45.264)" fill="#ffb9b9"/>
      <path id="Path_10197" data-name="Path 10197" d="M424.883,334.879a.653.653,0,0,1,.768.258,3.637,3.637,0,0,1,5.287-2.458V332.3a3.147,3.147,0,0,0-3.147-3.147h-.757a5.913,5.913,0,0,0-5.913,5.913v1.055a5.3,5.3,0,0,0,2.9,4.729l3.4-1.8a3.638,3.638,0,0,1-1.822-2.7.746.746,0,0,1-.874-.468A.733.733,0,0,1,424.883,334.879Z" transform="translate(-364.032 -285.616)" fill="#2f2e41"/>
      <path id="Path_10198" data-name="Path 10198" d="M195.583,465.985l1.852,2.091,4.048-3.968" transform="translate(-162.08 -385.38)" fill="none" stroke="#57b894" stroke-miterlimit="10" stroke-width="4"/>
    </g>
  </g>
</svg>
