<svg xmlns="http://www.w3.org/2000/svg" xmlns:xlink="http://www.w3.org/1999/xlink" width="214" height="205" viewBox="0 0 214 205">
  <defs>
    <linearGradient id="linear-gradient" x1="0.5" y1="1" x2="0.5" gradientUnits="objectBoundingBox">
      <stop offset="0" stop-color="gray" stop-opacity="0.251"/>
      <stop offset="0.54" stop-color="gray" stop-opacity="0.122"/>
      <stop offset="1" stop-color="gray" stop-opacity="0.102"/>
    </linearGradient>
    <linearGradient id="linear-gradient-2" x1="0" y1="0.5" x2="1" y2="0.5" xlink:href="#linear-gradient"/>
  </defs>
  <g id="Group_10665" data-name="Group 10665" transform="translate(-86 -1369)">
    <ellipse id="Ellipse_3211" data-name="Ellipse 3211" cx="107" cy="102.5" rx="107" ry="102.5" transform="translate(86 1369)" fill="#ebeb37"/>
    <g id="undraw_winners_ao2o" transform="translate(-16.457 1394)">
      <path id="Path_10773" data-name="Path 10773" d="M760.357,271.194a2.3,2.3,0,0,0-1.009-.442c-.387-.089-.781-.145-1.174-.207l-5.088-.734a5.993,5.993,0,0,0-1.558-.083,1.978,1.978,0,0,0-1.356.7,1.056,1.056,0,0,0-.236.661,1.744,1.744,0,0,0,.231.686,2.287,2.287,0,0,1,.126.3,6.928,6.928,0,0,0,.182.692.586.586,0,0,0,.087.136.225.225,0,0,1,0,.035c-.056.285.124.583.043.858-.07.236-.3.378-.444.575a.864.864,0,0,0-.021.953c.155.24.436.4.517.678.105.362-.18.711-.434.99a15.348,15.348,0,0,0-1.294,1.631,1.011,1.011,0,0,0-.207.486c-.023.36.322.676.262,1.033-.047.281-.322.453-.56.62a3.485,3.485,0,0,0-1.653,2.561,8.97,8.97,0,0,0-2-4.547,3.251,3.251,0,0,1-.742-1.164c-.045-.18-.054-.372-.116-.546-.207-.548-.864-.783-1.151-1.288-.207-.355-.207-.812-.463-1.124s-.659-.382-.88-.684a4.38,4.38,0,0,1-.281-.637,1.391,1.391,0,0,0-.382-.459,1.109,1.109,0,0,0-.1-.068.328.328,0,0,0,.109-.244c0-.242-.24-.4-.448-.521-.269-.153-.531-.318-.787-.49a1.841,1.841,0,0,0,.7-.577,1.9,1.9,0,0,0,.269-1.24,1.565,1.565,0,0,0-.37-.949c-.13-.138-.294-.238-.43-.368a3.017,3.017,0,0,1-.62-1.327,2.7,2.7,0,0,0-1.064-1.6c-.273-.159-.591-.234-.858-.4a.749.749,0,0,1-.4-.787c.062-.207.254-.349.384-.525a1.046,1.046,0,0,0-.263-1.447c-.153-.1-.341-.182-.372-.36a.657.657,0,0,1-.479-.508,1.96,1.96,0,0,1,0-.736q.081-.577.159-1.149a.748.748,0,0,0,.575,0,5.062,5.062,0,0,0,.62.81,8.1,8.1,0,0,1,1.447,2.511,1.511,1.511,0,0,0,.544.876c.105.06.225.091.329.155a1.227,1.227,0,0,1,.322.331c.248.329.5.655.742.984l.012.05a.289.289,0,0,0,.033.083.275.275,0,0,0,.178.091,3.012,3.012,0,0,0,2.273-.079c.6-.372.856-1.108,1.36-1.6.357-.349.864-.62.965-1.112a3.671,3.671,0,0,1-.355-.13c.1-.1.207-.223.347-.36a4.375,4.375,0,0,0,.55-.655,4.221,4.221,0,0,0,.413-.926q.6-1.7,1.2-3.408c.19-.537.38-1.079.62-1.6.248-.566.542-1.11.812-1.666a22.111,22.111,0,0,0,1.608-4.526,1.653,1.653,0,0,0,.064-.659,1.738,1.738,0,0,0-.587-.893,4.308,4.308,0,0,0-.88-.73,1.447,1.447,0,0,0-1.1-.178,1.6,1.6,0,0,0-.984,1.24,13.023,13.023,0,0,0-.128,1.653c-.074.8-.347,1.564-.413,2.362-.035.461,0,.928-.056,1.389a5.069,5.069,0,0,1-.62,1.711,11.078,11.078,0,0,1-2.672,3.294c-.126.105-.256.207-.38.32a1.983,1.983,0,0,1,.027-.269,1.622,1.622,0,0,0-.262.093.788.788,0,0,0-.031-.31c-.165-.494-.9-.62-1.033-1.122a2.286,2.286,0,0,1-.035-.376,9.582,9.582,0,0,0-.446-1.24,5.3,5.3,0,0,0-.207-1.193,3.333,3.333,0,0,0-.55-.62,2.433,2.433,0,0,1-.523-.986c-.027-.1-.052-.207-.081-.308a1.409,1.409,0,0,0-.074-.68c-.188-.467-.674-.767-.849-1.24-.136-.368-.076-.827-.335-1.112a1.209,1.209,0,0,0-.49-.3,10.9,10.9,0,0,0-2.949-.7,2.511,2.511,0,0,1-1.6-.479c-.473-.463-.5-1.3-1.05-1.653a1.254,1.254,0,0,0-1.556.362,1.967,1.967,0,0,0-.157.207,2.212,2.212,0,0,1-.043-.847c0-.07.014-.143.021-.207a4.133,4.133,0,0,0,2.24-1.769v.012l.025.064c.06.151.155.3.3.312h0a.413.413,0,0,0,.256-.093,2.123,2.123,0,0,0,.343-.3q.079-.087.149-.18a2.34,2.34,0,0,0,.244-.413,2.457,2.457,0,0,0,.207-.692c.037-.24.041-.486.083-.725a4.463,4.463,0,0,1,.151-.548c.021-.06.041-.12.06-.18s.045-.141.066-.207a4.786,4.786,0,0,0,.207-1.31V239.7a2.18,2.18,0,0,0-.694-1.54c-.355-.291-.827-.413-1.087-.808a3.847,3.847,0,0,1-.306-.916,2.067,2.067,0,0,0-1.624-1.461,1.808,1.808,0,0,0-1.285.353h0l-.029.023h0a2.067,2.067,0,0,0-.513.57,1.705,1.705,0,0,1-.727-.413c-.207-.192-.366-.434-.575-.62a1.478,1.478,0,0,0-1.471-.31,1.759,1.759,0,0,0-1.052,1.2,4.2,4.2,0,0,1-.331,1.271c-.184.277-.486.413-.7.665a1.253,1.253,0,0,0-.26.552h0a1.5,1.5,0,0,0-.035.345h0a.629.629,0,0,0,.012.153v.025a1.1,1.1,0,0,0,.035.167h0a1.446,1.446,0,0,0,.308.566,1.36,1.36,0,0,0,.5.36,2.021,2.021,0,0,0,.24.076l.246.056.087.021a4.121,4.121,0,0,0-.116,3.639,1.665,1.665,0,0,1-.021.174,14.286,14.286,0,0,0,.107,2.437,1.308,1.308,0,0,1-.151.928,1.757,1.757,0,0,1-.3.267c.112-.145.225-.287.341-.43a1.474,1.474,0,0,0-1.166-.3,5.4,5.4,0,0,0-2.273.694,2.545,2.545,0,0,1-1.467.558c-.312-.035-.62-.207-.924-.124a1.87,1.87,0,0,0-.473.281.641.641,0,0,1-.389.12,8.39,8.39,0,0,0-1.215-.994,9.568,9.568,0,0,1-1.209-1.3c-.67-.808-1.337-1.618-1.994-2.435a4.689,4.689,0,0,1-1.219-2.306,2.272,2.272,0,0,1-.014-.262,6.68,6.68,0,0,1,.157-1.24.619.619,0,0,0,0-.3c-.062-.207-.3-.283-.5-.329h0c.027-.159.045-.322.056-.477a36.236,36.236,0,0,1,.366-5.324,3.619,3.619,0,0,1,.858-1.833c.754-.763,2.017-.947,2.6-1.85a2.11,2.11,0,0,0-.316-2.48,3.13,3.13,0,0,0-2.435-.9,1.256,1.256,0,0,0-.709.19,1.507,1.507,0,0,0-.43.653l-.887,2.156a13.042,13.042,0,0,0-.649,1.732c-.248.905-.3,1.86-.5,2.774a7.211,7.211,0,0,1-.7,2.226c-.277.727-.577,1.447-.827,2.189-.062.186-.279.738-.413,1.24a.755.755,0,0,0-.141.105,3.732,3.732,0,0,0-.293.436c-.188.248-.494.38-.7.62s-.25.68.037.8a.843.843,0,0,0,.18.039.586.586,0,0,1,.5.818c-.045.322-.207.62-.234.942a2.543,2.543,0,0,0,.6,1.581,13.631,13.631,0,0,0,1.1,1.486c.291.327.62.62.913.934,1.118,1.149,2.007,2.492,3.011,3.741a8.294,8.294,0,0,0,1.226,1.286,9.23,9.23,0,0,0,.928.639l1.728,1.1a1.893,1.893,0,0,0,.653.308.868.868,0,0,0,.231,0c.01.052.019.1.031.153a9.1,9.1,0,0,1,.463,1.585c.033.552-.017,1.116.023,1.674.037.515.151,1.033.18,1.54a9.9,9.9,0,0,1-.413,2.893,17.254,17.254,0,0,1-1.24,4.09,2.4,2.4,0,0,0-.413,1.1.572.572,0,0,0,.012.145h0l-.31.176c-.091.052-.182.1-.265.157a2.212,2.212,0,0,0-.973.982c-.13.358-.07.767-.227,1.114a.493.493,0,0,1-.025.046c-.165.322-.494.562-.568.916h0c-.056.271.052.558,0,.827v.01a3,3,0,0,0-.112.413.491.491,0,0,0,.012.136.788.788,0,0,0,.248.4,1.656,1.656,0,0,0,.242.192q.132.087.273.161l.054.029c.079.041.157.081.238.118l.054.023c.093.041.188.079.283.112l.066.021c.074.025.151.048.227.066l.052.017.048.01.207.043.076.014q.136.023.279.037h.083c.07,0,.138.01.207.012h.378a2.316,2.316,0,0,0,.291-.027h.031c.087-.012.174-.027.26-.045l.066-.014c.081-.019.161-.037.242-.062l.043-.012c.1-.029.194-.06.289-.1a7.6,7.6,0,0,0,.955-.473c.207-.114.413-.229.62-.335a4.81,4.81,0,0,1,.471-.207,2.66,2.66,0,0,1,1.24-.207,4.859,4.859,0,0,1,.62.126q0,.034,0,.068.252,1.488.5,2.976a6.061,6.061,0,0,1,.856-.515,1.9,1.9,0,0,0-.11.465,1.845,1.845,0,0,0,0,.37.8.8,0,0,1-.058.568c-.072.1-.207.149-.246.256a.874.874,0,0,0-.021.337.537.537,0,0,1-.492.5.785.785,0,0,1-.312.922,1.091,1.091,0,0,0-.24.157.715.715,0,0,0-.138.312,5.522,5.522,0,0,1-1.618,2.66,5.205,5.205,0,0,0-.8.781,3.558,3.558,0,0,0-.362.713q-.827,2.021-1.678,4.045a8.971,8.971,0,0,0-.719,2.333c-.248,2.228-2.232,4.117-1.86,6.328a3.1,3.1,0,0,0,.645,1.511,3.8,3.8,0,0,0,1.653,1.015,30.1,30.1,0,0,0,4.948,1.3l2.629.539a11.5,11.5,0,0,0,1.567.248,10.252,10.252,0,0,1,1.9.145,5.909,5.909,0,0,0,1.143.3c.339.019.756-.054.957.223s.045.643.236.889c.306.391,1.052,0,1.385.368a1.714,1.714,0,0,1,.207.457.827.827,0,0,0,.207.26,1.753,1.753,0,0,1,.025.353,6.1,6.1,0,0,1-.3,1.41q-.372,1.259-.742,2.519a5.575,5.575,0,0,0-.207.909,2.179,2.179,0,0,0,0,.451,1.238,1.238,0,0,0,.742,1.077,1.36,1.36,0,0,0,1-.124,4.44,4.44,0,0,0,.827-.558,5.643,5.643,0,0,0,1.192-1.228c1.033-1.546.7-3.637,1.424-5.347.482-1.141,1.42-2.067,1.732-3.27a1.309,1.309,0,0,0,.025-.707,1.465,1.465,0,0,0-.982-.8h-.019a8.477,8.477,0,0,0-1.033-.3c-.087-.019-.176-.033-.265-.048a1.621,1.621,0,0,1-.457-.6,1.382,1.382,0,0,0-.1-.358.372.372,0,0,0-.3-.165c-.207-.021-.484.054-.709.037-.461-.033-.767-.486-1.18-.694a2.41,2.41,0,0,0-1.3-.126,1.2,1.2,0,0,1-.471-.029,1.771,1.771,0,0,1-.5-.341,2.079,2.079,0,0,0-1.821-.366,1.982,1.982,0,0,1-.62.141c-.4-.023-.688-.382-.986-.655a11.837,11.837,0,0,0-2.962-1.432.676.676,0,0,1-.355-.306c-.114-.281.143-.562.374-.754l1.7-1.412c1.86-1.546,4.185-2.709,5.049-4.977a2.88,2.88,0,0,1,.413-.849,1.153,1.153,0,0,1,.229-.207,1.736,1.736,0,0,1,1.271-.248,4.293,4.293,0,0,1,1.5.653q1.11.672,2.16,1.447a19.117,19.117,0,0,1,1.974,1.62c1.085,1.033,1.988,2.259,3,3.373a9.633,9.633,0,0,0,3.569,2.687,4.593,4.593,0,0,0,4.3-.384c1.391-1.033,1.837-2.881,2.189-4.576a7.394,7.394,0,0,0,1.387-2.893c.238-.639.542-1.24.8-1.877.306-.748.546-1.521.785-2.292a11.018,11.018,0,0,0,.55-2.391c.1-1.288-.246-2.658.116-3.867a14.246,14.246,0,0,0,1.381-.531,6.841,6.841,0,0,1,2.187-.188h.048a1.129,1.129,0,0,0,.727-.172,1.159,1.159,0,0,0,.3-.88A2.687,2.687,0,0,0,760.357,271.194ZM730.412,235.94a1.535,1.535,0,0,1-.523.037Z" transform="translate(-471.717 -205.07)" fill="url(#linear-gradient)"/>
      <path id="Path_10774" data-name="Path 10774" d="M791.939,313.3a2.273,2.273,0,0,1-.86.457l-1.465.525a5.459,5.459,0,0,1-2.466.469c-.469-.058-2.48-.353-2.784-.719-.463-.566,1.159-1.4,1.713-1.877a2.339,2.339,0,0,0,.347-.306,1.246,1.246,0,0,0,.151-.924,14.263,14.263,0,0,1-.107-2.432,4.909,4.909,0,0,1,.083-.577c.207-.951,1.091-.6,1.79-.351a14,14,0,0,1,2.428,1.052,1.742,1.742,0,0,1,.6.508,2.583,2.583,0,0,1,.134,1.653,1.549,1.549,0,0,0,.242,1.215,3.128,3.128,0,0,1,.391.413A.775.775,0,0,1,791.939,313.3Z" transform="translate(-532.43 -269.354)" fill="#be6f72"/>
      <path id="Path_10775" data-name="Path 10775" d="M715.559,235.651c.207-.916.252-1.86.5-2.767a12.946,12.946,0,0,1,.649-1.726l.911-2.127a1.5,1.5,0,0,1,.43-.651,1.273,1.273,0,0,1,.709-.19,3.158,3.158,0,0,1,2.435.9,2.087,2.087,0,0,1,.316,2.466c-.579.9-1.841,1.085-2.6,1.846a3.614,3.614,0,0,0-.858,1.829,36.023,36.023,0,0,0-.366,5.309,1.76,1.76,0,0,1-.62,1.467,1.808,1.808,0,0,1-.926.18l-1.356.023c-.227,0-1.052.143-1.2-.029-.265-.3.339-1.792.448-2.125.244-.738.544-1.457.827-2.182A7.256,7.256,0,0,0,715.559,235.651Z" transform="translate(-476.291 -206.601)" fill="#be6f72"/>
      <path id="Path_10776" data-name="Path 10776" d="M832.227,571.306c-.312,1.195-1.25,2.125-1.732,3.263-.725,1.705-.4,3.79-1.424,5.332a5.633,5.633,0,0,1-1.192,1.23,4.428,4.428,0,0,1-.827.556,1.36,1.36,0,0,1-1,.124,1.237,1.237,0,0,1-.742-1.075,2.177,2.177,0,0,1,0-.448,5.564,5.564,0,0,1,.207-.907q.372-1.254.742-2.513a6.085,6.085,0,0,0,.3-1.405c.027-.521-.3-1.2-.163-1.684.064-.219.3-.413.413-.6a3.458,3.458,0,0,0,.355-.845,5.257,5.257,0,0,1,.641-1.678,3.941,3.941,0,0,1,.806-.754,2.137,2.137,0,0,1,.769-.432,1.884,1.884,0,0,1,.827.039,8.1,8.1,0,0,1,1.033.294h.019a1.447,1.447,0,0,1,.982.8A1.3,1.3,0,0,1,832.227,571.306Z" transform="translate(-564.965 -477.329)" fill="#3f3d56"/>
      <path id="Path_10777" data-name="Path 10777" d="M922.868,441.5a1.145,1.145,0,0,1-.3.878,1.128,1.128,0,0,1-.727.172h-.056a6.965,6.965,0,0,0-2.187.188,8.267,8.267,0,0,1-1.573.562,3.837,3.837,0,0,1-2.156-.694,21.437,21.437,0,0,0-1.957-.93c-.438-.18-1.333-.3-1.544-.775a7.067,7.067,0,0,1-.182-.69,2.289,2.289,0,0,0-.126-.3,1.747,1.747,0,0,1-.231-.684,1.056,1.056,0,0,1,.236-.661,1.982,1.982,0,0,1,1.354-.7,5.993,5.993,0,0,1,1.558.083l5.088.732c.393.056.787.112,1.174.207a2.3,2.3,0,0,1,1.008.442A2.612,2.612,0,0,1,922.868,441.5Z" transform="translate(-633.617 -372.927)" fill="#3f3d56"/>
      <path id="Path_10778" data-name="Path 10778" d="M787.213,449.653c-.62,1.308-.174,2.856-.285,4.3a10.966,10.966,0,0,1-.55,2.385c-.24.769-.479,1.54-.785,2.286-.256.62-.56,1.24-.8,1.872a7.513,7.513,0,0,1-1.387,2.893c-.351,1.691-.8,3.538-2.189,4.563a4.581,4.581,0,0,1-4.3.384,9.632,9.632,0,0,1-3.569-2.687c-1.011-1.114-1.914-2.327-3-3.365a18.814,18.814,0,0,0-1.978-1.618q-1.05-.763-2.16-1.434a4.325,4.325,0,0,0-1.5-.651,1.736,1.736,0,0,0-1.271.248,1.153,1.153,0,0,0-.229.207,2.844,2.844,0,0,0-.413.847c-.868,2.261-3.2,3.422-5.057,4.964l-1.7,1.407c-.232.192-.488.473-.374.752a.676.676,0,0,0,.355.306,11.822,11.822,0,0,1,2.962,1.428c.3.273.583.632.986.653a1.982,1.982,0,0,0,.62-.138,2.085,2.085,0,0,1,1.821.364,1.771,1.771,0,0,0,.5.341,1.205,1.205,0,0,0,.471.029,2.516,2.516,0,0,1,1.3.126c.395.2.719.659,1.18.692.225.017.494-.058.709-.037a.372.372,0,0,1,.3.165,1.369,1.369,0,0,1,.1.355c.085.291.37.469.556.709a1.958,1.958,0,0,1,.3,1.333,5.688,5.688,0,0,1-1.81,3.807,2.24,2.24,0,0,1-1.114.62,1.033,1.033,0,0,1-1.1-.49,1.7,1.7,0,0,0-.207-.455c-.333-.366-1.079.023-1.385-.368-.19-.244-.054-.634-.236-.887s-.62-.207-.957-.221a6.061,6.061,0,0,1-1.143-.3,10.268,10.268,0,0,0-1.9-.145,11.483,11.483,0,0,1-1.567-.248l-2.629-.537a31.156,31.156,0,0,1-4.948-1.3,3.981,3.981,0,0,1-1.653-1.013,3.1,3.1,0,0,1-.645-1.509c-.374-2.205,1.61-4.09,1.86-6.312a8.857,8.857,0,0,1,.719-2.327q.841-2.017,1.678-4.036a3.6,3.6,0,0,1,.351-.715,5.188,5.188,0,0,1,.8-.779,5.5,5.5,0,0,0,1.618-2.654.715.715,0,0,1,.138-.312,1.165,1.165,0,0,1,.24-.155.785.785,0,0,0,.312-.92.537.537,0,0,0,.492-.5.864.864,0,0,1,.021-.335c.05-.107.174-.161.246-.256a.8.8,0,0,0,.058-.566,1.846,1.846,0,0,1,0-.37,1.9,1.9,0,0,1,.554-1.155c.494-.486,1.2-.36,1.879-.475a10.758,10.758,0,0,0,1.984-.634,19.493,19.493,0,0,1,5.6-1.3,12.233,12.233,0,0,1,5.659.9,3.219,3.219,0,0,1,.73.413,1.383,1.383,0,0,1,.382.457,4.262,4.262,0,0,0,.281.634c.221.3.639.4.88.684s.263.767.463,1.12c.287.5.953.738,1.151,1.286.062.174.07.364.116.543a3.109,3.109,0,0,0,.742,1.161,8.929,8.929,0,0,1,2,4.547,3.458,3.458,0,0,1,1.653-2.554c.238-.155.513-.327.56-.608.06-.355-.285-.672-.263-1.033a1.013,1.013,0,0,1,.207-.484,15.3,15.3,0,0,1,1.294-1.626c.254-.279.539-.62.434-.988-.081-.275-.362-.436-.517-.676a.86.86,0,0,1,.021-.951c.145-.2.374-.339.444-.572.081-.275-.1-.572-.043-.856a1.058,1.058,0,0,1,.426-.552,4.3,4.3,0,0,1,5.254.494A1.961,1.961,0,0,1,787.213,449.653Z" transform="translate(-502.435 -379.762)" fill="#65617d"/>
      <path id="Path_10779" data-name="Path 10779" d="M922.844,441.5a1.145,1.145,0,0,1-.3.878,1.129,1.129,0,0,1-.727.172h-.056c.085-.43.608-.676.7-1.112a.984.984,0,0,0-.227-.75,3.725,3.725,0,0,0-1.86-1.17,12.321,12.321,0,0,0-6.212-.465,6.255,6.255,0,0,0-1.633.5,5.312,5.312,0,0,0-.5.351,1.745,1.745,0,0,1-.231-.684,1.056,1.056,0,0,1,.236-.661,1.982,1.982,0,0,1,1.354-.7,5.993,5.993,0,0,1,1.558.083l5.088.732c.393.056.787.112,1.174.207a2.3,2.3,0,0,1,1.009.442A2.6,2.6,0,0,1,922.844,441.5Z" transform="translate(-633.593 -372.927)" opacity="0.1"/>
      <path id="Path_10780" data-name="Path 10780" d="M832.227,572.716c-.312,1.195-1.25,2.125-1.732,3.263-.725,1.705-.4,3.79-1.424,5.332a5.629,5.629,0,0,1-1.192,1.23,4.432,4.432,0,0,1-.827.556,1.36,1.36,0,0,1-1,.124,1.237,1.237,0,0,1-.742-1.075,2.177,2.177,0,0,1,0-.448l.012.033c.18.434.473.889.936.965a1.267,1.267,0,0,0,.955-.337,5.9,5.9,0,0,0,1.457-2.151,8.948,8.948,0,0,0,.7-1.784c.083-.351.122-.711.207-1.062.393-1.707,1.73-3.1,2.025-4.83a1.184,1.184,0,0,0,.016-.362,1.826,1.826,0,0,0-.178-.451,2.233,2.233,0,0,1-.157-.5,1.447,1.447,0,0,1,.982.8A1.3,1.3,0,0,1,832.227,572.716Z" transform="translate(-564.965 -478.739)" opacity="0.1"/>
      <path id="Path_10781" data-name="Path 10781" d="M793.741,517.75a2.994,2.994,0,0,1-.932,1.273,4.547,4.547,0,0,1-2.007.868,2,2,0,0,1-1.033-.012c-.459-.159-.789-.589-1.259-.713a8.59,8.59,0,0,0-1.033-.06,3.667,3.667,0,0,1-1.575-.922c-1.507-1.133-3.484-1.5-4.991-2.631a.463.463,0,0,1-.161-.167.5.5,0,0,1-.031-.234,4.754,4.754,0,0,1,.453-1.986,6.93,6.93,0,0,1,.852-1.213,36.807,36.807,0,0,1,4.321-4.714,6.549,6.549,0,0,1,2.273-1.4,3.408,3.408,0,0,1,1.992-.037,1.155,1.155,0,0,0-.229.207,2.845,2.845,0,0,0-.413.847c-.87,2.263-3.2,3.425-5.059,4.966l-1.7,1.407c-.231.192-.488.473-.374.752a.675.675,0,0,0,.355.306,11.827,11.827,0,0,1,2.962,1.428c.3.273.583.632.986.653a1.979,1.979,0,0,0,.62-.138,2.085,2.085,0,0,1,1.821.364,1.771,1.771,0,0,0,.5.341,1.2,1.2,0,0,0,.471.029,2.516,2.516,0,0,1,1.3.126c.395.2.719.659,1.18.692C793.258,517.8,793.526,517.725,793.741,517.75Z" transform="translate(-529.601 -426.737)" opacity="0.1"/>
      <path id="Path_10782" data-name="Path 10782" d="M744.435,399.387a2.194,2.194,0,0,0-.971.975c-.132.358-.07.767-.229,1.114s-.517.589-.6.961c-.056.271.054.556,0,.827a3.566,3.566,0,0,0-.114.43c-.021.308.244.558.5.73a4.2,4.2,0,0,0,3.755.413,16.967,16.967,0,0,0,1.579-.808,3.123,3.123,0,0,1,1.7-.413c.341.037.668.161,1.009.207a1.058,1.058,0,0,0,.944-.281,1.178,1.178,0,0,0,.207-.49,7.32,7.32,0,0,0-.116-3.478c-.273-1.141-.686-2.238-.977-3.373a15.471,15.471,0,0,0-.711-2.5,3.278,3.278,0,0,0-1.738-1.839.325.325,0,0,0-.207-.027.352.352,0,0,0-.134.1,6.356,6.356,0,0,0-1.418,2.385c-.324.99-.413,2.04-.711,3.034a3.108,3.108,0,0,1-.62,1.283A7.087,7.087,0,0,1,744.435,399.387Z" transform="translate(-499.302 -336.423)" fill="#3f3d56"/>
      <path id="Path_10783" data-name="Path 10783" d="M752.245,402.989a1.2,1.2,0,0,1-.217.49,1.048,1.048,0,0,1-.944.279c-.339-.041-.666-.167-1.006-.207a3.116,3.116,0,0,0-1.7.413c-.529.265-1.033.593-1.581.806a4.173,4.173,0,0,1-2.507.143,4.043,4.043,0,0,1-1.24-.546.889.889,0,0,1-.5-.73,3.522,3.522,0,0,1,.114-.428c.054-.271-.054-.556,0-.827.079-.372.438-.62.6-.963s.1-.754.227-1.112a2.2,2.2,0,0,1,.973-.978,7.423,7.423,0,0,0,1.174-.756,1.161,1.161,0,0,0,.11-.153,3.721,3.721,0,0,0,.492-1.139c.3-1,.386-2.044.709-3.036a6.369,6.369,0,0,1,1.42-2.383.313.313,0,0,1,.132-.1.33.33,0,0,1,.207.025,3.3,3.3,0,0,1,1.738,1.841,16.281,16.281,0,0,1,.711,2.5c.289,1.135.7,2.236.977,3.375A7.352,7.352,0,0,1,752.245,402.989Z" transform="translate(-499.318 -336.366)" opacity="0.1"/>
      <path id="Path_10784" data-name="Path 10784" d="M799.894,310.794a4.133,4.133,0,0,1-5.034-2.273,4.9,4.9,0,0,1,.083-.577c.207-.951,1.091-.6,1.79-.351a13.992,13.992,0,0,1,2.428,1.052,1.743,1.743,0,0,1,.6.508A2.546,2.546,0,0,1,799.894,310.794Z" transform="translate(-540.821 -269.377)" opacity="0.1"/>
      <circle id="Ellipse_3344" data-name="Ellipse 3344" cx="4.133" cy="4.133" r="4.133" transform="translate(253.691 33.138)" fill="#be6f72"/>
      <path id="Path_10785" data-name="Path 10785" d="M804.42,447.942c0,.343-.465.453-.81.434a26.17,26.17,0,0,0-3.681-.31c-1.552.141-2.978,1-4.534,1.077a13.741,13.741,0,0,0-1.8.052c-.765.143-1.447.608-2.226.674-.676.058-1.343-.2-2.019-.169a3.244,3.244,0,0,0-1.349.384,1.9,1.9,0,0,1,.554-1.155c.494-.486,1.2-.36,1.879-.475a10.76,10.76,0,0,0,1.984-.634,19.491,19.491,0,0,1,5.6-1.3,12.233,12.233,0,0,1,5.657.895,3.219,3.219,0,0,1,.729.413A.323.323,0,0,1,804.42,447.942Z" transform="translate(-535.379 -379.782)" opacity="0.1"/>
      <path id="Path_10786" data-name="Path 10786" d="M778.131,333l-1.674-.62-.707-.26a3.42,3.42,0,0,0-.9-.24,2.294,2.294,0,0,0-2,1.166,6.3,6.3,0,0,0-.734,2.308q-.285,1.641-.484,3.294a21.514,21.514,0,0,0-.217,3,35.6,35.6,0,0,0,1.184,7.572,26.624,26.624,0,0,1,.659,3.358c.05.467.072.936.122,1.405.054.527.141,1.048.227,1.571l.5,2.97a3.926,3.926,0,0,1,2.087-.849c.676-.025,1.345.227,2.019.169a23.065,23.065,0,0,0,2.226-.672,13.419,13.419,0,0,1,1.8-.052c1.554-.079,2.982-.938,4.532-1.077a24.889,24.889,0,0,1,3.683.308c.343.021.808-.089.808-.434,0-.24-.24-.4-.448-.519a22.112,22.112,0,0,1-2.8-2,9.454,9.454,0,0,1-2.2-2.178c-1.35-2.1-.887-4.935-2.038-7.149-.936-1.8,0-4.154,0-6.181a9.4,9.4,0,0,0-.792-4.627l-.8-2.036a.332.332,0,0,0-.1-.155.316.316,0,0,0-.184-.056,1.939,1.939,0,0,0-1.335.428c-.378.308-.62.75-.992,1.071A1.51,1.51,0,0,1,778.131,333Z" transform="translate(-522.218 -288.184)" fill="#e3e8f4"/>
      <path id="Path_10787" data-name="Path 10787" d="M809.067,326.847a3.668,3.668,0,0,1,.653-1.6,1.256,1.256,0,0,1,1.556-.36c.554.36.577,1.19,1.05,1.653a2.547,2.547,0,0,0,1.6.479,10.822,10.822,0,0,1,2.949.694,1.206,1.206,0,0,1,.49.293c.258.293.207.744.335,1.11.176.471.661.771.849,1.24a2.473,2.473,0,0,1-.174,1.639c-.312.961-.508,1.959-.812,2.924a6.511,6.511,0,0,1-1.447,2.643c-.314.322-.781.62-1.195.428l-.159,1.147a1.949,1.949,0,0,0,0,.734.657.657,0,0,0,.479.508c.031.178.219.262.372.36a1.033,1.033,0,0,1,.263,1.447c-.13.176-.322.314-.384.523a.743.743,0,0,0,.4.785c.269.165.585.242.858.4a2.667,2.667,0,0,1,1.064,1.593,2.953,2.953,0,0,0,.62,1.325c.136.13.3.229.43.366a1.569,1.569,0,0,1,.37.949,1.883,1.883,0,0,1-.269,1.24,3.746,3.746,0,0,1-1.86,1.033,15.673,15.673,0,0,0-2.968,1.943,3.167,3.167,0,0,1-1.354.637,11.859,11.859,0,0,1-2-.234,4.972,4.972,0,0,0-1.195.157l-1.24.269a8.041,8.041,0,0,0-.758-2.84,14.112,14.112,0,0,1-.529-5.373,42.1,42.1,0,0,1,.864-5.361,34.18,34.18,0,0,1,.62-3.741,24.646,24.646,0,0,0,1.081-3.48C809.931,330.429,808.625,328.773,809.067,326.847Z" transform="translate(-550.453 -283.203)" fill="#3f3d56"/>
      <path id="Path_10788" data-name="Path 10788" d="M850.424,352.284a2.273,2.273,0,0,1,.238.672,2.424,2.424,0,0,0,.523.984,3.389,3.389,0,0,1,.55.62,4.64,4.64,0,0,1,.207,1.19,9.575,9.575,0,0,1,.446,1.24,2.267,2.267,0,0,0,.035.376c.134.5.87.62,1.033,1.12.109.324-.079.678-.043,1.019a.9.9,0,0,1,.019.322.655.655,0,0,1-.236.3,4.753,4.753,0,0,0-1.36,2.42,13.78,13.78,0,0,0-.312,2.8l-.808-1.068a1.229,1.229,0,0,0-.322-.331c-.1-.062-.223-.093-.329-.155a1.5,1.5,0,0,1-.544-.872,8.059,8.059,0,0,0-1.447-2.5,2.734,2.734,0,0,1-.783-1.277,2.35,2.35,0,0,1,.037-.69,11.769,11.769,0,0,1,1.087-3.941c.308-.562.707-1.071,1-1.641C849.615,352.486,849.894,351.5,850.424,352.284Z" transform="translate(-582.408 -304.818)" fill="#3f3d56"/>
      <path id="Path_10789" data-name="Path 10789" d="M719.337,303.944a.945.945,0,0,1-.128.5.653.653,0,0,1-.653.207,1.89,1.89,0,0,1-.653-.306l-1.728-1.093a9.57,9.57,0,0,1-.928-.637,8.28,8.28,0,0,1-1.226-1.283c-1-1.24-1.893-2.585-3.011-3.72-.3-.31-.62-.608-.914-.932a13.6,13.6,0,0,1-1.1-1.484,2.528,2.528,0,0,1-.6-1.577c.033-.322.188-.62.234-.94a.586.586,0,0,0-.5-.816.843.843,0,0,1-.18-.039c-.287-.12-.244-.564-.037-.8s.513-.364.7-.62a3.741,3.741,0,0,1,.293-.436,1.119,1.119,0,0,1,.482-.242,7.452,7.452,0,0,1,3.668-.138c.207.045.442.128.5.329a.606.606,0,0,1,0,.3,6.648,6.648,0,0,0-.157,1.24,2.184,2.184,0,0,0,.014.26,4.675,4.675,0,0,0,1.219,2.3c.657.814,1.325,1.622,1.994,2.428a9.545,9.545,0,0,0,1.209,1.292,6.9,6.9,0,0,1,1.271,1.06,2.32,2.32,0,0,1,.207,1.269A28.17,28.17,0,0,1,719.337,303.944Z" transform="translate(-471.709 -255.178)" fill="#3f3d56"/>
      <path id="Path_10790" data-name="Path 10790" d="M877.631,343a3.333,3.333,0,0,0,.963-1.575l1.2-3.4c.19-.537.38-1.077.62-1.6.248-.564.542-1.108.812-1.653a22.05,22.05,0,0,0,1.606-4.5,1.667,1.667,0,0,0,.064-.659,1.733,1.733,0,0,0-.587-.891,4.3,4.3,0,0,0-.88-.727,1.447,1.447,0,0,0-1.1-.178,1.6,1.6,0,0,0-.984,1.24,12.942,12.942,0,0,0-.128,1.653c-.074.794-.347,1.56-.413,2.356-.035.461,0,.926-.056,1.385a5.058,5.058,0,0,1-.62,1.709,11.1,11.1,0,0,1-2.672,3.286,4.294,4.294,0,0,0-.8.771,2.514,2.514,0,0,0-.386.963,2.217,2.217,0,0,0,.167,1.565,2.3,2.3,0,0,0,1.6.955C876.866,343.881,877.059,343.6,877.631,343Z" transform="translate(-603.756 -285.614)" fill="#be6f72"/>
      <path id="Path_10791" data-name="Path 10791" d="M793.7,269.4a1.928,1.928,0,0,1,1.872-1.015,2.067,2.067,0,0,1,1.624,1.459,3.773,3.773,0,0,0,.306.913c.256.4.732.515,1.087.8a2.176,2.176,0,0,1,.694,1.538,4.651,4.651,0,0,1-.275,1.738,5.548,5.548,0,0,0-.207.727c-.041.24-.045.484-.083.723a2.356,2.356,0,0,1-.949,1.564.413.413,0,0,1-.256.093c-.161-.019-.26-.207-.32-.376-.329-.949-.25-2.108-.856-2.864a3.133,3.133,0,0,0-.98-.73,1.263,1.263,0,0,0-.5-.188,1.316,1.316,0,0,0-.723.265,4.5,4.5,0,0,1-1.43.632,1.757,1.757,0,0,1-1.478-.318c-.285-.236-.494-.589-.81-.773a6.24,6.24,0,0,0-.959-.3,1.42,1.42,0,0,1-.574-2.166c.207-.248.513-.389.7-.663a4.186,4.186,0,0,0,.331-1.269,1.746,1.746,0,0,1,1.052-1.2,1.477,1.477,0,0,1,1.471.308c.207.186.372.426.575.62a1.653,1.653,0,0,0,1.529.413" transform="translate(-535.854 -238.122)" fill="#3f3d56"/>
      <path id="Path_10792" data-name="Path 10792" d="M828.709,419.439a.8.8,0,0,0-.219.876,19.352,19.352,0,0,0,2.4-.345c.562-.081,1.548-.041,1.926-.556.674-.911-1.414-.709-1.8-.676A3.939,3.939,0,0,0,828.709,419.439Z" transform="translate(-567.462 -357.738)" opacity="0.1"/>
      <path id="Path_10793" data-name="Path 10793" d="M713.61,290.219a6.649,6.649,0,0,0-.157,1.24,3.612,3.612,0,0,1-1.86-.287l-1.709-.583a.486.486,0,0,0-.653.122,14.463,14.463,0,0,1-1.033,1.147.842.842,0,0,1-.18-.039c-.287-.12-.244-.564-.037-.8s.513-.364.7-.62a3.738,3.738,0,0,1,.293-.436,1.118,1.118,0,0,1,.482-.242,7.452,7.452,0,0,1,3.668-.138c.207.045.442.128.5.329A.606.606,0,0,1,713.61,290.219Z" transform="translate(-471.765 -255.178)" fill="#3f3d56"/>
      <path id="Path_10794" data-name="Path 10794" d="M713.61,290.219a6.649,6.649,0,0,0-.157,1.24,3.612,3.612,0,0,1-1.86-.287l-1.709-.583a.486.486,0,0,0-.653.122,14.463,14.463,0,0,1-1.033,1.147.842.842,0,0,1-.18-.039c-.287-.12-.244-.564-.037-.8s.513-.364.7-.62a3.738,3.738,0,0,1,.293-.436,1.118,1.118,0,0,1,.482-.242,7.452,7.452,0,0,1,3.668-.138c.207.045.442.128.5.329A.606.606,0,0,1,713.61,290.219Z" transform="translate(-471.765 -255.178)" opacity="0.1"/>
      <path id="Path_10795" data-name="Path 10795" d="M795.781,480.034a1.031,1.031,0,0,1,.721.541l-2.393-.608-1.24-.316c-.219-.056-1-.12-1.149-.291-.207-.252.527-.079.659-.06.4.06.8.122,1.2.194C794.332,479.629,795.056,479.85,795.781,480.034Z" transform="translate(-538.301 -405.757)" opacity="0.1"/>
      <path id="Path_10796" data-name="Path 10796" d="M796.822,486.992a4.476,4.476,0,0,0-1.054-.182c-.372-.089-.738-.207-1.1-.32-.742-.242-1.478-.517-2.24-.694-.141-.031-.62-.039-.6-.217s.479-.24.593-.248a5.861,5.861,0,0,1,2.147.492A9.467,9.467,0,0,1,796.822,486.992Z" transform="translate(-538.414 -410.596)" opacity="0.1"/>
      <path id="Path_10797" data-name="Path 10797" d="M797.22,469.1a15.874,15.874,0,0,0-2.228-.769.905.905,0,0,1-.568-.174.669.669,0,0,1-.184-.331,3.851,3.851,0,0,1,1.606.4,5.055,5.055,0,0,1,.752.4C796.772,468.741,797.032,469.045,797.22,469.1Z" transform="translate(-540.329 -396.716)" opacity="0.1"/>
      <path id="Path_10798" data-name="Path 10798" d="M868.787,384.46a3.615,3.615,0,0,0,2.534,3.995c-.1.49-.608.761-.965,1.11-.5.49-.765,1.223-1.36,1.6a3.034,3.034,0,0,1-2.273.079.277.277,0,0,1-.178-.093.256.256,0,0,1-.033-.081,5.319,5.319,0,0,1-.157-2.811,9.18,9.18,0,0,1,1.1-2.137C867.85,385.427,867.888,384.687,868.787,384.46Z" transform="translate(-597.437 -330.577)" fill="#3f3d56"/>
      <path id="Path_10799" data-name="Path 10799" d="M752.229,327.094a5.373,5.373,0,0,0-2.273.692,2.542,2.542,0,0,1-1.467.556c-.312-.035-.62-.207-.924-.124a1.814,1.814,0,0,0-.473.281.535.535,0,0,1-.521.083l-.207,2.86a10.485,10.485,0,0,0,.105,3.257,9.126,9.126,0,0,1,.463,1.583c.033.55-.017,1.114.023,1.67.037.515.151,1.021.18,1.536a9.771,9.771,0,0,1-.413,2.879,17.134,17.134,0,0,1-1.24,4.078,2.4,2.4,0,0,0-.413,1.1.566.566,0,0,0,.012.145c-.207.114-.4.221-.574.333a2.2,2.2,0,0,0-.974.978c-.13.358-.07.767-.227,1.112s-.517.591-.6.963c-.056.271.052.556,0,.827a3.544,3.544,0,0,0-.114.428.9.9,0,0,0,.5.73,4.045,4.045,0,0,0,1.24.546l1.234-4.9h0a39.506,39.506,0,0,0,2.8-6.5,13.975,13.975,0,0,1,.808-2.141,10.067,10.067,0,0,0,.62-1.215,9.151,9.151,0,0,0,.3-1.635,11.442,11.442,0,0,1,.486-1.887,8.1,8.1,0,0,0,.527-2.021c.068-1-.293-2.048.091-2.97a3.949,3.949,0,0,1,.63-.949c.533-.653,1.019-1.337,1.552-1.99A1.434,1.434,0,0,0,752.229,327.094Z" transform="translate(-499.358 -285.061)" fill="#3f3d56"/>
      <g id="Group_10593" data-name="Group 10593" transform="translate(252.751 30.602)" opacity="0.1">
        <path id="Path_10800" data-name="Path 10800" d="M816.287,271.81l-.258.019-.029.021A1.524,1.524,0,0,0,816.287,271.81Z" transform="translate(-810.344 -271.81)"/>
        <path id="Path_10801" data-name="Path 10801" d="M799.3,287.437a5.569,5.569,0,0,1-.265,1.207,5.523,5.523,0,0,0-.207.727c-.041.24-.045.484-.083.723a2.356,2.356,0,0,1-.949,1.564.413.413,0,0,1-.256.093c-.161-.019-.26-.207-.32-.376-.329-.949-.25-2.108-.856-2.864a3.131,3.131,0,0,0-.98-.73,1.264,1.264,0,0,0-.5-.188,1.316,1.316,0,0,0-.723.265,4.5,4.5,0,0,1-1.43.632,1.757,1.757,0,0,1-1.478-.318c-.285-.236-.494-.589-.81-.773a6.24,6.24,0,0,0-.959-.3,1.411,1.411,0,0,1-.806-.922.584.584,0,0,1-.017-.079,1.446,1.446,0,0,0,.017.7,1.411,1.411,0,0,0,.806.922,6.97,6.97,0,0,1,.959.3,7.822,7.822,0,0,1,.81.773,1.757,1.757,0,0,0,1.478.318,4.5,4.5,0,0,0,1.43-.632,1.316,1.316,0,0,1,.723-.265,1.263,1.263,0,0,1,.5.188,3.13,3.13,0,0,1,.965.736c.606.756.527,1.916.856,2.864.06.172.159.358.32.376a.413.413,0,0,0,.271-.1,2.356,2.356,0,0,0,.951-1.571c.037-.24.041-.484.083-.723a5.539,5.539,0,0,1,.207-.727,4.65,4.65,0,0,0,.275-1.738C799.311,287.5,799.307,287.466,799.3,287.437Z" transform="translate(-788.631 -283.147)"/>
      </g>
      <path id="Path_10802" data-name="Path 10802" d="M667.139,372.81,667,374.7a39.237,39.237,0,0,1-4.123,13.487,38.274,38.274,0,0,1-20.522,18.557q-1.333.527-2.767.984l-1.066-3.348a39.151,39.151,0,0,0,7.692-3.365,34.044,34.044,0,0,0,13.466-14.293,38.391,38.391,0,0,0,3.534-10.4H650.255V372.81Z" transform="translate(-416.792 -321.335)" fill="#6c63ff"/>
      <path id="Path_10803" data-name="Path 10803" d="M644.7,406.759a38.266,38.266,0,0,0,20.52-18.555,39.157,39.157,0,0,0,4.123-13.487l.141-1.887h1.447l-.141,1.887A39.183,39.183,0,0,1,666.67,388.2a38.273,38.273,0,0,1-20.52,18.555q-1.333.527-2.769.986l-.141-.44Q643.988,407.038,644.7,406.759Z" transform="translate(-420.536 -321.35)" fill="#fff" opacity="0.1"/>
      <path id="Path_10804" data-name="Path 10804" d="M430.14,404.377l-1.066,3.348q-1.436-.459-2.769-.986a38.266,38.266,0,0,1-20.52-18.555A39.161,39.161,0,0,1,401.66,374.7l-.141-1.887H418.4v3.513h-12.96a38.417,38.417,0,0,0,3.544,10.4,34.023,34.023,0,0,0,13.464,14.291A39.059,39.059,0,0,0,430.14,404.377Z" transform="translate(-228.773 -321.335)" fill="#6c63ff"/>
      <path id="Path_10805" data-name="Path 10805" d="M427.49,406.759A38.266,38.266,0,0,1,406.97,388.2a39.161,39.161,0,0,1-4.123-13.487l-.141-1.887H401.26l.141,1.887a39.185,39.185,0,0,0,4.123,13.487,38.273,38.273,0,0,0,20.52,18.555q1.333.527,2.769.986l.141-.44Q428.208,407.038,427.49,406.759Z" transform="translate(-228.566 -321.35)" fill="#fff" opacity="0.1"/>
      <path id="Path_10806" data-name="Path 10806" d="M533.912,588.537v18.945H494.92V588.537l1.24-1.653c12.636-4.485,15.2-16.18,15.707-20.807a19.027,19.027,0,0,0,.13-1.926h4.822a19.045,19.045,0,0,0,.13,1.926c.519,4.627,3.079,16.327,15.707,20.807Z" transform="translate(-302.87 -473.131)" fill="#6c63ff"/>
      <rect id="Rectangle_1576" data-name="Rectangle 1576" width="38.992" height="2.377" transform="translate(192.05 115.406)" opacity="0.1"/>
      <path id="Path_10807" data-name="Path 10807" d="M498.227,586.884c12.636-4.485,15.2-16.18,15.707-20.807a19.028,19.028,0,0,0,.13-1.926H512a19.01,19.01,0,0,1-.13,1.926c-.519,4.627-3.079,16.327-15.707,20.807l-1.24,1.653v18.945h2.067V588.537Z" transform="translate(-302.87 -473.131)" fill="#fff" opacity="0.1"/>
      <path id="Path_10808" data-name="Path 10808" d="M466.26,372.81h3.5v3.513H466.57Q466.382,374.587,466.26,372.81Z" transform="translate(-280.133 -321.335)" opacity="0.1"/>
      <path id="Path_10809" data-name="Path 10809" d="M510.464,512.627l-1.066,3.348q-1.436-.459-2.769-.986a37.034,37.034,0,0,1-3.858-5.729A39.061,39.061,0,0,0,510.464,512.627Z" transform="translate(-309.097 -429.585)" opacity="0.1"/>
      <path id="Path_10810" data-name="Path 10810" d="M638.51,512.635a39.151,39.151,0,0,0,7.692-3.365A37.174,37.174,0,0,1,642.344,515q-1.333.527-2.767.984Z" transform="translate(-416.784 -429.592)" opacity="0.1"/>
      <path id="Path_10811" data-name="Path 10811" d="M698.825,372.81q-.122,1.777-.31,3.513H695.33V372.81Z" transform="translate(-461.861 -321.335)" opacity="0.1"/>
      <path id="Path_10812" data-name="Path 10812" d="M582.042,566.076a13.361,13.361,0,0,1-5.082,0,19.01,19.01,0,0,0,.13-1.926h4.822a19.028,19.028,0,0,0,.13,1.926Z" transform="translate(-367.954 -473.13)" opacity="0.1"/>
      <path id="Path_10813" data-name="Path 10813" d="M468.26,344.65c.089,26.053,11.249,47.121,25.007,47.121s24.916-21.068,25.007-47.121Z" transform="translate(-281.719 -298.994)" fill="#6c63ff"/>
      <path id="Path_10814" data-name="Path 10814" d="M472.7,344.65H468.26c.089,26.053,11.249,47.121,25.007,47.121a13.509,13.509,0,0,0,2.222-.188C482.77,389.458,472.788,369.285,472.7,344.65Z" transform="translate(-281.719 -298.994)" fill="#fff" opacity="0.1"/>
      <rect id="Rectangle_1577" data-name="Rectangle 1577" width="26.522" height="6.82" transform="translate(198.286 122.658)" fill="#3f3d56"/>
      <path id="Path_10815" data-name="Path 10815" d="M498.33,594.43h25.282v-.93H497.09v6.82h1.24Z" transform="translate(-298.804 -470.842)" fill="#fff" opacity="0.1"/>
      <path id="Path_10816" data-name="Path 10816" d="M224.306,335.549c-.477-.159-3.288-2.383-3.5-3.389s1.486-10.383,1.486-10.383a3.821,3.821,0,0,1-.413-.031v-.151l.349-12.317s1.432-8.267-1.273-7.785-1.009,7.785-1.009,7.785-.308,3.708-.525,4.82c-.207,1.073-1.153,5.442-.508,6.8a1.486,1.486,0,0,0,.079.141h0s.107,4.66-1.06,5.3c-1.114.606-1.577,3.654-1.616,3.927l-.06-.025h0a3.239,3.239,0,0,1-.862-.787c-.025-.031-.043-.064-.066-.1a4.551,4.551,0,0,0-1.4-7.107,2.935,2.935,0,0,0-.275-1.141c-.537-1.149-3.513-2.652-5.628-2.687-.975-.029-1.775.248-2.067,1.011a5.832,5.832,0,0,0-.165,1.228,3.122,3.122,0,0,1-1.337,1.988,8.382,8.382,0,0,0-.891-.858,19.46,19.46,0,0,1-2.067-2.273s-4.3-4.45-4.615-5.669-4.611-8.542-5.566-7.267,3.288,6.833,3.288,6.833a12.925,12.925,0,0,0,1.426,2.7c.62.682,5.373,7.585,5.373,7.585l.227.471a4.129,4.129,0,0,0-2.246,2.253c-.475,1.546.564,3.1,1.283,4.547,1.4,2.823,1.6,6.423-.207,9-1.62,2.278-4.431,3.36-7.062,4.307a6.95,6.95,0,0,0,4.464,1.482c-.608,1.761-2.761,2.344-4.6,2.67a6.615,6.615,0,0,0,3.664,1.467,10.983,10.983,0,0,0,1.961.155h.161l.161-.012a5.612,5.612,0,0,0,.668-.085,3.508,3.508,0,0,0,2.371-1.558c.413-.721.558-1.7,1.308-2.067a1.672,1.672,0,0,1,.62-.147h.4l3.127.031h.4a2.585,2.585,0,0,0,2.273-.9,2.505,2.505,0,0,0,.283-1.147c.066-.99,0-2.009.027-3.007.267,1.817.546,4.648-.118,5.694a9.714,9.714,0,0,1-1.939,2.1,3.717,3.717,0,0,0-.513.525c-.1.072-.161.112-.161.112l-.064.192a3.639,3.639,0,0,0-.5,1.17.812.812,0,0,0-.039.333c.072.147-.517.752-.345,1.006a9.115,9.115,0,0,0-1.751,4.34l-2.687,4.08c-1.381,3.627-3.447,4-3.447,4s-4.855-3.257-4.987-3.416a18.755,18.755,0,0,0-1.988-.955,2.1,2.1,0,0,0-.955-.872c-.637-.265-.69-1.24-.69-1.24-.079-2.3-1.432-2.48-1.432-2.48a4.4,4.4,0,0,0-2.565.457l-.194.014c-.938.076-2.067.161-3.307.244-3.449.227-4.27,2.461-4.27,2.461a.688.688,0,0,0,.132.994c.556.517,4.115,0,4.266-.012a2.311,2.311,0,0,1-.81-.056c.56-.021,1.331-.041,1.988-.041h.159a8.6,8.6,0,0,0-.06,1.05c0,.661,1.829,1.085,1.829,1.085l5.57,4.96a22.06,22.06,0,0,1,5.729,3.815,2.858,2.858,0,0,0,4.2.308c2.358-.583,9.143-8.786,9.149-8.794h0c0,.24.143,8.217.413,9.819h0a1.064,1.064,0,0,0,.06.238c.318.688-.107,2.569-.291,3.362a9.342,9.342,0,0,0-.134,2.013s-2.544,9.713-2.333,10.567-1.378,4.82-1.378,4.82v3.307l.277-.014a1.787,1.787,0,0,0-.1.165l-.019.035a11.759,11.759,0,0,0,2.838.265,7.96,7.96,0,0,1,3.1.878,8.631,8.631,0,0,0,2.705.446c2.042.132,2.042-.9,2.042-.9-.234-1.407-3.46-1.879-3.559-1.893-.26-.163-.5-.341-.7-.494l-.041-.033a.888.888,0,0,0,.035-.1c.345-1.405-1.564-2.015-1.564-2.015v-.343c1.24-.637,1.486-5.006,1.486-5.006s1.86-5.4,2.12-6.3a5.958,5.958,0,0,0,0-2.251l.186-1.166a5.733,5.733,0,0,0,.4-.953,2.354,2.354,0,0,1,.451-1.112c.291-.345-.318-1.166-.318-1.166l.531-1.376v-1.511l1.24-5.481s1.3-6.384.849-8.473a3.594,3.594,0,0,1,.531-3.152,2.618,2.618,0,0,1-.273.124,7.893,7.893,0,0,0,.32-.88l2.79.345v.041h1.006s-.318-3.927-.318-5.51,1.073-7.264,1.073-7.264S224.783,335.708,224.306,335.549Zm-12.386-4.584c0,.155-.014.316-.025.482l-.056.085-.1-.087-.126.2-.037.019c-.273-.141-.413-.944-.61-.771l-.027.023c-.043-.05-.087-.064-.132-.023l-.041.035v-.184a4.649,4.649,0,0,0,1.157.147C211.922,330.914,211.92,330.941,211.92,330.965Zm9.279,18.286h.06l-.1.26C221.172,349.425,221.185,349.34,221.2,349.251Zm-10.187,46.866-.38-.1.207-.035.192.126.023.017Zm3.885-.556c-.126-.066-.254-.143-.378-.221C214.561,395.363,214.724,395.448,214.9,395.562Z" transform="translate(-51.909 -264.74)" fill="url(#linear-gradient-2)"/>
      <path id="Path_10817" data-name="Path 10817" d="M347.119,390.03l-2.5,6.522h.608l-2.354,1.877,4.249.529Z" transform="translate(-176.457 -309.423)" fill="#f86d70"/>
      <path id="Path_10818" data-name="Path 10818" d="M347.119,390.03l-2.5,6.522-.63-.169-1.116,2.046,4.249.529Z" transform="translate(-176.457 -309.423)" opacity="0.1"/>
      <path id="Path_10819" data-name="Path 10819" d="M344.44,364.722h3.925l1.44-11.852H344.44Z" transform="translate(-177.703 -279.942)" fill="#f86d70"/>
      <path id="Path_10820" data-name="Path 10820" d="M344.44,364.722h3.925l1.44-11.852H344.44Z" transform="translate(-177.703 -279.942)" opacity="0.1"/>
      <path id="Path_10821" data-name="Path 10821" d="M333.816,440.443l.847-.143,1.947-.331s5.847-1.319,7.054-1.426a7.538,7.538,0,0,0,2.116-.6c.316-.136.517-.24.517-.24l-2.106-3.846-3.267-2.422a5.657,5.657,0,0,1-2.941-1.643,1.937,1.937,0,0,1-.271-1.835c.533-1.653-3.185,1.581-3.185,1.581s.035.775,0,1.763c0,.194-.019.4-.033.6a4.07,4.07,0,0,1-.033.413,6.647,6.647,0,0,1-.645,2.6C332.917,436.386,333.816,440.443,333.816,440.443Z" transform="translate(-174.744 -364.708)" fill="#fbbebe"/>
      <path id="Path_10822" data-name="Path 10822" d="M338.79,431.7h.083c.149,0,.269-.316.413-.331a4.287,4.287,0,0,0,2.964-1.18,1.939,1.939,0,0,1-.271-1.833c.533-1.653-3.185,1.579-3.185,1.579S338.833,430.709,338.79,431.7Z" transform="translate(-179.007 -365.025)" opacity="0.1"/>
      <path id="Path_10823" data-name="Path 10823" d="M316.89,406.274a4.528,4.528,0,0,0,4.53,4.53,3.16,3.16,0,0,0,.442-.021,4.53,4.53,0,1,0-4.972-4.51Z" transform="translate(-161.633 -344.289)" fill="#fbbebe"/>
      <path id="Path_10824" data-name="Path 10824" d="M261.783,386.521a5.571,5.571,0,0,0-.163,1.221c-.221,1.469-1.715,2.35-3.067,2.966s-2.877,1.345-3.307,2.765c-.471,1.536.558,3.075,1.273,4.516,1.393,2.807,1.591,6.386-.207,8.953-1.6,2.273-4.381,3.352-7,4.3a6.9,6.9,0,0,0,4.433,1.476c-.6,1.75-2.74,2.331-4.563,2.654a6.556,6.556,0,0,0,3.639,1.459,8.253,8.253,0,0,0,2.893.054,3.476,3.476,0,0,0,2.352-1.55c.413-.717.554-1.695,1.3-2.056a2.351,2.351,0,0,1,1.06-.155l3.1.033c.965,0,2.108-.074,2.606-.9a2.48,2.48,0,0,0,.281-1.141c.134-2.034-.256-4.183.581-6.039.252-.56-1.366-1.447-1.2-2.04a19.054,19.054,0,0,0,.723-5.768c0-1.643,1.068-3.059,1.951-4.445s1.62-3.137.924-4.625C268.609,386.537,262.711,384.125,261.783,386.521Z" transform="translate(-107.917 -331.412)" fill="#3f3d56"/>
      <path id="Path_10825" data-name="Path 10825" d="M330.13,752.52l.789.523.122.081.023.014.936.62,2.187.368,1.922-.132s.554-1.157-.316-1.13a1.81,1.81,0,0,1-.794-.229l-.12-.06h0c-.126-.066-.252-.141-.376-.219h0c-.258-.163-.5-.341-.7-.492-.289-.223-.482-.393-.482-.393Z" transform="translate(-172.137 -621.737)" fill="#fbbebe"/>
      <path id="Path_10826" data-name="Path 10826" d="M334,757.509l.122.081.023.014.936.62,2.187.368,1.922-.132s.554-1.157-.316-1.13a1.811,1.811,0,0,1-.794-.229c.153.12.281.25.293.36.035.3-1.422.827-1.422.827l-2.054-.544s-.349-.1-.827-.223l-.045-.012Z" transform="translate(-175.207 -626.204)" opacity="0.1"/>
      <path id="Path_10827" data-name="Path 10827" d="M317,756.9a11.635,11.635,0,0,0,2.817.262,7.936,7.936,0,0,1,3.083.87,8.646,8.646,0,0,0,2.687.442c2.027.132,2.027-.9,2.027-.9-.231-1.4-3.435-1.86-3.534-1.881h0a3.918,3.918,0,0,1,.376.219h0c.227.149.473.343.492.5.035.293-1.422.827-1.422.827l-2.054-.541s-.349-.1-.827-.225H320.6a17.611,17.611,0,0,0-2.153-.444,1.5,1.5,0,0,0-1.43.827A.245.245,0,0,0,317,756.9Z" transform="translate(-161.72 -625.093)" fill="#3f3d56"/>
      <path id="Path_10828" data-name="Path 10828" d="M188.54,572.622l.895.686s.26-.012.649-.025h.124c.556-.021,1.323-.041,1.974-.041a6.268,6.268,0,0,1,1.259.07c.446.157,1.24-2.554,1.24-2.554l-.9-.207-.3-.07-.207-.05-.73-.172-2.211.252-1.554,1Z" transform="translate(-59.809 -477.978)" fill="#fbbebe"/>
      <path id="Path_10829" data-name="Path 10829" d="M188.54,572.622l.895.686s.26-.012.649-.025a.783.783,0,0,1-.413-.37c-.579-1.606,2.292-2.292,2.292-2.292l1.337-.058.26-.012h.207l-.3-.07-.207-.05-.73-.172-2.211.252-1.554,1Z" transform="translate(-59.809 -477.978)" opacity="0.1"/>
      <path id="Path_10830" data-name="Path 10830" d="M178.9,570.19c.541.5,4.088,0,4.237-.012a2.231,2.231,0,0,1-.8-.056.887.887,0,0,1-.62-.444c-.579-1.608,2.292-2.292,2.292-2.292l1.337-.058.258-.012,3.251-.141.157-.895s-1.056.1-2.714.231c-.932.076-2.067.161-3.292.242-3.425.227-4.239,2.449-4.239,2.449A.687.687,0,0,0,178.9,570.19Z" transform="translate(-51.935 -474.82)" fill="#3f3d56"/>
      <path id="Path_10831" data-name="Path 10831" d="M371.6,323.319a.918.918,0,0,0,.079.141l.789,1.157,2.054.207.023-.814.345-12.251s1.422-8.217-1.265-7.744-1,7.744-1,7.744-.306,3.687-.521,4.795C371.9,317.624,370.961,321.976,371.6,323.319Z" transform="translate(-204.863 -266.741)" fill="#fbbebe"/>
      <path id="Path_10832" data-name="Path 10832" d="M350.14,541.567l.585,1,1.308,2.238s2.373.87,2.98.207a8.582,8.582,0,0,0,.944-2.687c.207-.86.345-1.585.345-1.585Z" transform="translate(-188.011 -454.559)" fill="#fbbebe"/>
      <path id="Path_10833" data-name="Path 10833" d="M350.14,541.606l.585,1a.69.69,0,0,0,.1-.105c.661-.843,3.573-.18,5.134-.126.207-.86.345-1.585.345-1.585Z" transform="translate(-188.011 -454.598)" opacity="0.1"/>
      <path id="Path_10834" data-name="Path 10834" d="M206.16,570.081a6.259,6.259,0,0,1,1.259.07c.446.157,1.24-2.554,1.24-2.554l-1.195-.281,3.251-.141.157-.895s-1.056.1-2.714.232a3.412,3.412,0,0,0-.9.754l-.05.062A5.417,5.417,0,0,0,206.16,570.081Z" transform="translate(-73.787 -474.82)" opacity="0.1"/>
      <path id="Path_10835" data-name="Path 10835" d="M330.13,752.488l.911.6c1.36-.246,2.6-.632,2.749-1.24a.209.209,0,0,0,0-.029c-.289-.223-.482-.393-.482-.393Z" transform="translate(-172.137 -621.705)" opacity="0.1"/>
      <path id="Path_10836" data-name="Path 10836" d="M317.09,758.121a31.572,31.572,0,0,0,3.584-.384,17.6,17.6,0,0,0-2.156-.448A1.487,1.487,0,0,0,317.09,758.121Z" transform="translate(-161.792 -626.346)" opacity="0.1"/>
      <path id="Path_10837" data-name="Path 10837" d="M206.64,550.853c0,.659,1.817,1.081,1.817,1.081l5.533,4.925a21.862,21.862,0,0,1,5.688,3.792,2.832,2.832,0,0,0,4.162.316c2.344-.579,9.093-8.744,9.093-8.744s.157,9.325.473,10.009-.105,2.554-.289,3.346a9.3,9.3,0,0,0-.132,2s-2.528,9.666-2.317,10.509-1.37,4.795-1.37,4.795v3.292s6.19-.238,6.531-1.633-1.552-2-1.552-2V582.2c1.24-.632,1.474-4.977,1.474-4.977s1.846-5.373,2.108-6.268a5.861,5.861,0,0,0,0-2.24l.184-1.157a5.777,5.777,0,0,0,.395-.949,2.344,2.344,0,0,1,.448-1.106c.289-.343-.316-1.159-.316-1.159l.527-1.37v-1.5l1.24-5.452s1.292-6.349.843-8.43a3.567,3.567,0,0,1,.527-3.133c-2.114,1.108-3.181-1.358-3.53-2.418-.089-.273-.132-.455-.132-.455a14.785,14.785,0,0,0-5.607-.814,6.457,6.457,0,0,0-1.61.341c-3,1.081-3.476,5.557-3.476,5.557l-2.66,4.057c-1.37,3.608-3.424,3.976-3.424,3.976s-4.82-3.239-4.96-3.4a19.309,19.309,0,0,0-1.976-.949,2.087,2.087,0,0,0-.949-.868c-.632-.265-.684-1.24-.684-1.24-.079-2.292-1.422-2.48-1.422-2.48C206.613,545.377,206.64,550.2,206.64,550.853Z" transform="translate(-74.168 -454.549)" fill="#3f3d56"/>
      <rect id="Rectangle_1578" data-name="Rectangle 1578" width="2.844" height="8.823" transform="translate(162.129 83.426) rotate(180)" fill="#f86d70"/>
      <rect id="Rectangle_1579" data-name="Rectangle 1579" width="2.844" height="8.823" transform="translate(162.129 83.426) rotate(180)" opacity="0.1"/>
      <path id="Path_10838" data-name="Path 10838" d="M372.439,397.41a.135.135,0,0,0,0,.019.917.917,0,0,0,.079.141l.789,1.157,2.054.207.023-.814A8.2,8.2,0,0,1,372.439,397.41Z" transform="translate(-205.701 -340.851)" opacity="0.1"/>
      <path id="Path_10839" data-name="Path 10839" d="M362.6,398.18s.105,4.634-1.054,5.266-1.61,3.927-1.61,3.927a29.525,29.525,0,0,1,4.3,3.327c.783,1.017,2.581,3.439,2.211,4.018s.9,3.214.9,3.214-2.319,4.741-1.792,6.533a37.427,37.427,0,0,1,.579,6.531h1s-.316-3.9-.316-5.479,1.052-7.217,1.052-7.217.475-5.53,0-5.688-3.265-2.37-3.476-3.373,1.476-10.333,1.476-10.333A9.225,9.225,0,0,1,362.6,398.18Z" transform="translate(-195.786 -341.461)" fill="#f86d70"/>
      <path id="Path_10840" data-name="Path 10840" d="M336.12,450.352a4.509,4.509,0,0,0,.688,1.806l1.947-.331s5.847-1.319,7.054-1.426a7.538,7.538,0,0,0,2.116-.6,9.333,9.333,0,0,0-2.614-4.288l-.742-.688a12.431,12.431,0,0,0-3.741-2.391c.087.072,6.221,5.309,4.877,6.336s-4.96-1.474-4.96-1.474l-4.113-3.534-.149-.128-.238.37a3.451,3.451,0,0,1,.353.169,6.051,6.051,0,0,1,2.893,3.6C340.338,450.608,336.12,450.352,336.12,450.352Z" transform="translate(-176.889 -376.566)" opacity="0.1"/>
      <path id="Path_10841" data-name="Path 10841" d="M330,541.512s3.9,2.16,4.844.949a1.611,1.611,0,0,1,1.186-.413c-.089-.273-.132-.455-.132-.455a14.784,14.784,0,0,0-5.607-.814C330.114,541.224,330,541.512,330,541.512Z" transform="translate(-172.034 -454.557)" fill="#444053"/>
      <path id="Path_10842" data-name="Path 10842" d="M331.794,443.659l4.262,3.666s3.6,2.509,4.96,1.474-4.879-6.339-4.879-6.339h0a12.606,12.606,0,0,1,3.739,2.385l.742.688c1.951,1.808,2.391,1.808,2.457,4.466a3.735,3.735,0,0,1-.378,1.765c-.632.62-1.075,5.123-.978,5.65s-1.178,5.076-.765,6.341-5.167-.632-6.111.581-4.842-.949-4.842-.949,2.16-5.533,2.687-5.9,1.159-3.214,0-4.53a4.914,4.914,0,0,1-1.263-2.581s4.216.26,3.371-2.581a5.964,5.964,0,0,0-3.241-3.766Z" transform="translate(-172.034 -376.59)" fill="#e8e8f0"/>
      <path id="Path_10843" data-name="Path 10843" d="M349.22,493.38s-1.635,3.081-3.749,3.881c-.068.025-.134.048-.207.068C343.057,498,349.385,494.335,349.22,493.38Z" transform="translate(-183.772 -416.986)" opacity="0.1"/>
      <path id="Path_10844" data-name="Path 10844" d="M242.5,334.843a12.3,12.3,0,0,0,1.422,2.687c.632.684,5.32,7.533,5.32,7.533l.4.827.341.7,3-.316.207-1.211-.116-.141a14.188,14.188,0,0,0-1.676-1.757,19.415,19.415,0,0,1-2.054-2.263s-4.266-4.427-4.582-5.638-4.584-8.473-5.53-7.217S242.5,334.843,242.5,334.843Z" transform="translate(-99.912 -285.711)" fill="#fbbebe"/>
      <g id="Group_10594" data-name="Group 10594" transform="translate(146.017 54.102)" opacity="0.1">
        <path id="Path_10845" data-name="Path 10845" d="M277.462,519.066a2.353,2.353,0,0,0-1.06.153c-.744.362-.885,1.339-1.3,2.056a3.476,3.476,0,0,1-2.354,1.55,5.25,5.25,0,0,1-.57.078,6.474,6.474,0,0,0,1.81-.078,3.476,3.476,0,0,0,2.354-1.55c.413-.717.554-1.695,1.3-2.056a1.653,1.653,0,0,1,.62-.145Z" transform="translate(-272.18 -491.46)"/>
        <path id="Path_10846" data-name="Path 10846" d="M319,397.274c0-1.643,1.068-3.059,1.949-4.445s1.62-3.137.924-4.625c-.6-1.271-4.183-2.976-6.254-2.639,2.027.262,4.526,1.6,5.014,2.639.7,1.488-.043,3.239-.924,4.625s-1.953,2.8-1.949,4.445a19.294,19.294,0,0,1-.725,5.768c-.167.589,1.447,1.48,1.2,2.038-.839,1.86-.446,4.005-.581,6.039a2.512,2.512,0,0,1-.283,1.141,2.416,2.416,0,0,1-2.085.893H316c.963,0,2.106-.074,2.6-.9a2.511,2.511,0,0,0,.283-1.141c.134-2.034-.258-4.181.581-6.039.252-.558-1.366-1.447-1.2-2.038A19.064,19.064,0,0,0,319,397.274Z" transform="translate(-306.373 -385.521)"/>
      </g>
      <path id="Path_10847" data-name="Path 10847" d="M290.12,411.2l.341.7,3-.316.207-1.211-.116-.141C293.234,410.4,290.835,411.552,290.12,411.2Z" transform="translate(-140.395 -351.029)" opacity="0.1"/>
      <path id="Path_10848" data-name="Path 10848" d="M301.866,419.664s-.738-1.157-1.159-.843-.585-.949-.827-.738-.947.8-1.24-.023c-.229-.653-2.726-4.784-3.739-6.446-.26-.43-.424-.694-.424-.694s-2.844,1.422-3.528.949v1l.579.054,3.1,5.787s.975,1.552.909,2.094A9.328,9.328,0,0,0,297,423.872c.211.157,2.48,2.792,2.48,2.792s1.159,5.69.157,7.271a10.787,10.787,0,0,1-2.738,2.738,8.84,8.84,0,0,0-.446,1.686c.076.159-.608.843-.291,1.054s.738,1.684.738,1.684,1.476-2.37,2.273-2.738,1.819-5.216,1.819-5.216.291-2.856.314-4.7S301.234,419.664,301.866,419.664Z" transform="translate(-141.054 -351.568)" opacity="0.1"/>
      <path id="Path_10849" data-name="Path 10849" d="M301.1,419.664s-.736-1.157-1.157-.843-.587-.949-.827-.738-.944.8-1.24-.023c-.231-.653-2.728-4.784-3.739-6.446l-.424-.694s-2.844,1.422-3.53.949v1l.581.054,3.1,5.787s.978,1.552.909,2.094a9.089,9.089,0,0,0,1.461,3.069c.221.157,2.48,2.792,2.48,2.792s1.159,5.69.159,7.271a9.69,9.69,0,0,1-1.908,2.112,3.687,3.687,0,0,0-1.24,1.988.785.785,0,0,0-.037.331c.076.157-.608.843-.291,1.054s.742,1.691.742,1.691,1.476-2.37,2.273-2.738,1.821-5.216,1.821-5.216.289-2.856.314-4.7S300.476,419.664,301.1,419.664Z" transform="translate(-140.443 -351.568)" fill="#f86d70"/>
      <path id="Path_10850" data-name="Path 10850" d="M307.041,569.21a10.6,10.6,0,0,1,3.1,1.052c.887.639-3.371-1-3.371-1Z" transform="translate(-153.604 -477.145)" opacity="0.1"/>
      <path id="Path_10851" data-name="Path 10851" d="M333.83,596.35s2.309,1.924,1.9,3.662-1.48,6.111-1.48,6.111Z" transform="translate(-175.072 -498.676)" opacity="0.1"/>
      <path id="Path_10852" data-name="Path 10852" d="M224.424,578.45s-3.253.355-3.042.777,3.042-.388,3.042-.388Z" transform="translate(-85.856 -484.475)" opacity="0.1"/>
      <path id="Path_10853" data-name="Path 10853" d="M350.731,651.753s.207.263-1,0-.316-1.073-.316-1.073Z" transform="translate(-187.185 -541.777)" opacity="0.1"/>
      <path id="Path_10854" data-name="Path 10854" d="M344.687,673.012a7.689,7.689,0,0,1-2.54,0C341.261,672.75,344.687,673.012,344.687,673.012Z" transform="translate(-181.554 -559.402)" opacity="0.1"/>
      <path id="Path_10855" data-name="Path 10855" d="M322.362,741.949s-.289-.316-1.738.262-2.027.606-2.449.413S322.362,741.949,322.362,741.949Z" transform="translate(-162.631 -614.116)" opacity="0.1"/>
      <path id="Path_10856" data-name="Path 10856" d="M338.434,576.28l-2.054,2.858S337.486,576.635,338.434,576.28Z" transform="translate(-177.095 -482.754)" opacity="0.1"/>
      <path id="Path_10857" data-name="Path 10857" d="M315.52,449.15s-.089.949-1.414,1.319a3.62,3.62,0,0,0-1.577.67" transform="translate(-158.174 -381.897)" opacity="0.1"/>
      <path id="Path_10858" data-name="Path 10858" d="M296.623,415.88a5.67,5.67,0,0,1-3.573.978" transform="translate(-142.72 -355.503)" opacity="0.1"/>
      <path id="Path_10859" data-name="Path 10859" d="M316.78,540.2s.51.32,1.736-1.081" transform="translate(-161.546 -453.273)" opacity="0.1"/>
      <path id="Path_10860" data-name="Path 10860" d="M372.42,465.978a.9.9,0,0,0-.3-.694l-.343-.413a1.592,1.592,0,0,0-.225-.232c-.207-.159-.471-.207-.686-.349" transform="translate(-204.457 -393.908)" opacity="0.1"/>
      <path id="Path_10861" data-name="Path 10861" d="M855.711,123.763s-17.4-1.05-15.353,11.144a2.963,2.963,0,0,0,1.546,3.133s.031-.9,1.786-.6a8.164,8.164,0,0,0,1.891.091,3.939,3.939,0,0,0,2.311-.955h0s4.892-2.021,6.793-10.015c0,0,1.407-1.744,1.352-2.193l-2.937,1.254a5.237,5.237,0,0,1,.207,3.879s-.1-3.8-.659-3.72c-.114.019-1.525.734-1.525.734s1.726,3.689.424,6.372c0,0,.494-4.547-.963-6.1l-2.067,1.207s2.017,3.811.649,6.921c0,0,.351-4.77-1.085-6.628l-1.872,1.461s1.9,3.757.74,6.336c0,0-.151-5.553-1.145-5.973a11.515,11.515,0,0,0-1.889,2.038s1.3,2.728.492,4.166c0,0-.494-3.7-.9-3.72a12.281,12.281,0,0,0-1.8,4.133,8.906,8.906,0,0,1,1.407-4.365,4.92,4.92,0,0,0-2.5,1.294s.254-1.732,2.9-1.883a11.45,11.45,0,0,1,1.709-1.974,10.754,10.754,0,0,0-4.23.488s1.405-1.635,4.714-.891l1.85-1.511s-3.468-.473-4.939.05c0,0,1.693-1.447,5.437-.393l2.013-1.2a18.468,18.468,0,0,0-4.718-.413s1.86-1,5.309.085l1.447-.647s-2.166-.426-2.8-.494-.668-.242-.668-.242a7.512,7.512,0,0,1,4.069.453A18.211,18.211,0,0,0,855.711,123.763Z" transform="translate(-576.783 -123.74)" fill="#6c63ff" opacity="0.1"/>
      <path id="Path_10862" data-name="Path 10862" d="M784.546,138.82s-7.853-.475-6.934,5.034a1.347,1.347,0,0,0,.7,1.418s.014-.413.808-.271a3.618,3.618,0,0,0,.853.041,1.771,1.771,0,0,0,1.044-.432h0s2.211-.911,3.071-4.524c0,0,.635-.789.61-.992l-1.327.566a2.38,2.38,0,0,1,.1,1.755s-.043-1.719-.3-1.678c-.052,0-.69.331-.69.331a3.923,3.923,0,0,1,.192,2.881s.223-2.054-.436-2.759l-.934.546a4.113,4.113,0,0,1,.293,3.127s.159-2.156-.49-2.995l-.845.668a4.042,4.042,0,0,1,.335,2.862s-.068-2.509-.519-2.7a5.183,5.183,0,0,0-.854.922s.587,1.24.223,1.881c0,0-.223-1.672-.413-1.678a5.608,5.608,0,0,0-.814,1.86,4.041,4.041,0,0,1,.637-1.974,2.224,2.224,0,0,0-1.13.585s.116-.781,1.312-.851a5.651,5.651,0,0,1,.773-.891,4.846,4.846,0,0,0-1.912.221,2.16,2.16,0,0,1,2.131-.413l.827-.682a7.131,7.131,0,0,0-2.232.023,2.717,2.717,0,0,1,2.457-.178l.909-.544a8.173,8.173,0,0,0-2.133-.184,3.263,3.263,0,0,1,2.4.037l.651-.291s-.98-.194-1.267-.223-.3-.11-.3-.11a3.387,3.387,0,0,1,1.839.207A8.338,8.338,0,0,0,784.546,138.82Z" transform="translate(-527.079 -135.695)" fill="#6c63ff" opacity="0.1"/>
      <ellipse id="Ellipse_3345" data-name="Ellipse 3345" cx="8.31" cy="1.405" rx="8.31" ry="1.405" transform="translate(276.59 131.682)" fill="#6c63ff"/>
      <path id="Path_10863" data-name="Path 10863" d="M931.32,741.877a2.406,2.406,0,0,0,.792-1.2,1.067,1.067,0,0,0-.554-1.217c-.508-.194-1.052.159-1.463.515a1.954,1.954,0,0,1-1.422.686,2.17,2.17,0,0,0,.67-2.027.852.852,0,0,0-.186-.413c-.283-.3-.794-.174-1.132.064a4.221,4.221,0,0,0-1.381,3.53,6.639,6.639,0,0,1-.019-1.447,1.491,1.491,0,0,0-.548-1.288,1.636,1.636,0,0,0-.827-.194,1.717,1.717,0,0,0-1.35.384,1.332,1.332,0,0,0,.052,1.653,5.261,5.261,0,0,0,1.4,1.12,3.1,3.1,0,0,1,1,.953.86.86,0,0,1,.074.172h3.03A8.425,8.425,0,0,0,931.32,741.877Z" transform="translate(-642.982 -611.088)" fill="#6c63ff"/>
    </g>
  </g>
</svg>
