<svg xmlns="http://www.w3.org/2000/svg" width="95.094" height="60.515" viewBox="0 0 95.094 60.515">
  <path id="ic_people_outline_24px" d="M68,39.58A51.811,51.811,0,0,0,48.547,43.9,50.988,50.988,0,0,0,29.1,39.58C19.716,39.58,1,44.248,1,53.627V65.514H96.094V53.627C96.094,44.248,77.378,39.58,68,39.58ZM50.708,59.031H7.484v-5.4c0-2.334,11.065-7.564,21.612-7.564s21.612,5.23,21.612,7.564Zm38.9,0H57.192v-5.4a7.864,7.864,0,0,0-2.248-5.273A41.7,41.7,0,0,1,68,46.063c10.547,0,21.612,5.23,21.612,7.564ZM29.1,35.257A15.129,15.129,0,1,0,13.967,20.129,15.145,15.145,0,0,0,29.1,35.257Zm0-23.773a8.645,8.645,0,1,1-8.645,8.645A8.67,8.67,0,0,1,29.1,11.484ZM68,35.257A15.129,15.129,0,1,0,52.869,20.129,15.145,15.145,0,0,0,68,35.257Zm0-23.773a8.645,8.645,0,1,1-8.645,8.645A8.67,8.67,0,0,1,68,11.484Z" transform="translate(-1 -5)" fill="#363636"/>
</svg>
