<svg xmlns="http://www.w3.org/2000/svg" width="61.732" height="82.297" viewBox="0 0 61.732 82.297">
  <path id="ic_whatshot_24px" d="M40.654.67s2.855,10.224,2.855,18.52c0,7.948-5.209,14.391-13.157,14.391A14.043,14.043,0,0,1,16.346,19.19l.116-1.389A53.121,53.121,0,0,0,4,52.1a30.866,30.866,0,0,0,61.732,0A66.033,66.033,0,0,0,40.654.67ZM33.747,71.392A12.254,12.254,0,0,1,21.324,59.277c0-6.25,4.051-10.649,10.842-12.038,6.829-1.389,13.89-4.669,17.825-9.954a53.835,53.835,0,0,1,2.276,15.587,18.524,18.524,0,0,1-18.52,18.52Z" transform="translate(-4 -0.67)" fill="#363636"/>
</svg>
