<svg id="Icons_24px_Black_Shop" data-name="Icons/24px/Black/Shop" xmlns="http://www.w3.org/2000/svg" width="72.13" height="67.619" viewBox="0 0 72.13 67.619">
  <g id="shop" transform="translate(85 -22)">
    <g id="Group_10637" data-name="Group 10637">
      <path id="Path" d="M71.7,16.485,62.684,1.458A3.005,3.005,0,0,0,60.108,0H12.022A3.005,3.005,0,0,0,9.446,1.458L.43,16.485A3.005,3.005,0,0,0,0,18.032,12,12,0,0,0,11.971,30.054h.024a11.943,11.943,0,0,0,8.036-3.081,11.95,11.95,0,0,0,16.025,0,11.95,11.95,0,0,0,16.04,0A12,12,0,0,0,72.13,18.032,3.005,3.005,0,0,0,71.7,16.485Z" transform="translate(-85 22)" fill="#363636"/>
      <path id="Path-2" data-name="Path" d="M54.505,2.012A19.248,19.248,0,0,1,45.924,0l-.048.022a19.053,19.053,0,0,1-14.619.993A19.54,19.54,0,0,1,28.822.01l-.035.016a19.021,19.021,0,0,1-14.616.99A19.5,19.5,0,0,1,11.74.01a19.187,19.187,0,0,1-8.565,2A19.69,19.69,0,0,1,0,1.723v32.32a3.2,3.2,0,0,0,3.2,3.2H22.422V18.028H35.235V37.247H54.454a3.2,3.2,0,0,0,3.2-3.2V1.711A19.328,19.328,0,0,1,54.505,2.012Z" transform="translate(-78 52.372)" fill="#363636"/>
    </g>
  </g>
</svg>
