<svg id="Icons_24px_Black_Letter" data-name="Icons/24px/Black/Letter" xmlns="http://www.w3.org/2000/svg" width="78.349" height="60.899" viewBox="0 0 78.349 60.899">
  <g id="letter" transform="translate(0 30.002)">
    <path id="Path" d="M43.745,18.608a7.508,7.508,0,0,1-4.57,1.306,7.508,7.508,0,0,1-4.57-1.306L0,0V32.972a9.794,9.794,0,0,0,9.794,9.794H68.556a9.794,9.794,0,0,0,9.794-9.794V0Z" transform="translate(0 -11.868)" fill="#363636"/>
    <path id="Path-2" data-name="Path" d="M67.435,0H9.634A9.633,9.633,0,0,0,0,9.633v3.211a3.372,3.372,0,0,0,1.606,2.89L36.928,35a2.89,2.89,0,0,0,1.606.321A2.89,2.89,0,0,0,40.14,35L75.462,15.735a3.372,3.372,0,0,0,1.606-2.89V9.633A9.633,9.633,0,0,0,67.435,0Z" transform="translate(1 -30.002)" fill="#363636"/>
  </g>
</svg>
