<svg xmlns="http://www.w3.org/2000/svg" width="548" height="77.1" viewBox="0 0 548 77.1">
  <g id="Group_10634" data-name="Group 10634" transform="translate(-266 -120.9)">
    <text id="CariTeman.com" transform="translate(266 132)" fill="#eb8b37" font-size="50" font-family="Roboto-Bold, Roboto" font-weight="700"><tspan x="94.386" y="52">CariTeman.com</tspan></text>
    <g id="Group_10463" data-name="Group 10463" transform="translate(-12 -8)">
      <path id="Shape" d="M33.849.9A29.845,29.845,0,0,0,4,30.749C4,46.384,18.214,59.176,33.849,59.176v9.95C51.9,60.313,63.7,45.815,63.7,30.749A29.845,29.845,0,0,0,33.849.9Z" transform="translate(302 128)" fill="#eb8b37"/>
      <path id="Shape-2" data-name="Shape" d="M15,28.692h7.107V35.8c3.127,0,5.685-3.127,5.685-7.107V15.9H15V28.692ZM32.056,15.9V28.692h7.107V35.8c3.127,0,5.685-3.127,5.685-7.107V15.9Z" transform="translate(306.635 137.163)" fill="#f1f1f1"/>
    </g>
  </g>
</svg>
