<svg xmlns="http://www.w3.org/2000/svg" viewBox="0 0 548 77.1"><g transform="translate(-266 -120.9)" data-name="Group 10634"><text transform="translate(266 132)" font-family="Roboto-Bold, Roboto" font-size="50" style="fill:#eb8b37;font-weight:700"><tspan x="94.4" y="52">  CariTeman.com</tspan></text><g data-name="Group 10463"><path d="M323.8NaNA29.8 29.8 0 0 0 4 30.7C294 166.4 308.2 179.2 323.8 179.2v10C341.9 180.3 353.7 165.8 353.7 150.7A2 9. 8 4 5, 2 9. 8 4 5, 0, 0, 0, 3 3. 8 4 9 3 0 2 3 0 2- 1 2- 1 2Z1 2 8 1 2 8- 8- 8" fill="#eb8b37"/><path d="M309.6 157.9h7.1V165c3.1 0 5.7-3.1 5.7-7.1V145.1H309.6V157.9ZM326.7 145.1V157.9h7.1V165c3.1 0 5.7-3.1 5.7-7.1V145.1Z" data-name="Shape" fill="#f1f1f1"/></g></g></svg>