<?xml version="1.0" encoding="UTF-8"?>
<svg viewBox="0 0 548 77.1" xmlns="http://www.w3.org/2000/svg">
<g transform="translate(-266 -120.9)" data-name="Group 10634">
<text transform="translate(266 132)" fill="#eb8b37" font-family="Roboto-Bold, Roboto" font-size="50" font-weight="700">
<tspan x="94.386" y="52">CariTeman.com</tspan>
</text>
<g transform="translate(-12 -8)" data-name="Group 10463">
<path transform="translate(302 128)" d="M33.849.9A29.845,29.845,0,0,0,4,30.749C4,46.384,18.214,59.176,33.849,59.176v9.95C51.9,60.313,63.7,45.815,63.7,30.749A29.845,29.845,0,0,0,33.849.9Z" fill="#eb8b37"/>
<path transform="translate(306.64 137.16)" d="M15,28.692h7.107V35.8c3.127,0,5.685-3.127,5.685-7.107V15.9H15V28.692ZM32.056,15.9V28.692h7.107V35.8c3.127,0,5.685-3.127,5.685-7.107V15.9Z" fill="#f1f1f1" data-name="Shape"/>
</g>
</g>
</svg>
