<svg id="undraw_male_avatar_323b" xmlns="http://www.w3.org/2000/svg" width="473.571" height="473.589" viewBox="0 0 473.571 473.589">
  <path id="Path_10157" data-name="Path 10157" d="M735.571,348.785A235.983,235.983,0,0,1,716.5,442.029l-.785,1.807A237.177,237.177,0,0,1,457.7,582.019q-2.133-.378-4.259-.784A234.679,234.679,0,0,1,410.607,568.6q-3.373-1.355-6.7-2.809c-1.513-.659-3.026-1.338-4.526-2.039A237.075,237.075,0,0,1,262,348.786C262,218.014,368.014,112,498.785,112S735.571,218.014,735.571,348.785Z" transform="translate(-262 -112)" fill="#eb8b37"/>
  <path id="Path_10158" data-name="Path 10158" d="M498.391,646.805q-2.133-.378-4.259-.785c-.925-26.838-4.1-81.922-14.922-139.612-5.92-31.574-14.137-63.939-25.535-92.872a289.057,289.057,0,0,0-13.359-29.311c-11.517-21.752-25.486-40.064-42.425-52.471l2.494-3.4q21.132,15.489,37.984,43.49,5.054,8.386,9.71,17.892,4.991,10.172,9.52,21.6,2.89,7.272,5.583,15.048,11.727,33.763,19.938,77.046,1.818,9.563,3.461,19.594A993.517,993.517,0,0,1,498.391,646.805Z" transform="translate(-302.692 -176.786)" fill="#232e40" opacity="0.2"/>
  <path id="Path_10159" data-name="Path 10159" d="M445.7,710.34c-1.513-.658-3.026-1.338-4.526-2.039-1.464-15.9-4.154-35.63-9.072-54.356a178.337,178.337,0,0,0-8.273-24.659c-5.612-13.135-12.876-24.3-22.271-31.188l2.494-3.4c9.836,7.2,17.423,18.586,23.286,31.9,6.606,15.006,11.013,32.47,13.948,49.157C443.467,688.153,444.84,700.126,445.7,710.34Z" transform="translate(-303.791 -256.545)" fill="#232e40" opacity="0.2"/>
  <circle id="Ellipse_3188" data-name="Ellipse 3188" cx="21.079" cy="21.079" r="21.079" transform="translate(50.561 112.714)" fill="#232e40" opacity="0.2"/>
  <circle id="Ellipse_3189" data-name="Ellipse 3189" cx="21.079" cy="21.079" r="21.079" transform="translate(57.349 294.162)" fill="#232e40" opacity="0.2"/>
  <path id="Path_10160" data-name="Path 10160" d="M483.217,335.025c-4.47,25.218,5.4,48.052,5.4,48.052s17.114-18.052,21.584-43.27-5.4-48.052-5.4-48.052S487.688,309.808,483.217,335.025Z" transform="translate(-327.896 -165.828)" opacity="0.2"/>
  <path id="Path_10161" data-name="Path 10161" d="M367.1,425.941c24.053,8.8,48.224,3.151,48.224,3.151s-14.828-19.9-38.881-28.7-48.223-3.151-48.223-3.151S343.045,417.146,367.1,425.941Z" transform="translate(-281.829 -196.882)" fill="#232e40" opacity="0.2"/>
  <path id="Path_10162" data-name="Path 10162" d="M366.256,659.155c16.859,6.165,33.825,2.143,33.825,2.143s-10.369-14.017-27.228-20.182-33.825-2.143-33.825-2.143S349.4,652.991,366.256,659.155Z" transform="translate(-285.066 -269.417)" fill="#232e40" opacity="0.2"/>
  <circle id="Ellipse_3190" data-name="Ellipse 3190" cx="92.311" cy="92.311" r="92.311" transform="translate(143.988 104.598)" fill="#d0cde1"/>
  <path id="Path_10163" data-name="Path 10163" d="M547.833,481.634s11.539,54.81,11.539,60.579,54.81,31.732,54.81,31.732l49.041-8.654,17.308-51.925s-28.847-43.271-28.847-60.579Z" transform="translate(-347.593 -214.049)" fill="#d0cde1"/>
  <path id="Path_10164" data-name="Path 10164" d="M754.005,563.39l-.785,1.807A237.177,237.177,0,0,1,495.2,703.381q-2.133-.378-4.259-.785a234.656,234.656,0,0,1-42.831-12.631q-3.373-1.355-6.7-2.809c-1.513-.659-3.026-1.338-4.526-2.039A236.5,236.5,0,0,1,398.183,662.5L387.24,630.762l6.151-4.694,12.652-9.661,13.5-10.3,3.51-2.683,52.969-40.436L479.93,560l27.531-21.016.007-.007s29.773,48.513,73.046,34.089,42.327-55.785,42.327-55.785Z" transform="translate(-299.503 -233.362)" fill="#2f2e41"/>
  <path id="Path_10165" data-name="Path 10165" d="M475.755,265.1s29.308-63.5,85.483-48.848,87.926,36.636,90.368,58.617-1.221,54.953-1.221,54.953-6.106-45.184-45.184-35.414-100.137,2.442-100.137,2.442l-9.77,87.926s-10.991-15.875-23.2-6.106S436.677,284.637,475.755,265.1Z" transform="translate(-319.508 -142.56)" fill="#2f2e41"/>
  <path id="Path_10166" data-name="Path 10166" d="M443.1,738.473q-3.373-1.355-6.7-2.809c-1.513-.659-3.026-1.338-4.526-2.039A237.372,237.372,0,0,1,370.52,692.5a83.014,83.014,0,0,1,11.713-13.233h43.273l6.487,21.815Z" transform="translate(-294.496 -281.87)" fill="#2f2e41"/>
  <path id="Path_10167" data-name="Path 10167" d="M855.541,576.32l37.122,6.557A236.746,236.746,0,0,1,852.9,644.925Z" transform="translate(-438.946 -251.041)" fill="#2f2e41"/>
</svg>
