<svg xmlns="http://www.w3.org/2000/svg" width="228.387" height="193.242" viewBox="0 0 228.387 193.242">
  <g id="undraw_work_time_lhoj" transform="translate(0 0.002)">
    <ellipse id="Ellipse_3322" data-name="Ellipse 3322" cx="9.695" cy="1.487" rx="9.695" ry="1.487" transform="translate(11.615 163.323)" fill="#ffc107" opacity="0.1"/>
    <ellipse id="Ellipse_3323" data-name="Ellipse 3323" cx="9.695" cy="1.487" rx="9.695" ry="1.487" transform="translate(151.449 165.346)" fill="#ffc107" opacity="0.1"/>
    <ellipse id="Ellipse_3324" data-name="Ellipse 3324" cx="9.695" cy="1.487" rx="9.695" ry="1.487" transform="translate(127.565 179.123)" fill="#ffc107" opacity="0.1"/>
    <ellipse id="Ellipse_3325" data-name="Ellipse 3325" cx="9.695" cy="1.487" rx="9.695" ry="1.487" transform="translate(43.031 152.227)" fill="#ffc107" opacity="0.1"/>
    <ellipse id="Ellipse_3326" data-name="Ellipse 3326" cx="55.611" cy="11.988" rx="55.611" ry="11.988" transform="translate(0 169.264)" fill="#ffc107" opacity="0.1"/>
    <path id="Path_10594" data-name="Path 10594" d="M349.2,170.631a28.633,28.633,0,0,1-6.227,9.747,23,23,0,0,1-11.995,5.855,36.126,36.126,0,0,1-3.981.515,57.864,57.864,0,0,1-10.608-.286,125.425,125.425,0,0,1-24.987-5.346q-2-.646-3.981-1.361-2.986-1.07-5.918-2.3c-7.962-3.328-16.194-7.571-24.664-6.255-4.105.639-7.962,2.576-12.077,3.152a21.594,21.594,0,0,1-8.627-.614,29.64,29.64,0,0,1-3.981-1.375,45.3,45.3,0,0,1-8.271-4.684c-6.206-4.337-11.775-9.714-18.308-13.47-7.2-4.143-15.177-6.112-23.3-7.58q-1.984-.358-3.981-.684c-3.759-.621-7.527-1.194-11.241-1.873-3.578-.66-7.22-1.468-10.334-3.454a25.837,25.837,0,0,1-5.805-5.447,64.982,64.982,0,0,1-8.084-12.463q-.176-.351-.344-.7a86.408,86.408,0,0,1-7.173-22.716c-.042-.234-.082-.468-.122-.7A128.275,128.275,0,0,1,133.517,74.7l.014-.7c.091-3.955.337-7.894.7-11.777.262-2.731.614-5.564,2.028-7.859a14.979,14.979,0,0,1,6.014-5c10.149-5.4,19.87-6.906,30.778-4.288,1.752.419,3.5.871,5.241,1.34,1.328.356,2.656.724,3.981,1.094,9.163,2.555,18.3,5.274,27.776,6.089q1.372.119,2.747.183,2.719.126,5.438.056a93.949,93.949,0,0,0,13.92-1.433q2-.344,3.981-.763c5.714-1.192,11.377-2.782,16.948-4.541q1.707-.539,3.41-1.1c2.557-.836,5.115-1.688,7.676-2.517,7.648-2.48,15.334-4.744,23.252-5.658q1.016-.115,2.033-.2c.649-.056,1.3-.1,1.948-.133a66.263,66.263,0,0,1,35.6,8.37q2.028,1.126,3.981,2.4,2.71,1.763,5.253,3.794a42.2,42.2,0,0,1,9.206,9.73A35.216,35.216,0,0,1,350.321,74c.049.234.1.468.138.7a56.308,56.308,0,0,1-.574,21.664c-.157.74-.323,1.482-.5,2.222-.054.234-.11.468-.166.7-1.6,6.676-3.649,13.334-3.115,20.161.068.859.176,1.712.316,2.555.04.234.08.468.124.7,1.044,5.569,3.419,10.852,4.843,16.367a50.424,50.424,0,0,1-2.19,31.551Z" transform="translate(-128.545 -37.41)" fill="#ffc107" opacity="0.1"/>
    <path id="Path_10595" data-name="Path 10595" d="M331.048,75H350.53c-.042-.234-.089-.468-.138-.7H331.048V48.558q-1.953-1.269-3.981-2.4V74.3h-35.6V37.79c-.649.033-1.3.077-1.948.133s-1.356.126-2.033.2V74.3H236.673l-.122-.133,27.687-30.38c-2.562.829-5.119,1.681-7.676,2.517L236.2,68.639v-16.7q-1.988.417-3.981.763V69.409L218.3,54.133q-2.719.066-5.438-.056l18.3,20.086-.122.133h-48.71V47.808c-1.325-.37-2.653-.738-3.981-1.094V74.3H133.594l-.014.7h44.782V98.885H135.254c.04.234.08.468.122.7h42.986V122.3H142.549q.169.351.344.7h35.469v23.245q2,.328,3.981.684V123.006h49.88v49.646a29.646,29.646,0,0,0,3.981,1.375V123.006H287.49v57.039q1.981.717,3.981,1.361v-58.4h35.6v64.032a36.122,36.122,0,0,0,3.981-.515V123.006h15.568c-.044-.234-.084-.468-.124-.7H331.036V99.588h18.243c.056-.234.112-.468.166-.7h-18.4Zm-3.981,0V98.885h-35.6V75ZM287.49,98.885H236.2V75H287.49ZM182.343,75h49.178l.7.639V98.885h-49.88Zm0,47.3V99.588h49.88V122.3Zm53.862,0V99.588H287.49V122.3Zm90.862,0h-35.6V99.588h35.6Z" transform="translate(-128.613 -37.703)" fill="#ffc107" opacity="0.1"/>
    <path id="Path_10596" data-name="Path 10596" d="M842.535,121.562h-.309a.756.756,0,0,0,.377-.614h0c0-.482-.593-.878-1.316-.878H832.06c-.724,0-1.318.4-1.318.878h0c0,.485.595.881,1.318.881h.309a.759.759,0,0,0-.377.614c0,.412.431.761,1.007.855h-2.66c-.726,0-1.318.4-1.318.878s.592.881,1.318.881h9.229c.726,0,1.318-.4,1.318-.881,0-.412-.431-.759-1.009-.852h2.658c.724,0,1.316-.4,1.316-.881S843.258,121.562,842.535,121.562Z" transform="translate(-661.195 -100.714)" fill="#ffc107" opacity="0.1"/>
    <path id="Path_10597" data-name="Path 10597" d="M415.375,157.324h-.309a.768.768,0,0,0,.377-.614h0c0-.485-.592-.881-1.318-.881h-9.229c-.726,0-1.318.4-1.318.881h0c0,.482.592.878,1.318.878h.307a.766.766,0,0,0-.375.614c0,.414.431.761,1.007.855h-2.656c-.726,0-1.318.4-1.318.881s.592.878,1.318.878h9.229c.726,0,1.318-.4,1.318-.878,0-.415-.433-.761-1.009-.855h2.658c.724,0,1.316-.4,1.316-.881S416.1,157.324,415.375,157.324Z" transform="translate(-334.067 -128.1)" fill="#ffc107" opacity="0.1"/>
    <path id="Path_10598" data-name="Path 10598" d="M902.995,310.392h-.309a.768.768,0,0,0,.377-.614h0c0-.482-.592-.878-1.318-.878h-9.229c-.726,0-1.318.4-1.318.878h0c0,.482.593.878,1.318.878h.307a.764.764,0,0,0-.375.614c0,.412.431.761,1.007.855H890.8c-.724,0-1.316.4-1.316.878s.592.881,1.316.881h9.231c.724,0,1.318-.4,1.318-.881,0-.412-.433-.759-1.009-.852h2.658c.724,0,1.316-.4,1.316-.88S903.718,310.392,902.995,310.392Z" transform="translate(-707.496 -245.324)" fill="#ffc107" opacity="0.1"/>
    <path id="Path_10599" data-name="Path 10599" d="M226.454,601.47l107.9,12.126v3.44L226.18,604.5Z" transform="translate(-173.213 -460.619)" fill="#eaecf0"/>
    <path id="Path_10600" data-name="Path 10600" d="M219.957,489.806H217.91V438.97l1.473.447.016,1.525Z" transform="translate(-166.88 -336.174)" fill="#eaecf0"/>
    <path id="Path_10601" data-name="Path 10601" d="M225.675,490.449l-.9.82-.557-48.864-.016-1.525h1.066l.014,1.616Z" transform="translate(-171.697 -337.636)" fill="#d3dae1"/>
    <path id="Path_10602" data-name="Path 10602" d="M92.83,612.925l29.865-10.4v.984L92.83,613.826Z" transform="translate(-71.091 -461.423)" fill="#d3dae1"/>
    <path id="Path_10603" data-name="Path 10603" d="M93.364,619.417l-.534-2.375L122.7,606.72v2.047Z" transform="translate(-71.091 -464.64)" fill="#eaecf0"/>
    <path id="Path_10604" data-name="Path 10604" d="M682.759,425.14v67.182H681.2L681.122,430l0-1.993Z" transform="translate(-521.615 -325.582)" fill="#eaecf0"/>
    <path id="Path_10605" data-name="Path 10605" d="M689.265,423.74v66.936l-1.145.574V424.068Z" transform="translate(-526.976 -324.51)" fill="#d3dae1"/>
    <path id="Path_10606" data-name="Path 10606" d="M586.13,664.958l22.308-12.468,1.576.916L586.13,666.431Z" transform="translate(-448.87 -499.691)" fill="#d3dae1"/>
    <path id="Path_10607" data-name="Path 10607" d="M586.828,672.212l-.7-2.787L610.014,656.4v2.7Z" transform="translate(-448.87 -502.686)" fill="#eaecf0"/>
    <path id="Path_10608" data-name="Path 10608" d="M574.76,468.29l.082,70.952h2.213l-.328-71.772Z" transform="translate(-440.162 -357.999)" fill="#eaecf0"/>
    <path id="Path_10609" data-name="Path 10609" d="M584.553,464.67v71.854l-1.065.574-.328-71.772.131-.061Z" transform="translate(-446.595 -355.855)" fill="#d3dae1"/>
    <path id="Path_10610" data-name="Path 10610" d="M83.3,494.951H81.416l-.646-63.468-.009-1.094h1.8l.014,1.248Z" transform="translate(-61.848 -329.603)" fill="#eaecf0"/>
    <path id="Path_10611" data-name="Path 10611" d="M90.507,494.459l-1.309.492-.724-63.313-.014-1.248h1.393l.012,1.37Z" transform="translate(-67.744 -329.603)" fill="#d3dae1"/>
    <path id="Path_10612" data-name="Path 10612" d="M583.72,465.265l1.262-.595v2.787l-1.229.41Z" transform="translate(-447.024 -355.855)" opacity="0.1"/>
    <path id="Path_10613" data-name="Path 10613" d="M683.9,423.74V428l-1.145.384-1.637.543,0-1.993,1.639-2.866Z" transform="translate(-521.615 -324.51)" opacity="0.1"/>
    <path id="Path_10614" data-name="Path 10614" d="M608.885,388.75v11.8l-25.561,8.522-.164-12.618Z" transform="translate(-446.595 -297.714)" fill="#d48a9b"/>
    <path id="Path_10615" data-name="Path 10615" d="M79.36,364.358l33.593-6.388,110.112,7.208-25.725,7.7Z" transform="translate(-60.775 -274.142)" fill="#efc6cd"/>
    <path id="Path_10616" data-name="Path 10616" d="M83.957,430.39l.012,1.37-1.391-.122-1.808-.155-.009-1.094Z" transform="translate(-61.848 -329.603)" opacity="0.1"/>
    <path id="Path_10617" data-name="Path 10617" d="M220.463,441.033l-1.063-.091-1.489-.126V438.97l1.473.447h1.065Z" transform="translate(-166.88 -336.174)" opacity="0.1"/>
    <path id="Path_10618" data-name="Path 10618" d="M79.36,385.25v10.981L197.5,406.39l-.164-12.618Z" transform="translate(-60.775 -295.034)" fill="#d48a9b"/>
    <path id="Path_10619" data-name="Path 10619" d="M428.91,422.689H413.48v-5.6l15.43,1.087Z" transform="translate(-316.651 -319.417)" fill="#d48a9b"/>
    <path id="Path_10620" data-name="Path 10620" d="M428.91,422.689H413.48v-5.6l15.43,1.087Z" transform="translate(-316.651 -319.417)" opacity="0.1"/>
    <path id="Path_10621" data-name="Path 10621" d="M324.96,411.85V420.7L384.2,425.2v-9.421l-23.1-1.311L358.8,416.52l-9.421-.656-3.358-2.459Z" transform="translate(-248.861 -315.405)" opacity="0.1"/>
    <path id="Path_10622" data-name="Path 10622" d="M323.56,410.44v8.85L382.8,423.8v-9.421l-23.1-1.311-2.293,2.049-9.423-.656L344.618,412Z" transform="translate(-247.789 -314.325)" fill="#fff"/>
    <path id="Path_10623" data-name="Path 10623" d="M162.881,400.3l14.009.984-.164,4.452h-9.147l-6.119-2.405Z" transform="translate(-123.649 -306.559)" fill="#d48a9b"/>
    <path id="Path_10624" data-name="Path 10624" d="M162.881,400.3l14.009.984-.164,4.452h-9.147l-6.119-2.405Z" transform="translate(-123.649 -306.559)" opacity="0.1"/>
    <path id="Path_10625" data-name="Path 10625" d="M87.76,395.05V403l53.747,4.26v-8.44l-20.73-1.227-2.211,1.637-8.358-.489-3.44-2.131Z" transform="translate(-67.208 -302.539)" opacity="0.1"/>
    <path id="Path_10626" data-name="Path 10626" d="M86.36,393.65V401.6l53.747,4.26V397.42l-20.73-1.229-2.211,1.639-8.358-.492-3.44-2.131Z" transform="translate(-66.136 -301.467)" fill="#fff"/>
    <path id="Path_10627" data-name="Path 10627" d="M96.65,649.067l.368-.126-.185,2.613-.183.066Z" transform="translate(-74.016 -496.973)" opacity="0.1"/>
    <path id="Path_10628" data-name="Path 10628" d="M540.959,393.78l7.534.494-12.484,3.737-6.358-.461Z" transform="translate(-405.616 -301.566)" opacity="0.1"/>
    <path id="Path_10629" data-name="Path 10629" d="M540.959,392.38l7.534.494-12.484,3.735-6.358-.459Z" transform="translate(-405.616 -300.494)" fill="#fff"/>
    <path id="Path_10630" data-name="Path 10630" d="M686.46,433.281c.3-.126.614.112.937.173.18.035.368,0,.548.035.37.049.738.3,1.089.171" transform="translate(-552.019 -340.55)" fill="#d3dae1"/>
    <path id="Path_10631" data-name="Path 10631" d="M684.8,434.247c.3-.129.614.11.937.171.18.035.368,0,.55.035.37.049.735.3,1.087.171" transform="translate(-550.748 -341.289)" fill="#d3dae1"/>
    <path id="Path_10632" data-name="Path 10632" d="M681,436.171c.3-.126.616.112.937.173.18.035.368,0,.55.035.37.049.735.3,1.087.171" transform="translate(-547.838 -342.763)" fill="#d3dae1"/>
    <circle id="Ellipse_3327" data-name="Ellipse 3327" cx="2.199" cy="2.199" r="2.199" transform="translate(9.51 170.451)" fill="#535461"/>
    <circle id="Ellipse_3328" data-name="Ellipse 3328" cx="2.199" cy="2.199" r="2.199" transform="translate(13.444 179.053)" fill="#535461"/>
    <circle id="Ellipse_3329" data-name="Ellipse 3329" cx="2.199" cy="2.199" r="2.199" transform="translate(52.677 180.61)" fill="#535461"/>
    <circle id="Ellipse_3330" data-name="Ellipse 3330" cx="2.199" cy="2.199" r="2.199" transform="translate(61.442 169.386)" fill="#535461"/>
    <rect id="Rectangle_1559" data-name="Rectangle 1559" width="2.754" height="17.205" transform="translate(36.075 133.816)" fill="#535461"/>
    <rect id="Rectangle_1560" data-name="Rectangle 1560" width="2.754" height="2.787" transform="translate(36.075 148.235)" opacity="0.1"/>
    <rect id="Rectangle_1561" data-name="Rectangle 1561" width="3.817" height="19.09" transform="translate(35.544 148.89)" fill="#3a3768"/>
    <path id="Path_10633" data-name="Path 10633" d="M300.372,750.853,275.38,749.83v4.021h29A4.431,4.431,0,0,0,300.372,750.853Z" transform="translate(-237.206 -582.997)" fill="#3a3768"/>
    <path id="Path_10634" data-name="Path 10634" d="M155.542,750.853l24.992-1.023v4.021h-29A4.428,4.428,0,0,1,155.542,750.853Z" transform="translate(-142.359 -582.997)" fill="#3a3768"/>
    <path id="Path_10635" data-name="Path 10635" d="M189.712,750.248l-19.952,9.836a5.058,5.058,0,0,0-2.81,4.531v.3l23.3-10.159,3.279-.246,19.376,12.372h0a5.054,5.054,0,0,0-2.087-4.8l-17.29-12.241Z" transform="translate(-154.168 -583.005)" fill="#3a3768"/>
    <path id="Path_10636" data-name="Path 10636" d="M269.174,608.83v1.855q-.724.03-1.475.031c-.433,0-.859,0-1.279-.023V608.83Z" transform="translate(-230.345 -475.016)" opacity="0.1"/>
    <ellipse id="Ellipse_3331" data-name="Ellipse 3331" cx="10.161" cy="2.972" rx="10.161" ry="2.972" transform="translate(27.193 129.1)" fill="#3a3768"/>
    <path id="Path_10637" data-name="Path 10637" d="M248.432,591.672a1.213,1.213,0,0,1-.433.859c-1.255,1.222-5.136,2.108-9.726,2.108-4.489,0-8.295-.852-9.641-2.03a1.288,1.288,0,0,1-.522-.937c0-1.639,4.55-2.972,10.163-2.972S248.432,590.03,248.432,591.672Z" transform="translate(-201.006 -459.6)" opacity="0.1"/>
    <path id="Path_10638" data-name="Path 10638" d="M248.8,591.687a1.213,1.213,0,0,1-.433.859c-1.293-.323-2.187-.59-2.187-.59s-8.957.5-17.179.672a1.288,1.288,0,0,1-.522-.937c0-1.639,4.55-2.972,10.163-2.972S248.8,590.045,248.8,591.687Z" transform="translate(-201.289 -459.616)" opacity="0.1"/>
    <path id="Path_10639" data-name="Path 10639" d="M162.065,424.419s3.361,9.178,3.2,14.667-2.787,15.812-2.787,15.812-2.62,8.358,4.1,9.1,28.675-.492,28.675-.492,8.2,2.457,10.814,1.391a6.517,6.517,0,0,0,2.6-2.279,4.765,4.765,0,0,0-1.236-6.8,14.2,14.2,0,0,0-3.951-1.7,3.171,3.171,0,0,0-.9-.11l-28.629.564a3.078,3.078,0,0,1-2.62-3.686c.574-3.194,1.555-13.027,1.555-13.027s.164-11.962-5.571-15.32S162.065,424.419,162.065,424.419Z" transform="translate(-150.355 -331.489)" fill="#3a3768"/>
    <path id="Path_10640" data-name="Path 10640" d="M162.065,424.289s3.361,9.175,3.2,14.664-2.787,15.814-2.787,15.814-2.62,8.356,4.1,9.093,28.675-.494,28.675-.494,8.2,2.459,10.814,1.405a6.554,6.554,0,0,0,2.6-2.279,4.768,4.768,0,0,0-1.236-6.805,14.337,14.337,0,0,0-3.951-1.7,3.091,3.091,0,0,0-.9-.108l-28.629.555a3.08,3.08,0,0,1-2.62-3.688c.574-3.2,1.555-13.025,1.555-13.025s.164-11.962-5.571-15.322S162.065,424.289,162.065,424.289Z" transform="translate(-150.355 -331.387)" opacity="0.1"/>
    <path id="Path_10641" data-name="Path 10641" d="M164.864,423.019s3.36,9.178,3.2,14.667-2.787,15.812-2.787,15.812-2.62,8.358,4.1,9.1,28.675-.492,28.675-.492,8.2,2.457,10.817,1.405a6.542,6.542,0,0,0,2.6-2.281,4.766,4.766,0,0,0-1.236-6.8,14.2,14.2,0,0,0-3.951-1.707,3.176,3.176,0,0,0-.9-.11l-28.629.564a3.079,3.079,0,0,1-2.62-3.686c.574-3.194,1.555-13.027,1.555-13.027s.164-11.962-5.571-15.32S164.864,423.019,164.864,423.019Z" transform="translate(-152.499 -330.417)" fill="#3a3768"/>
    <path id="Path_10642" data-name="Path 10642" d="M412.986,741.475v2.962s14.152.255,17.268.255,7.407-1.532,7.662-2.759-3.576-2.248-5.007-2.3-1.48-.614-3.321-1.585a19.167,19.167,0,0,1-3.789-3.419c-.906-.988-1.574-1.792-1.574-1.792s-7.613-.152-9.81,1.073a2.665,2.665,0,0,0-1.094,1.522A17.015,17.015,0,0,0,412.986,741.475Z" transform="translate(-342.488 -569.981)" fill="#434175"/>
    <path id="Path_10643" data-name="Path 10643" d="M414.85,735.435c1.6-.555,10.941-.77,12.477-.8-.906-.988-1.574-1.792-1.574-1.792s-7.613-.152-9.81,1.073A2.657,2.657,0,0,0,414.85,735.435Z" transform="translate(-344.015 -569.981)" opacity="0.1"/>
    <path id="Path_10644" data-name="Path 10644" d="M239.54,535.55l.824.5.309.187,1.2.721c6.421,3.871,23.936,14.36,24.9,14.285.251-.021,1-.133,2.047-.3.276-.044.574-.091.885-.145,4.012-.667,10.679-1.874,11.423-2.206,1.021-.468.817,1.583.407,3.321s-.714,10.07-.255,11.138a6.807,6.807,0,0,1,.255,2.81l-.611,9.348.41,1.986s-1.379,1.124-.817,1.787.052,3.527.052,3.527c1.639-.614,12.721-.817,12.721-.817s-.468-4.089-.052-5.058.1-6.744.1-6.744.255-4.393-.2-5.414.152-7.562.152-7.562.41-3.883.511-11.8-4.5-8.173-4.5-8.173-.611-.049-1.543-.138c-1.82-.176-4.855-.508-6.883-.937a11.873,11.873,0,0,1-1.229-.328c-2.5-.852-10.932-.885-12.311-.272a3.685,3.685,0,0,1-2.754,0h0l-1.073-1.738-10.248.874-1.084.094-10.088.859-.7.061Z" transform="translate(-209.759 -417.342)" fill="#565387"/>
    <path id="Path_10645" data-name="Path 10645" d="M409.947,551.021c2.976,1.452,5.817-3.693,7.14-6.595-1.82-.176-4.855-.508-6.883-.937C408.872,545.717,407.093,549.633,409.947,551.021Z" transform="translate(-339.091 -424.978)" opacity="0.1"/>
    <path id="Path_10646" data-name="Path 10646" d="M376.759,410.824a3.087,3.087,0,0,0,.361,1,80.4,80.4,0,0,0,4.288,6.819,7.385,7.385,0,0,1,2.342,2.342c.869,1.482,1.124,4.955,1.124,4.955s1.941,7.714,2.859,8.789c.468.536.255.855-.063,1.04a4.55,4.55,0,0,0-1.611,1.51c-1.34,2.152-3.478,6.426-.468,7.892,4.086,1.993,7.92-8.452,7.92-8.452s-.768-7.407-.972-8.683-1.431-6.541-1.431-6.541-.869-2.248-1.379-3.831a12.984,12.984,0,0,0-2.042-3.424,63.778,63.778,0,0,0-3.527-6.335c-.356-.379-.855-.857-1.286-1.26-.5-.468-.911-.834-.911-.834S376.707,409.6,376.759,410.824Z" transform="translate(-314.844 -319.54)" fill="#ee8e9e"/>
    <path id="Path_10647" data-name="Path 10647" d="M228.85,730.172l9.3,4.138s12.049.255,14.156-.307,1.639-2.911-1.124-3.372-3.421-1.684-4.342-2.246A43.805,43.805,0,0,1,242.648,724c-.658-.747-1.124-1.288-1.124-1.288s-1.789-4.751-6.744-3.679a5.089,5.089,0,0,0-2.414,1.276c-2.672,2.473-2.9,7.365-2.9,7.365Z" transform="translate(-201.573 -559.292)" fill="#434175"/>
    <path id="Path_10648" data-name="Path 10648" d="M244.38,535.517l1.2.721c6.421,3.871,23.936,14.36,24.9,14.285.251-.021,1-.133,2.047-.3.276-.044.574-.091.885-.145l.035-.059a11.707,11.707,0,0,0,1.171-2.864c1.073-4.086-4.241-7.2-4.241-7.2l-1.124-.874c-1.276-2.15-10.473-4.182-10.473-4.182l-1.185-.808-.635-.426-.166-.11-1.438-.967-7.2.511-2.14,1.375-.234.145-.782.513Z" transform="translate(-213.466 -416.623)" opacity="0.1"/>
    <path id="Path_10649" data-name="Path 10649" d="M243.86,720.334c1.955,6.766,10.124,4.555,10.124,4.555l.155-.857c-.658-.747-1.124-1.288-1.124-1.288s-1.789-4.751-6.744-3.679A5.089,5.089,0,0,0,243.86,720.334Z" transform="translate(-213.068 -559.315)" opacity="0.1"/>
    <path id="Path_10650" data-name="Path 10650" d="M227.6,547.611c3.014,0,10.772,3.627,10.772,3.627a5.14,5.14,0,0,0,3.728.817s-3.773,3.831-3.667,5.417-2.147,4.19-2.147,4.19L229.336,575.4c.513,9.758,10.524,7.051,10.524,7.051l.41-2.3c.614-.307,1.534-3.372,1.534-3.372s0-1.225.611-1.583,1.89-4.037,1.89-4.037,2.759-4.648,2.6-5.26,1.993-3.728,1.993-3.728,3.627-3.576,3.473-4.215,2.918-3.911,2.918-3.911A10.28,10.28,0,0,0,258,550.883a11.74,11.74,0,0,0,1.171-2.862c.864-3.293-2.414-5.955-3.723-6.866-.316-.22-.518-.337-.518-.337l-1.124-.873c-.581-.979-2.8-1.934-5.047-2.681-1.621-.541-3.255-.977-4.3-1.236-.7-.171-1.124-.267-1.124-.267l-1.185-.8-.417-.281-.382-.255-1.44-.967-3.2.234-4,.283-2.138,1.377-1.021.656-3.993,2.576s-.105.981-.138,2.3v.311C225.367,543.853,225.655,547.611,227.6,547.611Z" transform="translate(-198.942 -417.296)" fill="#565387"/>
    <path id="Path_10651" data-name="Path 10651" d="M300.4,333.333l1.077,3.831s1.892,6.592,2.1,7.051a70.748,70.748,0,0,0,5.365,5.211c.213.1,2.9,1.639,2.9,1.639s.213-8.43,0-10.88a7,7,0,0,1,.133-1.606,60.269,60.269,0,0,1,1.834-6.911c.571-1.82,1.047-3.183,1.047-3.183s-11.955-.513-11.545.663a4.215,4.215,0,0,1-.044,1.932c-.248,1.227-.761,2.454-1.08,2.361a4.2,4.2,0,0,0-.948-.105C300.8,333.317,300.4,333.333,300.4,333.333Z" transform="translate(-256.367 -260.238)" fill="#ee8e9e"/>
    <path id="Path_10652" data-name="Path 10652" d="M312.65,331.061a8.843,8.843,0,0,0,10.538.588c.571-1.82,1.047-3.182,1.047-3.182s-11.955-.513-11.545.663A4.14,4.14,0,0,1,312.65,331.061Z" transform="translate(-265.748 -260.223)" opacity="0.1"/>
    <path id="Path_10653" data-name="Path 10653" d="M299.09,280.728a8.8,8.8,0,1,0,2.577-6.262A8.84,8.84,0,0,0,299.09,280.728Z" transform="translate(-255.364 -216.981)" fill="#ee8e9e"/>
    <path id="Path_10654" data-name="Path 10654" d="M300.4,349.528l1.077,3.831s1.892,6.592,2.1,7.051a70.748,70.748,0,0,0,5.365,5.211c.213.1,2.9,1.639,2.9,1.639s.213-8.43,0-10.88a7,7,0,0,1,.133-1.607l-.7,2.831.052,5.672.407.307-.918,1.379V363.94s-3.279-3.166-3.782-4.5a21.845,21.845,0,0,0-2.342-3.733,28.425,28.425,0,0,1-2.145-4.133,6.705,6.705,0,0,0-1.307-2.047C300.8,349.512,300.4,349.528,300.4,349.528Z" transform="translate(-256.367 -276.433)" opacity="0.1"/>
    <path id="Path_10655" data-name="Path 10655" d="M376.759,410.847a3.088,3.088,0,0,0,.361,1,6.306,6.306,0,0,0,5.761-5.171c-.5-.468-.911-.834-.911-.834S376.707,409.624,376.759,410.847Z" transform="translate(-314.844 -319.563)" opacity="0.1"/>
    <path id="Path_10656" data-name="Path 10656" d="M225.39,541.145c1.03-.731,2.012-1.726,2.6-2a11.307,11.307,0,0,0,2.2-1.738s.337-.234.855-.534a10.335,10.335,0,0,1,3.693-1.459c1.066-.089,4.611-.316,7.4-.489l3.637-.234s3.321-1.171,4.752-.41a15.076,15.076,0,0,0,3.218,1.171v-.3h0l-1.073-1.738-11.332.967-1.44-.967-7.2.511-2.138,1.377-1.845.157.824.5-3.993,2.576S225.413,539.672,225.39,541.145Z" transform="translate(-198.923 -417.258)" opacity="0.1"/>
    <path id="Path_10657" data-name="Path 10657" d="M216.862,399.84a4.652,4.652,0,0,0,1.5-.763h0c1.028-.728,2.007-1.721,2.59-2a11.31,11.31,0,0,0,2.2-1.738s2.709-1.841,4.548-1.993c.5-.042,1.55-.115,2.81-.2l4.171-.267,2.164-.136,1.89-.115s3.321-1.171,4.752-.41A15.075,15.075,0,0,0,246.7,393.4a29.41,29.41,0,0,1,.468-5.058c.417-1.482.97-4.19.97-4.19s.468-3.728.92-5.414,2.248-11.086,3.168-11.709,1.428.468,1.428.468a6.45,6.45,0,0,0,6.234-6.845s-2.862-2.862-3.065-3.576-2.911-3.372-2.911-3.372-1.534-2.862-3.279-2.913a13.753,13.753,0,0,0-2.459.077l-1.475,6,.051,5.672.41.307-.92,1.379v-1s-3.279-3.168-3.78-4.5a21.846,21.846,0,0,0-2.342-3.735,29.891,29.891,0,0,1-2.145-4.133c-.052-.621-1.482-2.255-1.482-2.255a3.623,3.623,0,0,0-.869,0,.937.937,0,0,1-.379-.054,5.131,5.131,0,0,0-2.553-.145c-1.766.368-4.449,1.037-5.189,1.841-1.124,1.227-2.759,2.4-4.6,7.51l9.911,3.576-.848,1.613-7.887,14.988s-.262.426-.616.981h0c-.468.721-1.075,1.665-1.48,2.183-.714.92-.51,3.831-.51,3.831a4.1,4.1,0,0,1-.663,1.892c-.511.513-.412,2.4-.412,2.4l-1.328,4.955s-1.227,1.124-1.227,1.639a6.691,6.691,0,0,1-.97,1.941S215.386,400.2,216.862,399.84Z" transform="translate(-191.891 -275.501)" fill="#dfe5ee"/>
    <path id="Path_10658" data-name="Path 10658" d="M247.16,426.763h0a7.721,7.721,0,0,1,.157.855s4.035,9.451,4.545,10.014c.157.173.752,1.023,1.5,2.108l.855,1.262c1.543,2.293,3.279,4.9,3.279,4.9l3.78,3.321s8.224.658,10.838-2.012c-.316-.22-.518-.337-.518-.337L270.468,446c-.581-.979-2.8-1.934-5.047-2.681-2.07.014-3.763.183-3.763.183l-.539-1.419-.562-1.48-2.866-7.513s-1.843-9.5-2.457-9.962-.468-1.89-.468-1.89,1.124-4.035.714-4.6.665-4.7.665-4.7a4.241,4.241,0,0,0-.492-1.145l-7.887,14.988S247.514,426.2,247.16,426.763Z" transform="translate(-215.595 -323.353)" opacity="0.1"/>
    <path id="Path_10659" data-name="Path 10659" d="M251.437,400.166s-1.073,4.138-.663,4.7-.717,4.6-.717,4.6-.152,1.431.468,1.89,2.457,9.962,2.457,9.962l3.958,10.423s12.386-1.227,11.109,2.656-11.5,3.065-11.5,3.065l-3.78-3.321s-5.11-7.714-5.62-8.276-4.548-10.014-4.548-10.014a6.109,6.109,0,0,0-1.073-2.862c-.869-.972-.2-2.611-.2-2.611s-1.073-12.358.052-13.838S250.266,395.721,251.437,400.166Z" transform="translate(-210.776 -311.896)" fill="#ee8e9e"/>
    <path id="Path_10660" data-name="Path 10660" d="M428.752,584.07s-3.22,1.075-4.082,2.606S428.752,584.07,428.752,584.07Z" transform="translate(-351.458 -456.055)" opacity="0.1"/>
    <path id="Path_10661" data-name="Path 10661" d="M421.868,569.68c-.1.152-4.407,4.473-4.138,5.517S421.868,569.68,421.868,569.68Z" transform="translate(-346.212 -445.035)" opacity="0.1"/>
    <path id="Path_10662" data-name="Path 10662" d="M317.323,582.77s-4.8,2.265-5.213,3.25S317.323,582.77,317.323,582.77Z" transform="translate(-265.319 -455.059)" opacity="0.1"/>
    <path id="Path_10663" data-name="Path 10663" d="M316.906,595.2s-4.335,1.838-4.918,2.3S316.906,595.2,316.906,595.2Z" transform="translate(-265.209 -464.578)" opacity="0.1"/>
    <path id="Path_10664" data-name="Path 10664" d="M314.3,611.062s-1.92,1.431-2.979.307S314.3,611.062,314.3,611.062Z" transform="translate(-264.595 -476.506)" opacity="0.1"/>
    <path id="Path_10665" data-name="Path 10665" d="M328.011,452.74c-.1.155-6.489,11.648-8.175,12.517S328.011,452.74,328.011,452.74Z" transform="translate(-271.103 -355.48)" opacity="0.1"/>
    <path id="Path_10666" data-name="Path 10666" d="M330.042,471.29c0,.255-6.234,13.582-7.26,13.742S330.042,471.29,330.042,471.29Z" transform="translate(-273.441 -369.686)" opacity="0.1"/>
    <path id="Path_10667" data-name="Path 10667" d="M238.63,507.94s-3.007,6.428-4.178,6.805S238.63,507.94,238.63,507.94Z" transform="translate(-205.734 -397.753)" opacity="0.1"/>
    <path id="Path_10668" data-name="Path 10668" d="M244.85,495.72s-1.037,2.248-1.667,2.248S244.85,495.72,244.85,495.72Z" transform="translate(-212.465 -388.395)" opacity="0.1"/>
    <path id="Path_10669" data-name="Path 10669" d="M299.09,280.716a8.8,8.8,0,0,0,.56,3.094,8.346,8.346,0,0,1,8.719-8.576c.429.019.937.119,1.11.508a2.137,2.137,0,0,1,.105.646c.129.993,1.136,1.613,2.082,1.937a6.233,6.233,0,0,1,2.686,1.258,6.752,6.752,0,0,1,1.115,2.489,3.573,3.573,0,0,0,.862,1.405,8.84,8.84,0,1,0-17.238-2.761Z" transform="translate(-255.364 -216.969)" opacity="0.1"/>
    <path id="Path_10670" data-name="Path 10670" d="M309.156,247.354c-.726-.986-2.014-1.328-3.133-1.824a9.941,9.941,0,0,1-5.571-6.77,3.489,3.489,0,0,0,.342,4.351c-2.035-.138-4.283-.372-5.663-1.873-.314,1.082.625,2.311.112,3.314-.44.862-1.639.937-2.414,1.522a3.557,3.557,0,0,0-1.152,2.754,12.379,12.379,0,0,1-.248,3.065,9.715,9.715,0,0,0-.749,2.213,3.793,3.793,0,0,0,.375,1.679,15.161,15.161,0,0,0,2.323,3.859,8.36,8.36,0,0,1,8.55-10.07c.429.019.937.122,1.11.511a2.108,2.108,0,0,1,.105.646c.129.991,1.136,1.611,2.082,1.934a6.26,6.26,0,0,1,2.686,1.258,6.752,6.752,0,0,1,1.115,2.489c.309.864.906,1.768,1.817,1.873a14.991,14.991,0,0,0,.29-3.878c-.141-1.393-1.077-2.183-1.405-3.4C309.372,249.741,310.046,248.563,309.156,247.354Z" transform="translate(-248.923 -191.609)" fill="#603556"/>
    <path id="Path_10671" data-name="Path 10671" d="M243.117,378.888l-3.218,1.941s-.92,3.115-1.639,3.513c0,0,6.438-3.576,11.29,4.648a1.864,1.864,0,0,1,.511-1.583c.663-.51.51-2.707.51-2.707a9.252,9.252,0,0,0,.468-1.075C251.484,382.513,249.084,376.078,243.117,378.888Z" transform="translate(-208.779 -298.383)" opacity="0.1"/>
    <path id="Path_10672" data-name="Path 10672" d="M242.629,378.009l-3.22,1.941s-.92,3.117-1.639,3.527c0,0,6.438-3.578,11.29,4.648a1.861,1.861,0,0,1,.513-1.583c.665-.51.51-2.709.51-2.709a8.765,8.765,0,0,0,.468-1.073C251.006,381.636,248.6,375.2,242.629,378.009Z" transform="translate(-208.404 -297.71)" fill="#dfe5ee"/>
    <g id="Group_10538" data-name="Group 10538" transform="translate(41.757 48.207)" opacity="0.1">
      <path id="Path_10673" data-name="Path 10673" d="M309.741,251.916c-.012-.834-.508-1.752-.267-2.576l.042.044C309.575,250.237,310.048,251.134,309.741,251.916Z" transform="translate(-305.022 -247.919)"/>
      <path id="Path_10674" data-name="Path 10674" d="M294.806,277.793a15.961,15.961,0,0,1-.176,2.784c.077-.714.035-1.45.073-2.171a6.013,6.013,0,0,1,.134-1.016C294.822,277.533,294.81,277.659,294.806,277.793Z" transform="translate(-293.705 -269.4)"/>
      <path id="Path_10675" data-name="Path 10675" d="M290.68,302.478a2.54,2.54,0,0,1,.1-.548,3.9,3.9,0,0,0,.377,1.614,15.123,15.123,0,0,0,2.084,3.56,8.1,8.1,0,0,0,.136.913,15.161,15.161,0,0,1-2.323-3.859A3.793,3.793,0,0,1,290.68,302.478Z" transform="translate(-290.679 -288.193)"/>
      <path id="Path_10676" data-name="Path 10676" d="M330.879,245.951c-.2-.012-.4-.026-.6-.042a3.6,3.6,0,0,1-.34-2.639A3.452,3.452,0,0,0,330.879,245.951Z" transform="translate(-320.661 -243.27)"/>
      <path id="Path_10677" data-name="Path 10677" d="M304.116,285.213a8.5,8.5,0,0,1,6.742-2.941c.429.021.937.122,1.112.51a2.2,2.2,0,0,1,.105.646c.129.991,1.133,1.614,2.082,1.934a6.188,6.188,0,0,1,2.684,1.26,6.722,6.722,0,0,1,1.117,2.487c.309.862.9,1.766,1.813,1.873l-.1.614c-.911-.1-1.508-1-1.817-1.873a6.7,6.7,0,0,0-1.115-2.489,6.233,6.233,0,0,0-2.686-1.258c-.946-.321-1.953-.937-2.082-1.934a2.108,2.108,0,0,0-.105-.646,1.214,1.214,0,0,0-1.11-.51,8.318,8.318,0,0,0-8.548,6.7A8.459,8.459,0,0,1,304.116,285.213Z" transform="translate(-299.51 -273.134)"/>
    </g>
    <path id="Path_10678" data-name="Path 10678" d="M403.128,339.65v9.164l-8.768-.7V339.65Z" transform="translate(-302.009 -260.112)" fill="#3a3768"/>
    <path id="Path_10679" data-name="Path 10679" d="M403.128,373.283v.749l-8.768-.7v-.749Z" transform="translate(-302.009 -285.331)" opacity="0.1"/>
    <path id="Path_10680" data-name="Path 10680" d="M511.009,412.337l-13.639-.7h0A1.335,1.335,0,0,1,498.7,410.3l10.969.7A1.335,1.335,0,0,1,511.009,412.337Z" transform="translate(-407.211 -322.978)" fill="#3a3768"/>
    <path id="Path_10681" data-name="Path 10681" d="M467.771,282.7,420.6,281.3a1.433,1.433,0,0,1-1.436-1.436V251.993a1.433,1.433,0,0,1,1.436-1.433l47.176,1.405a1.435,1.435,0,0,1,1.435,1.433v27.867A1.436,1.436,0,0,1,467.771,282.7Z" transform="translate(-347.316 -200.646)" fill="#3a3768"/>
    <path id="Path_10682" data-name="Path 10682" d="M359.124,254.994l-47.834-1.405V228.48l47.834,1.405Z" transform="translate(-238.392 -174.976)" fill="#ffc107"/>
    <ellipse id="Ellipse_3332" data-name="Ellipse 3332" cx="0.422" cy="0.417" rx="0.422" ry="0.417" transform="translate(96.393 51.79)" fill="#fff"/>
    <path id="Path_10683" data-name="Path 10683" d="M403.18,346.6l-8.74-.141v.3h8.74Z" transform="translate(-302.07 -265.328)" opacity="0.1"/>
    <path id="Path_10684" data-name="Path 10684" d="M351.57,383.88l11.969.784-2.55,3.665-13.159-1.405Z" transform="translate(-266.375 -293.985)" opacity="0.1"/>
    <path id="Path_10685" data-name="Path 10685" d="M350.57,382.88l11.969.785-2.55,3.665-13.159-1.405Z" transform="translate(-265.609 -293.219)" fill="#3a3768"/>
    <path id="Path_10686" data-name="Path 10686" d="M354.392,384.04l10.437.637-2.222,2.986-11.477-1.145Z" transform="translate(-268.902 -294.107)" fill="#d5e1f4"/>
    <ellipse id="Ellipse_3333" data-name="Ellipse 3333" cx="15.034" cy="2.307" rx="15.034" ry="2.307" transform="translate(191.848 183.715)" fill="#ffc107" opacity="0.1"/>
    <path id="Path_10687" data-name="Path 10687" d="M1016.85,599.29s1.67,2.185-.773,5.484-4.449,6.089-3.642,8.14c0,0,3.686-6.128,6.683-6.213S1020.157,602.969,1016.85,599.29Z" transform="translate(-801.519 -467.71)" fill="#ffc107"/>
    <path id="Path_10688" data-name="Path 10688" d="M1017.153,599.29a2.743,2.743,0,0,1,.34.684c2.927,3.44,4.487,6.648,1.674,6.728-2.62.075-5.763,4.759-6.517,5.943a2.781,2.781,0,0,0,.089.269s3.686-6.128,6.683-6.213S1020.46,602.969,1017.153,599.29Z" transform="translate(-801.822 -467.71)" opacity="0.1"/>
    <path id="Path_10689" data-name="Path 10689" d="M1043.876,609.557c0,.768-.087,1.405-.192,1.405s-.194-.625-.194-1.405.108-.407.215-.407S1043.876,608.789,1043.876,609.557Z" transform="translate(-825.44 -475.193)" fill="#ffd037"/>
    <path id="Path_10690" data-name="Path 10690" d="M1045.383,613.376c-.674.368-1.265.59-1.314.5s.454-.468,1.129-.836.41-.1.468,0S1046.06,613.009,1045.383,613.376Z" transform="translate(-825.881 -478.094)" fill="#ffd037"/>
    <path id="Path_10691" data-name="Path 10691" d="M981.924,599.29s-1.672,2.185.77,5.484,4.449,6.089,3.642,8.14c0,0-3.684-6.128-6.684-6.213S978.625,602.969,981.924,599.29Z" transform="translate(-775.419 -467.71)" fill="#ffc107"/>
    <path id="Path_10692" data-name="Path 10692" d="M981.924,599.29a2.69,2.69,0,0,0-.342.684c-2.925,3.44-4.485,6.648-1.672,6.728,2.62.075,5.763,4.759,6.515,5.943a2.251,2.251,0,0,1-.089.269s-3.684-6.128-6.684-6.213S978.625,602.969,981.924,599.29Z" transform="translate(-775.419 -467.71)" opacity="0.1"/>
    <path id="Path_10693" data-name="Path 10693" d="M980.93,609.557c0,.768.084,1.405.192,1.405s.192-.625.192-1.405-.108-.407-.213-.407S980.93,608.789,980.93,609.557Z" transform="translate(-777.53 -475.193)" fill="#ffd037"/>
    <path id="Path_10694" data-name="Path 10694" d="M975,613.376c.677.368,1.265.59,1.316.5s-.468-.468-1.131-.836-.407-.1-.468,0S974.33,613.009,975,613.376Z" transform="translate(-772.672 -478.094)" fill="#ffd037"/>
    <ellipse id="Ellipse_3334" data-name="Ellipse 3334" cx="17.47" cy="2.681" rx="17.47" ry="2.681" transform="translate(193.447 156.557)" fill="#ffc107" opacity="0.1"/>
    <path id="Path_10695" data-name="Path 10695" d="M992.611,641.551l-.084.684-.117.963-.049.4-.117.962-.049.4-.117.962-1.337,10.96c-.119.979-1.719,1.74-3.649,1.74h-6.946c-1.93,0-3.524-.761-3.644-1.74l-1.34-10.96-.117-.962-.049-.4-.119-.962-.049-.4-.117-.963-.082-.684c-.068-.553.8-1.021,1.888-1.021h14.208C991.807,640.53,992.678,641,992.611,641.551Z" transform="translate(-772.701 -499.293)" fill="#65617d"/>
    <path id="Path_10696" data-name="Path 10696" d="M880.444,610.4l-.117.963h-17.58l-.117-.963Z" transform="translate(-660.619 -467.458)" fill="#9d9cb5"/>
    <path id="Path_10697" data-name="Path 10697" d="M880.814,616.23l-.117.965H863.449l-.119-.965Z" transform="translate(-661.155 -471.923)" fill="#9d9cb5"/>
    <path id="Path_10698" data-name="Path 10698" d="M881.2,622.06l-.117.965H864.167l-.117-.965Z" transform="translate(-661.706 -476.387)" fill="#9d9cb5"/>
  </g>
</svg>
